<svg xmlns="http://www.w3.org/2000/svg" xmlns:xlink="http://www.w3.org/1999/xlink" width="100" zoomAndPan="magnify" viewBox="0 0 75 74.999997" height="100" preserveAspectRatio="xMidYMid meet" version="1.0"><defs><clipPath id="7fcbb83f88"><path d="M 0 1.574219 L 41 1.574219 L 41 42.824219 L 0 42.824219 Z M 0 1.574219 " clip-rule="nonzero"/></clipPath><clipPath id="9172dc65d4"><path d="M 32.773438 1.574219 L 74 1.574219 L 74 43.574219 L 32.773438 43.574219 Z M 32.773438 1.574219 " clip-rule="nonzero"/></clipPath><clipPath id="f51c9beff8"><path d="M 15.601562 31.199219 L 59 31.199219 L 59 74.699219 L 15.601562 74.699219 Z M 15.601562 31.199219 " clip-rule="nonzero"/></clipPath></defs><path fill="#c98d26" d="M 39.9375 23.800781 L 7.566406 36.496094 L 0.398438 18.222656 L 32.773438 5.523438 C 32.773438 5.523438 33.964844 8.5625 35.0625 11.367188 C 36.164062 14.167969 36.613281 15.707031 37.824219 18.867188 C 39.078125 22.132812 39.9375 23.800781 39.9375 23.800781 Z M 39.9375 23.800781 " fill-opacity="1" fill-rule="nonzero"/><path fill="#c98d26" d="M 32.773438 5.523438 C 32.773438 5.523438 32.875 5.753906 33.027344 6.179688 C 32.867188 5.769531 32.773438 5.523438 32.773438 5.523438 Z M 39.9375 23.800781 C 39.863281 23.601562 39.765625 23.414062 39.660156 23.230469 C 39.308594 22.492188 38.652344 21.03125 37.824219 18.867188 C 36.609375 15.710938 36.160156 14.171875 35.0625 11.367188 C 34.273438 9.359375 33.4375 7.226562 33.027344 6.183594 C 33.621094 7.820312 34.972656 12.367188 34.078125 17.84375 C 33.507812 21.34375 31.679688 24.832031 29.9375 27.921875 C 29.476562 28.742188 28.964844 29.59375 28.941406 30.535156 C 28.917969 31.539062 29.476562 32.492188 30.238281 33.144531 C 31.003906 33.800781 31.949219 34.195312 32.902344 34.515625 C 33.125 34.59375 33.351562 34.660156 33.578125 34.726562 C 38.523438 31.285156 41.203125 27.023438 39.9375 23.800781 Z M 39.9375 23.800781 " fill-opacity="1" fill-rule="nonzero"/><g clip-path="url(#7fcbb83f88)"><path fill="#f4d668" d="M 40.074219 50.46875 C 37.96875 49.25 35.898438 47.9375 34.140625 46.261719 C 33.105469 45.269531 32.171875 44.148438 30.972656 43.367188 C 28.921875 42.035156 26.3125 41.792969 23.894531 42.144531 C 17.429688 43.085938 11.789062 44.125 7.699219 37.171875 L 0.703125 18.890625 C 0.265625 18.074219 0.0390625 17.152344 0.0703125 16.207031 L 0.0820312 15.75 C 0.113281 14.742188 0.425781 13.757812 0.984375 12.90625 L 2.082031 11.238281 C 2.359375 10.816406 2.695312 10.429688 3.078125 10.09375 L 5.464844 8 C 5.664062 7.824219 5.875 7.664062 6.097656 7.515625 C 6.097656 7.515625 8.859375 5.859375 11.949219 4.488281 C 13.570312 3.773438 15.257812 2.917969 18.277344 2.179688 C 19.976562 1.765625 21.832031 1.890625 21.832031 1.890625 C 21.832031 1.890625 24.03125 1.640625 25.890625 1.609375 C 27.753906 1.574219 30.566406 2.859375 31.207031 3.441406 L 31.441406 3.65625 C 32.613281 4.714844 33.25 6.226562 33.1875 7.800781 C 33.148438 8.910156 32.761719 9.984375 32.089844 10.886719 L 30.960938 12.390625 C 30.691406 12.753906 30.371094 13.085938 30.015625 13.375 L 27.488281 15.445312 C 27.320312 15.582031 27.148438 15.710938 26.96875 15.824219 L 23.964844 17.765625 C 23.746094 17.90625 23.519531 18.03125 23.28125 18.140625 C 23.28125 18.140625 19.21875 20.277344 16.367188 21.183594 C 11.125 22.851562 7.785156 22.253906 7.785156 22.253906 C 7.351562 22.269531 6.914062 22.242188 6.488281 22.160156 L 4.660156 21.816406 C 4.046875 21.699219 3.464844 21.480469 2.933594 21.175781 C 6.996094 25.222656 10.722656 27.878906 16.628906 26.128906 C 19.753906 25.207031 21.050781 24.152344 24.300781 23.957031 C 26.660156 23.816406 28.988281 24.488281 31.257812 25.152344 C 33.652344 25.851562 36.921875 28.351562 36.921875 28.351562 C 36.921875 28.351562 38.601562 32.34375 38.628906 34.1875 C 38.675781 37.226562 38.71875 40.265625 38.765625 43.304688 C 38.800781 45.761719 38.867188 48.332031 40.074219 50.46875 Z M 40.074219 50.46875 " fill-opacity="1" fill-rule="nonzero"/></g><path fill="#0a0b0a" d="M 17.417969 13.917969 C 15.175781 14.808594 12.976562 14.566406 12.503906 13.375 C 12.035156 12.1875 13.472656 10.503906 15.714844 9.617188 C 17.960938 8.730469 20.160156 8.972656 20.628906 10.160156 C 21.101562 11.347656 19.660156 13.03125 17.417969 13.917969 Z M 17.417969 13.917969 " fill-opacity="1" fill-rule="nonzero"/><path fill="#f4d668" d="M 21.070312 10.113281 C 20.539062 8.753906 18.148438 8.464844 15.636719 9.449219 C 13.121094 10.4375 11.566406 12.273438 12.101562 13.632812 C 12.632812 14.988281 15.023438 15.28125 17.535156 14.296875 C 20.050781 13.308594 21.601562 11.472656 21.070312 10.113281 Z M 17.253906 13.574219 C 15.035156 14.445312 13.136719 14.15625 12.820312 13.347656 C 12.503906 12.542969 13.699219 11.042969 15.917969 10.171875 C 18.136719 9.300781 20.03125 9.59375 20.347656 10.398438 C 20.664062 11.203125 19.472656 12.703125 17.253906 13.574219 Z M 17.253906 13.574219 " fill-opacity="1" fill-rule="nonzero"/><path fill="#c98d26" d="M 73.660156 24.328125 L 40.515625 37.324219 L 33.179688 18.617188 L 66.320312 5.617188 C 66.320312 5.617188 67.542969 8.730469 68.667969 11.597656 C 69.792969 14.46875 70.253906 16.042969 71.492188 19.277344 C 72.777344 22.621094 73.660156 24.328125 73.660156 24.328125 Z M 73.660156 24.328125 " fill-opacity="1" fill-rule="nonzero"/><path fill="#c98d26" d="M 66.320312 5.617188 C 66.320312 5.617188 66.425781 5.855469 66.585938 6.289062 C 66.421875 5.867188 66.320312 5.617188 66.320312 5.617188 Z M 73.660156 24.328125 C 73.578125 24.125 73.480469 23.929688 73.375 23.742188 C 73.015625 22.988281 72.34375 21.496094 71.492188 19.277344 C 70.25 16.042969 69.792969 14.46875 68.667969 11.601562 C 67.859375 9.542969 67.003906 7.363281 66.585938 6.292969 C 67.191406 7.96875 68.574219 12.625 67.660156 18.226562 C 67.074219 21.8125 65.203125 25.386719 63.417969 28.546875 C 62.945312 29.386719 62.421875 30.257812 62.402344 31.222656 C 62.378906 32.25 62.949219 33.226562 63.730469 33.894531 C 64.511719 34.566406 65.480469 34.96875 66.457031 35.296875 C 66.683594 35.375 66.914062 35.445312 67.148438 35.511719 C 72.210938 31.992188 74.953125 27.628906 73.660156 24.328125 Z M 73.660156 24.328125 " fill-opacity="1" fill-rule="nonzero"/><g clip-path="url(#9172dc65d4)"><path fill="#f4d668" d="M 73.796875 51.628906 C 71.644531 50.382812 69.523438 49.039062 67.722656 47.320312 C 66.660156 46.308594 65.707031 45.160156 64.476562 44.359375 C 62.382812 42.996094 59.710938 42.746094 57.234375 43.105469 C 50.617188 44.070312 44.84375 45.132812 40.652344 38.015625 L 33.492188 19.300781 C 33.042969 18.464844 32.8125 17.519531 32.84375 16.554688 L 32.855469 16.085938 C 32.886719 15.054688 33.207031 14.046875 33.78125 13.175781 L 34.902344 11.46875 C 35.1875 11.035156 35.53125 10.640625 35.921875 10.296875 L 38.363281 8.152344 C 38.570312 7.972656 38.789062 7.808594 39.015625 7.660156 C 39.015625 7.660156 41.839844 5.960938 45.007812 4.558594 C 46.664062 3.824219 48.390625 2.953125 51.484375 2.195312 C 53.222656 1.769531 55.121094 1.898438 55.121094 1.898438 C 55.121094 1.898438 57.371094 1.644531 59.277344 1.609375 C 61.1875 1.574219 64.0625 2.890625 64.71875 3.484375 L 64.960938 3.703125 C 66.160156 4.789062 66.808594 6.335938 66.75 7.949219 C 66.707031 9.085938 66.3125 10.183594 65.621094 11.105469 L 64.46875 12.644531 C 64.191406 13.019531 63.863281 13.359375 63.5 13.65625 L 60.910156 15.777344 C 60.742188 15.914062 60.5625 16.042969 60.378906 16.164062 L 57.304688 18.148438 C 57.082031 18.292969 56.847656 18.421875 56.605469 18.535156 C 56.605469 18.535156 52.445312 20.71875 49.527344 21.648438 C 44.160156 23.355469 40.742188 22.742188 40.742188 22.742188 C 40.296875 22.761719 39.851562 22.730469 39.414062 22.648438 L 37.542969 22.296875 C 36.914062 22.175781 36.316406 21.953125 35.773438 21.640625 C 39.933594 25.785156 43.75 28.503906 49.796875 26.710938 C 52.996094 25.765625 54.320312 24.6875 57.648438 24.488281 C 60.066406 24.34375 62.445312 25.03125 64.769531 25.710938 C 67.222656 26.429688 70.570312 28.988281 70.570312 28.988281 C 70.570312 28.988281 72.289062 33.074219 72.320312 34.960938 C 72.367188 38.070312 72.410156 41.183594 72.457031 44.292969 C 72.492188 46.808594 72.5625 49.441406 73.796875 51.628906 Z M 73.796875 51.628906 " fill-opacity="1" fill-rule="nonzero"/></g><path fill="#0a0b0a" d="M 50.605469 14.210938 C 48.308594 15.121094 46.054688 14.871094 45.574219 13.65625 C 45.09375 12.441406 46.5625 10.71875 48.859375 9.808594 C 51.15625 8.898438 53.410156 9.148438 53.890625 10.363281 C 54.371094 11.582031 52.898438 13.304688 50.605469 14.210938 Z M 50.605469 14.210938 " fill-opacity="1" fill-rule="nonzero"/><path fill="#f4d668" d="M 54.34375 10.316406 C 53.796875 8.925781 51.351562 8.628906 48.777344 9.636719 C 46.203125 10.644531 44.613281 12.527344 45.160156 13.917969 C 45.707031 15.308594 48.148438 15.605469 50.722656 14.597656 C 53.296875 13.585938 54.886719 11.707031 54.34375 10.316406 Z M 50.433594 13.859375 C 48.164062 14.75 46.222656 14.453125 45.898438 13.628906 C 45.574219 12.804688 46.796875 11.265625 49.066406 10.375 C 51.335938 9.484375 53.28125 9.78125 53.605469 10.605469 C 53.925781 11.429688 52.707031 12.96875 50.433594 13.859375 Z M 50.433594 13.859375 " fill-opacity="1" fill-rule="nonzero"/><path fill="#c98d26" d="M 58.003906 54.800781 L 23.628906 68.28125 L 16.019531 48.875 L 50.394531 35.394531 C 50.394531 35.394531 51.660156 38.621094 52.828125 41.597656 C 53.996094 44.574219 54.472656 46.207031 55.757812 49.558594 C 57.089844 53.03125 58.003906 54.800781 58.003906 54.800781 Z M 58.003906 54.800781 " fill-opacity="1" fill-rule="nonzero"/><path fill="#c98d26" d="M 50.394531 35.394531 C 50.394531 35.394531 50.503906 35.640625 50.667969 36.089844 C 50.496094 35.652344 50.394531 35.394531 50.394531 35.394531 Z M 58.003906 54.800781 C 57.921875 54.589844 57.820312 54.386719 57.710938 54.195312 C 57.335938 53.410156 56.640625 51.863281 55.757812 49.5625 C 54.46875 46.207031 53.992188 44.574219 52.828125 41.597656 C 51.988281 39.464844 51.101562 37.203125 50.667969 36.09375 C 51.296875 37.832031 52.730469 42.660156 51.78125 48.472656 C 51.175781 52.191406 49.234375 55.898438 47.386719 59.175781 C 46.894531 60.046875 46.351562 60.949219 46.328125 61.949219 C 46.304688 63.015625 46.898438 64.027344 47.707031 64.722656 C 48.515625 65.417969 49.523438 65.839844 50.53125 66.179688 C 50.769531 66.257812 51.007812 66.332031 51.25 66.402344 C 56.503906 62.75 59.347656 58.222656 58.003906 54.800781 Z M 58.003906 54.800781 " fill-opacity="1" fill-rule="nonzero"/><g clip-path="url(#f51c9beff8)"><path fill="#f4d668" d="M 58.148438 83.117188 C 55.914062 81.824219 53.714844 80.429688 51.847656 78.648438 C 50.746094 77.597656 49.757812 76.40625 48.484375 75.578125 C 46.308594 74.164062 43.535156 73.902344 40.96875 74.277344 C 34.105469 75.277344 28.117188 76.382812 23.773438 68.996094 L 16.34375 49.585938 C 15.875 48.71875 15.640625 47.738281 15.667969 46.738281 L 15.683594 46.253906 C 15.714844 45.183594 16.046875 44.136719 16.640625 43.230469 L 17.804688 41.460938 C 18.101562 41.011719 18.457031 40.601562 18.863281 40.246094 L 21.398438 38.023438 C 21.609375 37.835938 21.835938 37.664062 22.074219 37.511719 C 22.074219 37.511719 25 35.75 28.285156 34.292969 C 30.003906 33.53125 31.796875 32.628906 35.003906 31.84375 C 36.808594 31.402344 38.777344 31.535156 38.777344 31.535156 C 38.777344 31.535156 41.109375 31.273438 43.089844 31.234375 C 45.066406 31.199219 48.050781 32.5625 48.730469 33.179688 L 48.984375 33.40625 C 50.226562 34.535156 50.898438 36.140625 50.835938 37.8125 C 50.792969 38.988281 50.386719 40.132812 49.667969 41.085938 L 48.472656 42.683594 C 48.183594 43.070312 47.84375 43.421875 47.46875 43.730469 L 44.78125 45.929688 C 44.605469 46.074219 44.421875 46.207031 44.230469 46.332031 L 41.042969 48.390625 C 40.8125 48.542969 40.570312 48.675781 40.320312 48.792969 C 40.320312 48.792969 36.003906 51.058594 32.972656 52.019531 C 27.40625 53.792969 23.863281 53.15625 23.863281 53.15625 C 23.402344 53.175781 22.9375 53.144531 22.488281 53.058594 L 20.546875 52.691406 C 19.894531 52.566406 19.273438 52.335938 18.710938 52.015625 C 23.023438 56.3125 26.980469 59.132812 33.253906 57.273438 C 36.570312 56.292969 37.949219 55.171875 41.398438 54.96875 C 43.90625 54.816406 46.375 55.53125 48.785156 56.234375 C 51.328125 56.980469 54.800781 59.632812 54.800781 59.632812 C 54.800781 59.632812 56.585938 63.871094 56.617188 65.828125 C 56.664062 69.054688 56.710938 72.28125 56.757812 75.507812 C 56.796875 78.117188 56.867188 80.847656 58.148438 83.117188 Z M 58.148438 83.117188 " fill-opacity="1" fill-rule="nonzero"/></g><path fill="#0a0b0a" d="M 34.09375 44.308594 C 31.710938 45.25 29.375 44.992188 28.875 43.730469 C 28.375 42.46875 29.902344 40.683594 32.285156 39.738281 C 34.664062 38.796875 37 39.054688 37.5 40.316406 C 38 41.578125 36.472656 43.367188 34.09375 44.308594 Z M 34.09375 44.308594 " fill-opacity="1" fill-rule="nonzero"/><path fill="#f4d668" d="M 37.96875 40.265625 C 37.402344 38.824219 34.867188 38.515625 32.199219 39.5625 C 29.527344 40.609375 27.878906 42.558594 28.445312 44 C 29.011719 45.445312 31.546875 45.753906 34.214844 44.707031 C 36.886719 43.660156 38.535156 41.710938 37.96875 40.265625 Z M 33.914062 43.941406 C 31.5625 44.867188 29.546875 44.558594 29.210938 43.703125 C 28.875 42.847656 30.144531 41.253906 32.496094 40.328125 C 34.851562 39.40625 36.867188 39.714844 37.203125 40.570312 C 37.539062 41.421875 36.269531 43.019531 33.914062 43.941406 Z M 33.914062 43.941406 " fill-opacity="1" fill-rule="nonzero"/></svg>