<svg xmlns="http://www.w3.org/2000/svg" xmlns:xlink="http://www.w3.org/1999/xlink" width="100" zoomAndPan="magnify" viewBox="0 0 75 74.999997" height="100" preserveAspectRatio="xMidYMid meet" version="1.0"><path fill="#c98d26" d="M 72.621094 40.410156 L 13.753906 63.496094 L 0.722656 30.269531 L 59.585938 7.183594 C 59.585938 7.183594 61.753906 12.707031 63.753906 17.804688 C 65.753906 22.902344 66.570312 25.699219 68.773438 31.441406 C 71.050781 37.382812 72.621094 40.410156 72.621094 40.410156 Z M 72.621094 40.410156 " fill-opacity="1" fill-rule="nonzero"/><path fill="#c98d26" d="M 59.585938 7.183594 C 59.585938 7.183594 59.773438 7.601562 60.054688 8.375 C 59.761719 7.625 59.585938 7.183594 59.585938 7.183594 Z M 72.621094 40.410156 C 72.476562 40.050781 72.304688 39.707031 72.113281 39.375 C 71.476562 38.03125 70.28125 35.382812 68.769531 31.441406 C 66.566406 25.699219 65.75 22.902344 63.753906 17.808594 C 62.320312 14.152344 60.800781 10.277344 60.054688 8.378906 C 61.132812 11.359375 63.585938 19.625 61.964844 29.578125 C 60.925781 35.941406 57.601562 42.292969 54.433594 47.910156 C 53.59375 49.402344 52.664062 50.945312 52.625 52.65625 C 52.582031 54.484375 53.597656 56.214844 54.984375 57.402344 C 56.367188 58.59375 58.09375 59.316406 59.824219 59.898438 C 60.226562 60.035156 60.640625 60.160156 61.050781 60.28125 C 70.046875 54.023438 74.917969 46.273438 72.621094 40.410156 Z M 72.621094 40.410156 " fill-opacity="1" fill-rule="nonzero"/><path fill="#f4d668" d="M 72.863281 88.902344 C 69.039062 86.6875 65.269531 84.304688 62.074219 81.25 C 60.191406 79.453125 58.496094 77.414062 56.3125 75.992188 C 52.589844 73.570312 47.84375 73.125 43.445312 73.765625 C 31.691406 75.480469 21.4375 77.367188 13.996094 64.726562 L 1.277344 31.484375 C 0.476562 30.003906 0.0703125 28.324219 0.121094 26.605469 L 0.148438 25.777344 C 0.203125 23.945312 0.769531 22.152344 1.789062 20.601562 L 3.78125 17.570312 C 4.289062 16.800781 4.894531 16.101562 5.59375 15.492188 L 9.933594 11.683594 C 10.296875 11.367188 10.683594 11.070312 11.085938 10.804688 C 11.085938 10.804688 16.101562 7.789062 21.726562 5.296875 C 24.667969 3.996094 27.738281 2.445312 33.234375 1.101562 C 36.324219 0.347656 39.695312 0.574219 39.695312 0.574219 C 39.695312 0.574219 43.691406 0.121094 47.078125 0.0585938 C 50.464844 -0.00390625 55.578125 2.335938 56.738281 3.390625 L 57.171875 3.78125 C 59.296875 5.707031 60.453125 8.457031 60.34375 11.324219 C 60.269531 13.339844 59.570312 15.292969 58.34375 16.929688 L 56.296875 19.664062 C 55.800781 20.328125 55.222656 20.929688 54.578125 21.457031 L 49.976562 25.222656 C 49.675781 25.46875 49.363281 25.699219 49.035156 25.910156 L 43.574219 29.4375 C 43.175781 29.695312 42.761719 29.921875 42.332031 30.125 C 42.332031 30.125 34.941406 34.003906 29.753906 35.65625 C 20.222656 38.6875 14.152344 37.597656 14.152344 37.597656 C 13.363281 37.632812 12.570312 37.578125 11.796875 37.429688 L 8.472656 36.800781 C 7.355469 36.589844 6.296875 36.195312 5.332031 35.640625 C 12.71875 43 19.492188 47.828125 30.238281 44.648438 C 35.917969 42.96875 38.273438 41.050781 44.183594 40.699219 C 48.476562 40.445312 52.703125 41.664062 56.832031 42.871094 C 61.1875 44.144531 67.132812 48.6875 67.132812 48.6875 C 67.132812 48.6875 70.191406 55.945312 70.238281 59.296875 C 70.324219 64.824219 70.402344 70.347656 70.484375 75.875 C 70.550781 80.34375 70.671875 85.019531 72.863281 88.902344 Z M 72.863281 88.902344 " fill-opacity="1" fill-rule="nonzero"/><path fill="#0a0b0a" d="M 31.671875 22.445312 C 27.589844 24.0625 23.59375 23.617188 22.734375 21.457031 C 21.878906 19.296875 24.492188 16.238281 28.574219 14.625 C 32.652344 13.007812 36.652344 13.449219 37.507812 15.609375 C 38.363281 17.769531 35.75 20.832031 31.671875 22.445312 Z M 31.671875 22.445312 " fill-opacity="1" fill-rule="nonzero"/><path fill="#f4d668" d="M 38.308594 15.527344 C 37.339844 13.058594 33 12.527344 28.425781 14.320312 C 23.855469 16.109375 21.03125 19.453125 22 21.921875 C 22.96875 24.390625 27.3125 24.921875 31.882812 23.128906 C 36.457031 21.335938 39.277344 17.996094 38.308594 15.527344 Z M 31.367188 21.820312 C 27.335938 23.402344 23.886719 22.875 23.308594 21.410156 C 22.734375 19.945312 24.90625 17.214844 28.941406 15.632812 C 32.972656 14.050781 36.421875 14.578125 36.996094 16.042969 C 37.574219 17.503906 35.402344 20.238281 31.367188 21.820312 Z M 31.367188 21.820312 " fill-opacity="1" fill-rule="nonzero"/></svg>