<svg xmlns="http://www.w3.org/2000/svg" xmlns:xlink="http://www.w3.org/1999/xlink" width="100" zoomAndPan="magnify" viewBox="0 0 75 74.999997" height="100" preserveAspectRatio="xMidYMid meet" version="1.0"><defs><clipPath id="156aa01293"><path d="M 0 0 L 51 0 L 51 52.5 L 0 52.5 Z M 0 0 " clip-rule="nonzero"/></clipPath><clipPath id="bc50969bce"><path d="M 22.5 22.5 L 74 22.5 L 74 75 L 22.5 75 Z M 22.5 22.5 " clip-rule="nonzero"/></clipPath></defs><path fill="#c98d26" d="M 50.46875 28.085938 L 9.558594 44.128906 L 0.503906 21.035156 L 41.414062 4.992188 C 41.414062 4.992188 42.917969 8.832031 44.308594 12.375 C 45.699219 15.914062 46.265625 17.859375 47.796875 21.851562 C 49.378906 25.980469 50.46875 28.085938 50.46875 28.085938 Z M 50.46875 28.085938 " fill-opacity="1" fill-rule="nonzero"/><path fill="#c98d26" d="M 41.414062 4.992188 C 41.414062 4.992188 41.542969 5.28125 41.738281 5.820312 C 41.535156 5.296875 41.414062 4.992188 41.414062 4.992188 Z M 50.46875 28.085938 C 50.371094 27.832031 50.25 27.59375 50.117188 27.363281 C 49.675781 26.429688 48.84375 24.589844 47.792969 21.851562 C 46.261719 17.859375 45.695312 15.917969 44.308594 12.375 C 43.308594 9.835938 42.253906 7.144531 41.738281 5.820312 C 42.488281 7.894531 44.191406 13.636719 43.0625 20.554688 C 42.34375 24.980469 40.03125 29.390625 37.832031 33.292969 C 37.246094 34.332031 36.601562 35.40625 36.574219 36.59375 C 36.542969 37.863281 37.25 39.066406 38.210938 39.894531 C 39.175781 40.722656 40.375 41.222656 41.578125 41.628906 C 41.855469 41.722656 42.144531 41.808594 42.429688 41.894531 C 48.683594 37.542969 52.066406 32.160156 50.46875 28.085938 Z M 50.46875 28.085938 " fill-opacity="1" fill-rule="nonzero"/><g clip-path="url(#156aa01293)"><path fill="#f4d668" d="M 50.640625 61.785156 C 47.980469 60.246094 45.363281 58.589844 43.140625 56.46875 C 41.832031 55.214844 40.652344 53.800781 39.136719 52.8125 C 36.546875 51.128906 33.25 50.820312 30.195312 51.265625 C 22.027344 52.457031 14.898438 53.769531 9.730469 44.980469 L 0.886719 21.878906 C 0.886719 21.878906 0.890625 21.882812 0.890625 21.882812 C 0.332031 20.851562 0.0507812 19.683594 0.0859375 18.488281 L 0.105469 17.914062 C 0.140625 16.640625 0.535156 15.394531 1.246094 14.316406 L 2.628906 12.210938 C 2.980469 11.675781 3.402344 11.191406 3.886719 10.765625 L 6.902344 8.121094 C 7.15625 7.898438 7.425781 7.695312 7.707031 7.507812 C 7.707031 7.507812 11.191406 5.414062 15.101562 3.683594 C 17.144531 2.777344 19.277344 1.699219 23.097656 0.765625 C 25.246094 0.242188 27.589844 0.398438 27.589844 0.398438 C 27.589844 0.398438 30.363281 0.0859375 32.71875 0.0429688 C 35.074219 0 38.625 1.621094 39.433594 2.355469 L 39.734375 2.628906 C 41.210938 3.96875 42.015625 5.878906 41.9375 7.871094 C 41.886719 9.269531 41.402344 10.628906 40.546875 11.765625 L 39.125 13.664062 C 38.78125 14.128906 38.378906 14.546875 37.929688 14.910156 L 34.734375 17.527344 C 34.523438 17.699219 34.304688 17.859375 34.078125 18.007812 L 30.285156 20.457031 C 30.007812 20.636719 29.71875 20.796875 29.421875 20.933594 C 29.421875 20.933594 24.285156 23.632812 20.679688 24.777344 C 14.054688 26.886719 9.835938 26.128906 9.835938 26.128906 C 9.289062 26.152344 8.738281 26.113281 8.199219 26.011719 L 5.890625 25.578125 C 5.113281 25.429688 4.378906 25.15625 3.707031 24.769531 C 8.839844 29.882812 13.550781 33.238281 21.015625 31.027344 C 24.960938 29.859375 26.597656 28.53125 30.707031 28.285156 C 33.691406 28.105469 36.628906 28.953125 39.496094 29.792969 C 42.523438 30.679688 46.65625 33.835938 46.65625 33.835938 C 46.65625 33.835938 48.78125 38.878906 48.816406 41.210938 C 48.871094 45.050781 48.929688 48.890625 48.988281 52.730469 C 49.03125 55.835938 49.113281 59.085938 50.640625 61.785156 Z M 50.640625 61.785156 " fill-opacity="1" fill-rule="nonzero"/></g><path fill="#0a0b0a" d="M 22.011719 15.601562 C 19.175781 16.722656 16.398438 16.414062 15.800781 14.914062 C 15.207031 13.410156 17.023438 11.285156 19.859375 10.164062 C 22.695312 9.039062 25.472656 9.347656 26.066406 10.847656 C 26.664062 12.351562 24.84375 14.476562 22.011719 15.601562 Z M 22.011719 15.601562 " fill-opacity="1" fill-rule="nonzero"/><path fill="#f4d668" d="M 26.625 10.789062 C 25.953125 9.074219 22.933594 8.703125 19.757812 9.949219 C 16.578125 11.195312 14.617188 13.519531 15.292969 15.234375 C 15.964844 16.949219 18.980469 17.320312 22.160156 16.074219 C 25.335938 14.828125 27.296875 12.507812 26.625 10.789062 Z M 21.800781 15.164062 C 19 16.261719 16.601562 15.898438 16.199219 14.878906 C 15.800781 13.863281 17.3125 11.960938 20.113281 10.863281 C 22.914062 9.765625 25.3125 10.132812 25.714844 11.148438 C 26.113281 12.164062 24.605469 14.0625 21.800781 15.164062 Z M 21.800781 15.164062 " fill-opacity="1" fill-rule="nonzero"/><path fill="#c98d26" d="M 73.332031 50.785156 L 32.128906 66.945312 L 23.007812 43.6875 L 64.210938 27.527344 C 64.210938 27.527344 65.726562 31.394531 67.128906 34.960938 C 68.527344 38.53125 69.097656 40.488281 70.640625 44.507812 C 72.234375 48.664062 73.332031 50.785156 73.332031 50.785156 Z M 73.332031 50.785156 " fill-opacity="1" fill-rule="nonzero"/><path fill="#c98d26" d="M 64.210938 27.527344 C 64.210938 27.527344 64.339844 27.820312 64.539062 28.363281 C 64.332031 27.835938 64.210938 27.527344 64.210938 27.527344 Z M 73.332031 50.785156 C 73.234375 50.535156 73.113281 50.292969 72.976562 50.0625 C 72.53125 49.121094 71.695312 47.265625 70.636719 44.507812 C 69.09375 40.488281 68.523438 38.53125 67.125 34.964844 C 66.121094 32.40625 65.058594 29.695312 64.539062 28.363281 C 65.292969 30.449219 67.011719 36.238281 65.875 43.203125 C 65.148438 47.660156 62.820312 52.101562 60.601562 56.035156 C 60.015625 57.078125 59.363281 58.160156 59.335938 59.359375 C 59.308594 60.636719 60.015625 61.847656 60.988281 62.679688 C 61.957031 63.515625 63.164062 64.019531 64.375 64.425781 C 64.65625 64.523438 64.945312 64.609375 65.234375 64.695312 C 71.53125 60.316406 74.941406 54.890625 73.332031 50.785156 Z M 73.332031 50.785156 " fill-opacity="1" fill-rule="nonzero"/><g clip-path="url(#bc50969bce)"><path fill="#f4d668" d="M 73.503906 84.730469 C 70.828125 83.179688 68.1875 81.511719 65.953125 79.375 C 64.632812 78.113281 63.445312 76.6875 61.917969 75.691406 C 59.3125 73.996094 55.988281 73.6875 52.910156 74.132812 C 44.683594 75.335938 37.507812 76.65625 32.296875 67.804688 L 23.394531 44.539062 C 22.835938 43.5 22.550781 42.324219 22.585938 41.121094 L 22.605469 40.542969 C 22.640625 39.261719 23.039062 38.007812 23.753906 36.921875 L 25.148438 34.796875 C 25.503906 34.257812 25.929688 33.769531 26.414062 33.34375 L 29.453125 30.679688 C 29.707031 30.457031 29.980469 30.25 30.261719 30.0625 C 30.261719 30.0625 33.773438 27.953125 37.710938 26.207031 C 39.769531 25.296875 41.917969 24.210938 45.761719 23.269531 C 47.925781 22.742188 50.285156 22.902344 50.285156 22.902344 C 50.285156 22.902344 53.082031 22.585938 55.453125 22.542969 C 57.824219 22.5 61.402344 24.132812 62.214844 24.875 L 62.519531 25.148438 C 64.007812 26.496094 64.816406 28.421875 64.742188 30.425781 C 64.6875 31.835938 64.199219 33.207031 63.339844 34.351562 L 61.90625 36.265625 C 61.558594 36.730469 61.15625 37.148438 60.703125 37.519531 L 57.484375 40.15625 C 57.273438 40.328125 57.050781 40.488281 56.824219 40.636719 L 53 43.105469 C 52.722656 43.285156 52.433594 43.445312 52.132812 43.585938 C 52.132812 43.585938 46.960938 46.300781 43.328125 47.457031 C 36.65625 49.582031 32.40625 48.820312 32.40625 48.820312 C 31.855469 48.839844 31.300781 48.800781 30.757812 48.699219 L 28.433594 48.261719 C 27.652344 48.113281 26.910156 47.835938 26.234375 47.449219 C 31.402344 52.597656 36.144531 55.980469 43.667969 53.753906 C 47.640625 52.574219 49.289062 51.234375 53.429688 50.988281 C 56.433594 50.808594 59.394531 51.664062 62.28125 52.507812 C 65.332031 53.398438 69.492188 56.582031 69.492188 56.582031 C 69.492188 56.582031 71.632812 61.660156 71.667969 64.007812 C 71.726562 67.875 71.78125 71.742188 71.839844 75.609375 C 71.882812 78.738281 71.96875 82.011719 73.503906 84.730469 Z M 73.503906 84.730469 " fill-opacity="1" fill-rule="nonzero"/></g><path fill="#0a0b0a" d="M 44.667969 38.210938 C 41.8125 39.34375 39.015625 39.03125 38.414062 37.519531 C 37.816406 36.007812 39.644531 33.867188 42.5 32.734375 C 45.355469 31.605469 48.15625 31.914062 48.753906 33.425781 C 49.355469 34.941406 47.523438 37.082031 44.667969 38.210938 Z M 44.667969 38.210938 " fill-opacity="1" fill-rule="nonzero"/><path fill="#f4d668" d="M 49.316406 33.367188 C 48.636719 31.640625 45.597656 31.265625 42.398438 32.523438 C 39.199219 33.777344 37.222656 36.117188 37.902344 37.84375 C 38.578125 39.574219 41.617188 39.945312 44.816406 38.691406 C 48.019531 37.433594 49.996094 35.097656 49.316406 33.367188 Z M 44.457031 37.773438 C 41.636719 38.878906 39.21875 38.511719 38.816406 37.484375 C 38.414062 36.460938 39.9375 34.546875 42.757812 33.441406 C 45.582031 32.335938 47.996094 32.703125 48.398438 33.730469 C 48.800781 34.753906 47.28125 36.664062 44.457031 37.773438 Z M 44.457031 37.773438 " fill-opacity="1" fill-rule="nonzero"/></svg>