<?xml version="1.0" standalone="no"?>
<!DOCTYPE svg PUBLIC "-//W3C//DTD SVG 20010904//EN"
 "http://www.w3.org/TR/2001/REC-SVG-20010904/DTD/svg10.dtd">
<svg version="1.0" xmlns="http://www.w3.org/2000/svg"
 width="1024.000000pt" height="1024.000000pt" viewBox="0 0 1024.000000 1024.000000"
 preserveAspectRatio="xMidYMid meet">

<g transform="translate(0.000000,1024.000000) scale(0.100000,-0.100000)"
fill="#000000" stroke="none">
<path d="M0 5120 l0 -5120 5120 0 5120 0 0 5120 0 5120 -5120 0 -5120 0 0
-5120z m4274 3200 c131 -19 200 -52 266 -127 49 -56 60 -93 60 -208 1 -128 17
-334 31 -391 24 -99 78 -175 156 -221 92 -54 205 -12 468 173 180 126 319 196
520 263 209 69 370 95 540 88 527 -24 968 -262 1344 -728 120 -148 257 -384
335 -578 69 -171 130 -427 156 -656 40 -355 16 -672 -76 -1018 -195 -732 -602
-1292 -1261 -1736 -76 -51 -271 -151 -413 -213 -458 -199 -1058 -274 -1539
-192 -230 39 -404 90 -612 179 -429 185 -738 435 -954 770 -100 157 -169 212
-253 202 -52 -6 -86 -29 -126 -85 -43 -61 -48 -168 -12 -312 31 -126 67 -200
165 -340 118 -168 126 -188 126 -300 0 -116 -21 -165 -104 -250 -135 -137
-304 -154 -481 -49 -164 97 -370 375 -467 629 -104 272 -121 670 -43 974 26
104 94 254 158 348 213 316 534 469 922 442 215 -15 374 -10 464 15 152 42
301 130 396 235 86 94 167 254 202 401 26 106 36 376 18 494 -23 157 -93 330
-221 547 -109 184 -227 460 -249 582 -39 215 -53 606 -29 765 18 118 75 204
163 249 44 22 190 56 246 57 19 0 66 -4 104 -9z"/>
</g>
</svg>
