<svg xmlns="http://www.w3.org/2000/svg" xmlns:xlink="http://www.w3.org/1999/xlink" width="600" zoomAndPan="magnify" viewBox="0 0 450 449.999984" height="600" preserveAspectRatio="xMidYMid meet" version="1.0"><defs><clipPath id="2fc1fdffec"><path d="M 3 34 L 416 34 L 416 428 L 3 428 Z M 3 34 " clip-rule="nonzero"/></clipPath><clipPath id="6d1a25aced"><path d="M 278.195312 -39.320312 L 466.15625 310.214844 L 105.917969 503.929688 L -82.039062 154.390625 Z M 278.195312 -39.320312 " clip-rule="nonzero"/></clipPath><clipPath id="1eee32dbb0"><path d="M 278.195312 -39.320312 L 466.15625 310.214844 L 105.917969 503.929688 L -82.039062 154.390625 Z M 278.195312 -39.320312 " clip-rule="nonzero"/></clipPath><clipPath id="0eaa65e403"><path d="M 36 19 L 449 19 L 449 413 L 36 413 Z M 36 19 " clip-rule="nonzero"/></clipPath><clipPath id="76f91e79a3"><path d="M 310.839844 -54.054688 L 498.796875 295.480469 L 138.558594 489.195312 L -49.398438 139.65625 Z M 310.839844 -54.054688 " clip-rule="nonzero"/></clipPath><clipPath id="67ad867c04"><path d="M 310.839844 -54.054688 L 498.796875 295.480469 L 138.558594 489.195312 L -49.398438 139.65625 Z M 310.839844 -54.054688 " clip-rule="nonzero"/></clipPath></defs><g clip-path="url(#2fc1fdffec)"><g clip-path="url(#6d1a25aced)"><g clip-path="url(#1eee32dbb0)"><path fill="#c98d26" d="M 415.628906 261.40625 C 412.515625 297.726562 387.632812 332.113281 358.714844 357.484375 C 330.011719 382.742188 297.277344 398.980469 263.4375 410.628906 C 229.503906 422.601562 194.574219 430.199219 158.890625 426.746094 C 123.207031 423.289062 86.988281 409.210938 58.738281 384.574219 C 30.160156 359.835938 9.773438 324.96875 4.601562 288.464844 C -0.242188 252.058594 10.128906 214.019531 23.964844 176.84375 C 37.589844 139.777344 54.355469 103.484375 82.292969 77.820312 C 110.121094 51.945312 149.003906 36.492188 188.5 34.347656 C 227.996094 32.207031 268.105469 43.375 300.347656 64.777344 C 332.472656 85.96875 356.851562 117.601562 378.3125 152.4375 C 399.984375 187.160156 418.53125 225.199219 415.628906 261.40625 Z M 415.628906 261.40625 " fill-opacity="1" fill-rule="nonzero"/></g></g></g><g clip-path="url(#0eaa65e403)"><g clip-path="url(#76f91e79a3)"><g clip-path="url(#67ad867c04)"><path fill="#f4d668" d="M 448.269531 246.671875 C 445.15625 282.992188 420.273438 317.378906 391.359375 342.75 C 362.652344 368.007812 329.917969 384.246094 296.082031 395.894531 C 262.144531 407.867188 227.21875 415.464844 191.53125 412.011719 C 155.847656 408.558594 119.628906 394.476562 91.378906 369.839844 C 62.800781 345.105469 42.414062 310.234375 37.242188 273.730469 C 32.398438 237.324219 42.769531 199.285156 56.605469 162.109375 C 70.230469 125.046875 86.996094 88.75 114.933594 63.085938 C 142.761719 37.210938 181.644531 21.757812 221.144531 19.613281 C 260.640625 17.472656 300.746094 28.644531 332.988281 50.042969 C 365.117188 71.234375 389.492188 102.867188 410.953125 137.703125 C 432.625 172.425781 451.171875 210.46875 448.269531 246.671875 Z M 448.269531 246.671875 " fill-opacity="1" fill-rule="nonzero"/></g></g></g></svg>