<svg xmlns="http://www.w3.org/2000/svg" xmlns:xlink="http://www.w3.org/1999/xlink" width="600" zoomAndPan="magnify" viewBox="0 0 450 449.999984" height="600" preserveAspectRatio="xMidYMid meet" version="1.0"><defs><clipPath id="c441dfa15a"><path d="M 179 36 L 273 36 L 273 368.097656 L 179 368.097656 Z M 179 36 " clip-rule="nonzero"/></clipPath></defs><path fill="#f4d668" d="M 363.070312 23.53125 C 396.648438 45.476562 417.003906 87.511719 426.523438 128.757812 C 436.042969 169.738281 434.71875 209.925781 428.375 248.789062 C 422.292969 287.917969 411.453125 325.726562 389.507812 358.511719 C 367.566406 391.296875 335.042969 419.058594 296.445312 433.597656 C 257.578125 448.402344 213.160156 449.988281 175.089844 435.976562 C 137.28125 421.699219 105.820312 391.824219 77 359.039062 C 48.183594 326.519531 21.742188 291.355469 11.433594 250.90625 C 0.855469 210.453125 6.144531 164.714844 24.652344 125.320312 C 43.160156 85.925781 74.886719 52.878906 112.429688 32.785156 C 149.707031 12.691406 193.066406 5.550781 238.015625 2.910156 C 282.960938 0 329.492188 1.851562 363.070312 23.53125 Z M 363.070312 23.53125 " fill-opacity="1" fill-rule="nonzero"/><path fill="#0a0b0a" d="M 279.476562 196.230469 C 278.21875 193.585938 259.589844 192.675781 259.589844 192.675781 C 259.589844 192.675781 239.554688 192.570312 238.695312 193.1875 C 237.835938 193.804688 237.589844 194.015625 234.414062 196.046875 C 231.242188 198.082031 223.703125 199.96875 223.703125 199.96875 L 225.605469 204.515625 L 196.179688 200.832031 C 196.179688 200.832031 194.597656 216.074219 193.773438 228.652344 L 193.65625 228.695312 L 193.648438 230.601562 C 193.121094 239.042969 191.226562 272.746094 193.3125 287.699219 C 193.394531 288.328125 193.417969 288.964844 193.421875 289.597656 C 194.253906 295.460938 199.503906 331.835938 203.792969 346.328125 C 204.476562 348.640625 205.136719 350.398438 205.75 351.382812 C 205.75 351.382812 205.804688 351.394531 205.910156 351.410156 C 207.535156 351.707031 220.953125 353.980469 227.320312 349.75 C 227.605469 349.558594 227.878906 349.355469 228.132812 349.136719 C 228.132812 349.136719 228.140625 347.847656 228.160156 345.554688 C 228.265625 332.554688 228.734375 287.300781 230.367188 262.289062 L 232.53125 245.570312 C 232.535156 245.554688 232.539062 245.542969 232.542969 245.527344 C 232.546875 245.488281 232.546875 245.453125 232.550781 245.414062 L 234.769531 228.253906 C 235.144531 226.691406 235.648438 225.140625 235.984375 223.570312 C 236.019531 223.621094 236.050781 223.667969 236.085938 223.71875 C 235.984375 224.988281 235.886719 226.265625 235.792969 227.53125 L 235.757812 227.542969 C 235.671875 228.527344 235.554688 229.503906 235.421875 230.484375 L 235.410156 232.640625 L 235.324219 232.226562 C 235.324219 232.226562 233.527344 274.347656 235.179688 286.65625 L 235.179688 286.667969 C 235.179688 286.675781 235.179688 286.679688 235.179688 286.683594 C 235.183594 286.707031 235.1875 286.738281 235.195312 286.765625 C 235.222656 286.984375 235.253906 287.195312 235.289062 287.402344 C 235.328125 287.839844 235.328125 288.289062 235.316406 288.734375 C 236.285156 295.335938 242.03125 333.8125 246.46875 346.914062 C 246.988281 348.449219 247.488281 349.632812 247.960938 350.378906 C 247.960938 350.378906 248.1875 350.421875 248.59375 350.492188 C 248.617188 350.492188 248.644531 350.496094 248.667969 350.503906 C 248.71875 350.511719 248.773438 350.519531 248.832031 350.527344 C 250.191406 350.746094 253.007812 351.140625 256.265625 351.261719 C 258.933594 351.359375 261.898438 351.273438 264.597656 350.753906 C 266.335938 350.421875 267.957031 349.910156 269.324219 349.152344 C 269.847656 348.863281 270.335938 348.535156 270.777344 348.167969 C 270.777344 348.167969 270.777344 347.101562 270.789062 345.183594 C 270.855469 334.953125 271.140625 300.464844 272.214844 274.660156 C 273.007812 264.3125 274.808594 245 275.632812 236.273438 L 279.082031 208.425781 L 279 208.414062 C 279.628906 203.050781 280.089844 197.515625 279.476562 196.230469 Z M 236.167969 222.730469 C 236.160156 222.71875 236.15625 222.707031 236.148438 222.695312 C 236.152344 222.675781 236.15625 222.65625 236.160156 222.640625 C 236.164062 222.640625 236.167969 222.644531 236.171875 222.648438 C 236.171875 222.675781 236.167969 222.699219 236.167969 222.730469 Z M 236.167969 222.730469 " fill-opacity="1" fill-rule="nonzero"/><path fill="#005e38" d="M 267.816406 120.546875 C 268.207031 120.4375 268.570312 120.191406 268.945312 120.03125 C 269.121094 119.953125 269.3125 119.871094 269.503906 119.777344 C 269.511719 119.789062 269.523438 119.796875 269.523438 119.808594 C 269.527344 119.816406 269.527344 119.820312 269.527344 119.824219 C 270.296875 119.320312 271.605469 119.65625 271.589844 120.851562 C 271.578125 121.464844 271.90625 122.011719 272.113281 122.578125 C 272.140625 122.652344 272.164062 122.726562 272.1875 122.800781 C 282.003906 124.722656 303.191406 124.265625 292.75 101.90625 C 279.160156 72.820312 255.988281 68.261719 255.988281 68.261719 C 209.808594 62.535156 200.328125 77.382812 186.417969 82.691406 C 173.492188 87.621094 164.550781 120.042969 163.519531 124.6875 C 162.621094 126.984375 170.207031 127.566406 163.621094 132.140625 C 158.164062 135.933594 171.257812 138.242188 171.257812 138.242188 L 179.109375 137.480469 L 182.148438 134.882812 C 182.148438 134.882812 184.6875 134.28125 187.496094 134.070312 C 188.90625 140.554688 195.585938 163.113281 197.144531 172.394531 C 197.144531 172.394531 193.125 199.652344 194.824219 204.957031 C 194.824219 204.957031 239.574219 218.695312 279.675781 197.691406 C 281.542969 179.121094 272.945312 144.644531 267.476562 121.722656 C 267.40625 121.535156 267.363281 121.324219 267.316406 121.109375 C 267.25 120.921875 267.183594 120.734375 267.113281 120.550781 C 267.203125 120.582031 267.296875 120.605469 267.414062 120.617188 C 267.574219 120.632812 267.707031 120.601562 267.816406 120.546875 Z M 266.976562 121.386719 C 267.039062 121.410156 267.117188 121.433594 267.203125 121.464844 C 267.0625 121.445312 266.921875 121.429688 266.976562 121.386719 Z M 266.976562 121.386719 " fill-opacity="1" fill-rule="nonzero"/><path fill="#c98d26" d="M 196.140625 69.199219 C 193.335938 60.910156 194.179688 51.234375 194.179688 51.234375 C 194.179688 51.234375 215.769531 40.867188 219.476562 50.828125 C 219.476562 50.828125 221.417969 48.875 223.660156 51.351562 C 223.660156 51.351562 225.621094 56.347656 225.230469 59.863281 L 232.089844 75.289062 C 232.089844 75.289062 231.324219 87.082031 219.648438 87.433594 L 214.675781 80.746094 C 213.273438 81.105469 211.472656 81.191406 209.167969 80.871094 C 208.53125 80.804688 207.902344 80.691406 207.289062 80.539062 C 207.257812 80.535156 207.226562 80.527344 207.191406 80.519531 C 203.535156 79.742188 200.886719 77.65625 198.96875 74.941406 C 197.707031 73.273438 196.734375 71.328125 196.140625 69.199219 Z M 304.59375 138.0625 C 304.59375 138.0625 303.253906 150.285156 256.71875 171.542969 C 256.480469 171.652344 256.242188 171.765625 255.996094 171.875 C 255.105469 172.511719 254.410156 172.960938 253.921875 173.21875 C 253.542969 173.421875 253.136719 173.617188 252.746094 173.808594 C 252.300781 174.027344 251.835938 174.253906 251.390625 174.492188 C 249.585938 175.457031 247.789062 176.105469 245.644531 176.777344 C 244.003906 177.292969 242.359375 177.707031 240.769531 178.105469 C 240.269531 178.230469 239.773438 178.355469 239.277344 178.480469 C 238.613281 178.652344 237.917969 178.855469 237.246094 179.050781 C 235.8125 179.472656 234.324219 179.90625 232.898438 180.105469 C 232.742188 180.128906 232.535156 180.160156 232.292969 180.1875 C 231.601562 180.078125 230.910156 179.746094 230.5625 179.203125 C 230.097656 178.476562 231.363281 177.5625 231.859375 177.101562 C 231.933594 177.121094 232.015625 177.117188 232.085938 177.058594 C 232.394531 176.8125 232.769531 176.671875 233.160156 176.566406 C 233.289062 176.566406 233.394531 176.570312 233.433594 176.570312 C 233.53125 176.570312 233.597656 176.523438 233.636719 176.457031 C 233.710938 176.441406 233.785156 176.425781 233.859375 176.410156 C 233.894531 176.417969 233.933594 176.417969 233.976562 176.402344 C 234 176.394531 234.019531 176.382812 234.042969 176.375 C 234.125 176.355469 234.214844 176.339844 234.296875 176.320312 C 234.394531 176.300781 234.445312 176.238281 234.457031 176.164062 C 234.460938 176.15625 234.460938 176.148438 234.460938 176.140625 C 234.472656 176.136719 234.480469 176.125 234.488281 176.121094 C 234.394531 176.136719 234.296875 176.148438 234.199219 176.160156 C 234.179688 176.167969 234.15625 176.171875 234.132812 176.167969 C 234.046875 176.175781 233.964844 176.1875 233.878906 176.195312 C 232.753906 176.292969 231.628906 176.429688 230.5 176.398438 C 230.132812 176.386719 229.710938 176.34375 229.351562 176.433594 C 229.320312 176.441406 229.148438 176.507812 229.074219 176.484375 C 228.738281 176.363281 228.359375 176.382812 228.007812 176.347656 C 227.757812 176.320312 227.476562 176.296875 227.246094 176.191406 C 226.640625 176.183594 226.027344 176.175781 225.414062 176.152344 C 223.171875 176.058594 221.265625 175.898438 219.269531 175.433594 C 218.78125 175.320312 218.277344 175.222656 217.789062 175.128906 C 217.363281 175.042969 216.917969 174.957031 216.496094 174.863281 C 216.25 174.804688 215.949219 174.722656 215.597656 174.609375 C 215.59375 174.621094 215.589844 174.636719 215.585938 174.652344 C 215.550781 174.652344 215.519531 174.65625 215.488281 174.664062 C 215.4375 174.65625 215.382812 174.652344 215.328125 174.664062 C 214.589844 174.804688 213.847656 174.867188 213.101562 174.914062 C 212.992188 174.921875 212.902344 174.960938 212.832031 175.019531 C 189.707031 176.121094 168.925781 170.574219 168.925781 170.574219 C 152.515625 160.671875 164.59375 125.902344 164.59375 125.902344 C 164.59375 125.902344 186.855469 130.601562 187.324219 132.140625 C 187.324219 132.140625 187.128906 143.117188 183.597656 150.535156 C 196.046875 154.761719 208.886719 158.675781 213.261719 159.996094 L 213.222656 159.925781 C 214.324219 160.246094 215.402344 160.652344 216.496094 160.992188 C 216.519531 161 216.542969 161.003906 216.566406 161.007812 C 216.609375 161.058594 216.65625 161.109375 216.699219 161.164062 C 216.765625 161.082031 216.84375 160.992188 216.917969 160.894531 C 216.9375 160.878906 216.953125 160.859375 216.96875 160.839844 C 217.0625 160.726562 217.160156 160.605469 217.265625 160.472656 C 217.53125 160.15625 217.757812 159.878906 217.871094 159.734375 C 220.753906 156 223.261719 153 227.0625 151.183594 C 227.863281 150.800781 228.796875 150.558594 229.695312 150.324219 C 229.878906 150.277344 230.058594 150.230469 230.238281 150.183594 L 230.257812 150.179688 C 230.757812 150.042969 231.675781 149.886719 232.257812 150.3125 C 232.570312 150.542969 232.738281 150.90625 232.753906 151.398438 C 232.832031 153.472656 229.824219 154.75 228.238281 155.386719 C 228.25 155.402344 228.261719 155.421875 228.265625 155.445312 L 228.222656 155.453125 C 228.191406 155.789062 228.074219 156.105469 227.957031 156.410156 C 227.824219 156.761719 227.699219 157.09375 227.703125 157.453125 L 227.699219 157.464844 C 231 158.304688 234.40625 158.191406 237.75 157.921875 C 237.671875 157.792969 237.601562 157.660156 237.546875 157.519531 L 237.507812 157.523438 C 237.503906 157.5 237.507812 157.480469 237.515625 157.460938 C 235.824219 157.253906 232.585938 156.804688 232.121094 154.78125 C 232.011719 154.300781 232.078125 153.902344 232.320312 153.601562 C 232.769531 153.039062 233.699219 152.953125 234.214844 152.953125 L 234.238281 152.953125 C 234.421875 152.953125 234.605469 152.953125 234.796875 152.949219 C 235.726562 152.941406 236.691406 152.933594 237.5625 153.09375 C 241.703125 153.863281 244.902344 156.109375 248.660156 158.96875 C 248.804688 159.078125 249.09375 159.28125 249.433594 159.523438 C 249.714844 159.722656 249.953125 159.894531 250.160156 160.042969 C 250.230469 159.875 250.316406 159.714844 250.414062 159.5625 C 250.414062 159.5625 251.269531 158.734375 252.707031 157.355469 C 258.585938 151.730469 274.21875 137.015625 280.824219 133.105469 C 275.367188 128.984375 269.648438 119.25 269.648438 119.25 C 269.648438 119.25 287.757812 110.625 292.988281 102.5625 C 292.996094 102.5625 306.574219 129.292969 304.59375 138.0625 Z M 233.792969 175.9375 C 233.808594 175.933594 233.824219 175.933594 233.839844 175.933594 C 233.839844 175.929688 233.839844 175.929688 233.839844 175.925781 C 233.824219 175.929688 233.808594 175.933594 233.792969 175.9375 Z M 233.792969 175.9375 " fill-opacity="1" fill-rule="nonzero"/><g clip-path="url(#c441dfa15a)"><path fill="#000000" d="M 271.761719 363.007812 C 271.753906 363.046875 271.742188 363.082031 271.730469 363.117188 C 271.6875 363.261719 271.625 363.382812 271.546875 363.484375 L 271.515625 363.617188 L 271.480469 363.785156 L 271.398438 363.726562 L 271.351562 363.691406 C 271.308594 363.734375 271.257812 363.773438 271.207031 363.816406 C 271.164062 363.847656 271.125 363.878906 271.082031 363.914062 C 270.019531 364.746094 268.589844 365.296875 267.023438 365.652344 C 266.242188 365.832031 265.425781 365.960938 264.597656 366.054688 C 261.476562 366.402344 258.261719 366.203125 256.484375 366.039062 C 254.832031 365.882812 253.261719 365.851562 251.636719 365.945312 C 250.742188 366 249.824219 366.09375 248.871094 366.222656 C 248.769531 366.238281 248.667969 366.25 248.5625 366.265625 C 248.519531 366.273438 248.476562 366.277344 248.433594 366.285156 C 248.179688 366.324219 247.914062 366.367188 247.644531 366.414062 C 247.261719 366.480469 246.871094 366.554688 246.460938 366.628906 C 246.367188 366.644531 246.273438 366.664062 246.179688 366.679688 C 245.746094 366.757812 245.304688 366.835938 244.859375 366.914062 C 243.441406 367.152344 242.007812 367.335938 240.859375 367.25 C 240.269531 367.351562 239.277344 367.445312 238.0625 367.519531 C 236.746094 367.597656 235.167969 367.648438 233.519531 367.648438 C 231.996094 367.648438 230.421875 367.605469 228.953125 367.5 C 228.949219 367.5 228.945312 367.496094 228.9375 367.496094 C 228.714844 367.480469 228.488281 367.464844 228.269531 367.445312 C 228.25 367.441406 228.230469 367.441406 228.210938 367.441406 C 228.003906 367.421875 227.804688 367.402344 227.609375 367.378906 C 227.566406 367.375 227.523438 367.371094 227.480469 367.367188 C 227.296875 367.347656 227.117188 367.324219 226.9375 367.300781 C 226.890625 367.296875 226.839844 367.289062 226.789062 367.28125 C 226.617188 367.261719 226.445312 367.238281 226.28125 367.210938 C 226.234375 367.203125 226.1875 367.199219 226.140625 367.191406 C 225.972656 367.164062 225.8125 367.136719 225.65625 367.105469 C 225.617188 367.097656 225.578125 367.09375 225.539062 367.085938 C 225.375 367.054688 225.214844 367.019531 225.066406 366.984375 C 225.042969 366.980469 225.019531 366.972656 224.996094 366.972656 C 224.652344 366.890625 224.335938 366.804688 224.054688 366.710938 C 224.054688 366.707031 224.054688 366.707031 224.050781 366.707031 C 223.90625 366.660156 223.769531 366.605469 223.640625 366.550781 C 223.511719 366.496094 223.394531 366.4375 223.285156 366.378906 C 219.808594 366.945312 215.949219 366.714844 213.933594 366.527344 C 211.277344 366.28125 208.832031 366.347656 206.011719 366.753906 C 205.375 366.851562 204.664062 366.980469 203.914062 367.121094 C 202.03125 367.464844 199.898438 367.859375 198.3125 367.738281 C 197.078125 367.953125 194.144531 368.140625 190.976562 368.140625 C 186.570312 368.140625 181.726562 367.777344 180.367188 366.621094 L 180.246094 366.71875 C 179.289062 366.191406 178.902344 365.242188 179.171875 364.046875 C 179.332031 363.332031 179.710938 362.738281 180.242188 362.238281 C 181.761719 360.636719 184.804688 359.945312 187.558594 359.324219 C 188.566406 359.101562 189.515625 358.882812 190.359375 358.640625 C 193.855469 357.605469 202.484375 355.007812 205.324219 352.25 C 205.585938 351.96875 205.785156 351.6875 205.910156 351.40625 C 206.015625 351.175781 206.074219 350.949219 206.074219 350.722656 C 206.125 350.734375 206.171875 350.746094 206.222656 350.753906 C 206.234375 350.6875 206.246094 350.617188 206.246094 350.550781 C 210.503906 351.496094 211.238281 351.359375 213.785156 351.234375 C 214.28125 351.210938 214.851562 351.191406 215.480469 351.171875 C 219.234375 351.035156 224.914062 350.839844 226.71875 349.335938 L 227.050781 349.519531 L 227.152344 349.488281 C 227.210938 349.574219 227.265625 349.65625 227.316406 349.746094 C 229.230469 352.753906 229.792969 356.0625 229.734375 359.046875 C 229.800781 359.035156 229.867188 359.019531 229.933594 359.003906 C 230.941406 358.78125 231.890625 358.566406 232.730469 358.320312 C 236.835938 357.109375 248.019531 353.742188 248.59375 350.488281 C 248.609375 350.402344 248.621094 350.316406 248.621094 350.230469 C 249.371094 350.398438 250.007812 350.53125 250.566406 350.636719 C 253.191406 351.128906 254.058594 351.019531 256.15625 350.917969 C 256.199219 350.914062 256.246094 350.910156 256.289062 350.910156 C 256.753906 350.890625 257.28125 350.867188 257.855469 350.851562 C 261.609375 350.71875 267.285156 350.519531 269.09375 349.019531 L 269.425781 349.203125 L 269.527344 349.171875 C 272.589844 353.78125 272.40625 359.15625 271.644531 362.996094 Z M 187.949219 48.90625 C 187.964844 50.472656 188.277344 51.785156 189.265625 53.0625 C 189.742188 53.679688 190.449219 54.394531 191.242188 54.730469 C 188.292969 57.285156 191.011719 62.261719 194.535156 62.6875 C 194.546875 62.695312 194.554688 62.695312 194.566406 62.699219 C 194.59375 62.792969 194.707031 62.847656 194.796875 62.789062 C 194.8125 62.78125 194.824219 62.769531 194.839844 62.765625 C 194.925781 62.707031 194.945312 62.585938 194.871094 62.511719 C 194.820312 60.941406 194.367188 59.417969 194.234375 57.855469 C 194.109375 56.300781 194.332031 54.71875 194.449219 53.167969 C 194.453125 53.136719 194.445312 53.105469 194.429688 53.082031 C 194.570312 53.089844 194.703125 53.097656 194.824219 53.101562 C 196.300781 53.175781 197.777344 53 199.25 52.878906 C 204.183594 52.464844 209.164062 50.78125 213.277344 47.988281 C 213.863281 49.117188 214.660156 50.136719 215.53125 51.054688 C 216.3125 51.882812 217.292969 52.804688 218.480469 52.902344 C 218.507812 52.90625 218.527344 52.902344 218.546875 52.890625 C 218.632812 52.902344 218.734375 52.851562 218.75 52.742188 C 218.90625 51.5625 219.632812 50.71875 220.847656 50.605469 C 221.957031 50.503906 222.847656 51.25 223.433594 52.109375 C 223.660156 52.4375 223.808594 52.796875 223.925781 53.167969 C 225.34375 55.628906 225.445312 58.863281 224.621094 61.542969 C 224.761719 61.890625 224.996094 62.25 225.128906 62.527344 C 225.5 63.304688 225.875 64.082031 226.230469 64.867188 C 226.292969 64.996094 226.488281 64.949219 226.523438 64.828125 C 226.832031 63.8125 227.285156 62.851562 227.660156 61.859375 C 228.074219 60.765625 228.234375 59.625 228.382812 58.472656 C 228.683594 56.222656 228.800781 53.945312 228.386719 51.703125 C 227.988281 49.519531 227.167969 47.425781 226.296875 45.402344 C 225.585938 43.757812 224.917969 42.175781 223.539062 40.976562 C 221.964844 39.609375 219.804688 38.914062 217.730469 39.085938 C 212.625 34.3125 205.613281 38.925781 199.894531 39.664062 C 197.371094 39.988281 194.339844 38.300781 192.117188 40.070312 C 191.253906 40.757812 191.472656 41.65625 192.101562 42.234375 C 192.015625 42.21875 191.945312 42.207031 191.925781 42.207031 C 191.402344 42.167969 190.878906 42.140625 190.355469 42.125 C 189.308594 42.09375 188.207031 42.105469 187.199219 42.414062 C 185.851562 42.828125 184.789062 43.96875 184.882812 45.425781 C 184.988281 47.074219 186.558594 48.292969 187.949219 48.90625 Z M 187.949219 48.90625 " fill-opacity="1" fill-rule="nonzero"/></g><path fill="#c98d26" d="M 212.652344 61.664062 C 213.085938 61.664062 213.4375 62.109375 213.4375 62.664062 C 213.4375 63.214844 213.085938 63.660156 212.652344 63.660156 C 212.222656 63.660156 211.871094 63.214844 211.871094 62.664062 C 211.871094 62.109375 212.222656 61.664062 212.652344 61.664062 Z M 215.820312 57.75 C 214.890625 58.664062 213.605469 58.8125 212.355469 58.808594 C 211.207031 58.800781 209.378906 58.863281 208.53125 57.988281 C 208.386719 57.84375 208.160156 58.066406 208.304688 58.214844 C 209.203125 59.144531 210.933594 59.078125 212.132812 59.121094 C 213.523438 59.175781 215.007812 58.992188 216.042969 57.976562 C 216.191406 57.832031 215.964844 57.605469 215.820312 57.75 Z M 226.519531 88.304688 C 224.613281 89.324219 222.507812 90.078125 220.351562 90.289062 C 218.792969 90.4375 217.046875 90.238281 215.859375 89.128906 C 214.070312 87.453125 214.960938 84.640625 215.925781 82.796875 C 215.964844 82.726562 216 82.652344 216.042969 82.582031 L 216.4375 83.113281 C 220.382812 81.011719 222.4375 77.992188 223.503906 75.308594 C 223.558594 75.175781 223.609375 75.046875 223.65625 74.917969 L 223.65625 74.914062 C 224.792969 71.832031 224.644531 69.292969 224.644531 69.292969 C 224.03125 72.3125 222.871094 74.550781 221.546875 76.207031 C 221.042969 76.847656 220.507812 77.398438 219.976562 77.878906 C 219.941406 77.90625 219.90625 77.9375 219.871094 77.96875 C 219.21875 78.542969 218.5625 79.003906 217.949219 79.371094 C 216.128906 80.464844 214.679688 80.746094 214.679688 80.746094 L 215.824219 82.285156 C 215.429688 83 215.09375 83.746094 214.839844 84.523438 C 214.335938 86.070312 214.363281 87.828125 215.425781 89.128906 C 216.234375 90.113281 217.546875 90.492188 218.761719 90.613281 C 222.675781 91.003906 226.765625 88.839844 229.800781 86.597656 C 232.617188 84.515625 235.375 81.597656 236.300781 78.125 C 236.644531 76.847656 236.613281 75.445312 235.898438 74.304688 C 234.859375 72.636719 232.683594 72.320312 230.890625 72.421875 C 230.683594 72.433594 230.683594 72.753906 230.890625 72.742188 C 232.835938 72.632812 235.101562 73.050781 235.933594 75.054688 C 236.511719 76.449219 236.089844 78.078125 235.523438 79.402344 C 233.859375 83.304688 230.167969 86.347656 226.519531 88.304688 Z M 232.660156 153.226562 C 232.070312 154.449219 233.179688 155.550781 234.429688 155.339844 C 234.839844 155.273438 235.113281 154.902344 235.25 154.542969 C 235.371094 154.214844 235.410156 153.449219 235.753906 153.285156 C 235.941406 153.195312 235.777344 152.917969 235.59375 153.007812 C 235.144531 153.222656 235.113281 153.960938 234.972656 154.371094 C 234.492188 155.777344 232.277344 154.75 232.9375 153.386719 C 233.023438 153.203125 232.75 153.039062 232.660156 153.226562 Z M 233.480469 178.355469 C 233.886719 179.429688 233.136719 180.144531 232.078125 180.164062 C 232.046875 180.164062 232.023438 180.15625 232 180.144531 C 231.957031 180.175781 231.898438 180.1875 231.839844 180.144531 C 231.101562 179.621094 231.015625 178.4375 231.285156 177.644531 C 231.3125 177.558594 231.390625 177.53125 231.457031 177.539062 C 232.246094 176.972656 233.164062 177.503906 233.480469 178.355469 Z M 231.632812 177.800781 C 231.609375 177.816406 231.589844 177.828125 231.566406 177.832031 C 231.378906 178.476562 231.417969 179.457031 232 179.867188 C 232.023438 179.855469 232.046875 179.847656 232.078125 179.84375 C 234.363281 179.800781 232.800781 176.878906 231.632812 177.800781 Z M 266.960938 120.582031 C 267.039062 120.683594 267.117188 120.792969 267.199219 120.894531 L 267.292969 120.839844 L 267.453125 120.703125 C 267.375 120.597656 267.296875 120.496094 267.21875 120.386719 C 266.464844 119.390625 265.722656 118.339844 265.007812 117.273438 C 270.308594 114.773438 283.101562 108.125 291.246094 98.734375 L 291.003906 98.527344 C 282.878906 107.894531 270.085938 114.53125 264.828125 117.003906 C 252.261719 97.894531 252.753906 76.359375 253.554688 67.972656 L 253.234375 67.941406 C 252.433594 76.378906 251.933594 98.074219 264.636719 117.296875 C 265.386719 118.425781 266.167969 119.53125 266.960938 120.582031 Z M 237.480469 157.210938 C 237.402344 157.023438 237.710938 156.9375 237.785156 157.128906 C 238.183594 158.113281 236.710938 159.308594 236.132812 159.910156 C 235.421875 160.640625 234.597656 161.378906 233.789062 161.933594 C 233.785156 161.933594 233.785156 161.933594 233.785156 161.933594 C 233.78125 161.9375 233.777344 161.9375 233.773438 161.941406 C 233.753906 161.957031 233.730469 161.972656 233.707031 161.984375 C 233.695312 161.996094 233.679688 162 233.664062 162.003906 C 231.855469 163.097656 229.839844 163.753906 227.761719 164.113281 C 227.269531 164.199219 226.527344 164.289062 225.828125 164.484375 C 226.300781 164.777344 226.730469 165.375 226.898438 165.761719 C 227.097656 166.226562 227.289062 166.859375 227.011719 167.335938 C 226.96875 167.40625 226.921875 167.46875 226.871094 167.527344 C 227.066406 167.519531 227.242188 167.507812 227.394531 167.5 C 229.828125 167.375 232.28125 167.265625 234.539062 166.246094 C 234.726562 166.160156 234.890625 166.433594 234.703125 166.519531 C 232.308594 167.601562 229.726562 167.699219 227.148438 167.832031 C 226.851562 167.847656 226.5 167.867188 226.136719 167.863281 C 225.90625 167.890625 225.667969 167.882812 225.445312 167.851562 C 225.441406 167.851562 225.441406 167.851562 225.441406 167.851562 C 225.421875 167.886719 225.390625 167.914062 225.335938 167.925781 C 225.046875 167.972656 224.609375 168.097656 224.160156 168.277344 C 224.75 168.351562 225.246094 168.601562 225.519531 169.222656 C 225.796875 169.855469 225.894531 170.972656 225.316406 171.484375 C 225.164062 171.617188 225.003906 171.710938 224.835938 171.773438 C 225.546875 171.914062 226.296875 171.929688 227.011719 171.910156 C 228.527344 171.863281 230.050781 171.898438 231.550781 171.632812 C 232.242188 171.511719 232.914062 171.320312 233.605469 171.195312 C 234.203125 171.085938 234.78125 170.964844 235.230469 170.53125 C 235.378906 170.386719 235.605469 170.613281 235.457031 170.753906 C 234.964844 171.230469 234.347656 171.390625 233.691406 171.503906 C 232.796875 171.660156 231.929688 171.917969 231.023438 172.03125 C 230.074219 172.152344 229.128906 172.160156 228.175781 172.1875 C 228.171875 172.210938 228.160156 172.230469 228.144531 172.246094 C 227.941406 172.234375 227.746094 172.28125 227.570312 172.386719 C 227.265625 172.441406 226.953125 172.496094 226.644531 172.5625 C 227.914062 172.941406 228.308594 175.335938 226.984375 176.03125 C 228.488281 176.476562 230.144531 176.164062 231.679688 176.085938 C 233.589844 175.988281 235.46875 175.625 237.3125 175.132812 C 237.511719 175.078125 237.59375 175.386719 237.398438 175.441406 C 235.523438 175.945312 233.617188 176.296875 231.679688 176.40625 C 230.015625 176.5 228.207031 176.839844 226.601562 176.242188 C 226.554688 176.222656 226.527344 176.195312 226.511719 176.160156 C 226.503906 176.160156 226.496094 176.15625 226.484375 176.15625 C 226.332031 176.148438 226.191406 176.09375 226.070312 176 C 225.097656 175.570312 223.84375 174.617188 224.433594 173.507812 C 224.855469 172.714844 225.746094 172.425781 226.636719 172.238281 C 226.054688 172.25 225.46875 172.226562 224.898438 172.113281 C 223.753906 171.882812 222.097656 171.253906 222.0625 169.859375 C 222.027344 168.644531 223.730469 167.96875 224.839844 167.699219 C 224.242188 167.53125 223.753906 167.1875 223.613281 166.519531 C 223.417969 165.621094 224 165.019531 224.753906 164.621094 C 224.765625 164.601562 224.785156 164.585938 224.800781 164.566406 C 224.878906 164.539062 224.953125 164.503906 225.027344 164.464844 C 225.183594 164.421875 225.335938 164.371094 225.496094 164.304688 C 225.503906 164.300781 225.515625 164.296875 225.523438 164.289062 C 225.875 164.167969 226.21875 164.082031 226.507812 164.023438 C 229.011719 163.492188 231.394531 163.03125 233.613281 161.664062 C 234.183594 161.273438 235.007812 160.582031 235.566406 160.023438 C 236.125 159.464844 237.835938 158.105469 237.480469 157.210938 Z M 225.585938 175.359375 C 225.257812 174.652344 225.167969 173.648438 225.328125 173.046875 C 225.320312 173.050781 225.3125 173.054688 225.304688 173.058594 C 224.132812 173.808594 224.726562 174.757812 225.585938 175.359375 Z M 226.515625 172.878906 C 226.503906 172.863281 226.488281 172.855469 226.472656 172.84375 C 226.425781 172.796875 226.371094 172.78125 226.316406 172.785156 C 226.171875 172.722656 226.003906 172.714844 225.8125 172.789062 C 225.699219 172.835938 225.660156 172.941406 225.671875 173.039062 C 225.449219 173.664062 225.628906 175.246094 226.191406 175.707031 C 226.300781 175.757812 226.40625 175.800781 226.511719 175.835938 C 226.574219 175.835938 226.640625 175.828125 226.710938 175.804688 C 227.960938 175.382812 227.605469 173.167969 226.515625 172.878906 Z M 223.203125 168.765625 C 222.425781 169.273438 221.960938 169.964844 222.757812 170.746094 C 222.890625 170.875 223.03125 170.988281 223.175781 171.09375 C 222.769531 170.417969 222.941406 169.492188 223.203125 168.765625 Z M 223.683594 168.574219 C 223.65625 168.574219 223.632812 168.566406 223.613281 168.554688 C 223.613281 168.574219 223.609375 168.59375 223.601562 168.617188 C 223.328125 169.292969 223.019531 170.3125 223.480469 170.972656 C 223.941406 171.628906 225.054688 171.835938 225.320312 170.867188 C 225.46875 170.332031 225.441406 169.636719 225.128906 169.15625 C 224.789062 168.625 224.257812 168.566406 223.683594 168.574219 Z M 224.589844 167.265625 C 224.277344 166.613281 224.375 165.675781 224.5625 165.046875 C 224.257812 165.269531 224.035156 165.550781 223.953125 165.910156 C 223.792969 166.625 224.09375 167.035156 224.589844 167.265625 Z M 225.375 164.632812 C 225.257812 164.675781 225.148438 164.71875 225.042969 164.769531 C 225.007812 164.804688 224.972656 164.847656 224.941406 164.898438 C 224.917969 164.9375 224.886719 164.953125 224.851562 164.964844 C 224.878906 165 224.894531 165.042969 224.878906 165.097656 C 224.679688 165.742188 224.535156 166.902344 225.078125 167.421875 C 225.078125 167.421875 225.078125 167.425781 225.078125 167.425781 C 225.429688 167.503906 225.816406 167.535156 226.191406 167.539062 C 226.453125 167.492188 226.683594 167.367188 226.769531 167.09375 C 226.898438 166.683594 226.773438 166.226562 226.585938 165.851562 C 226.421875 165.515625 225.859375 164.664062 225.375 164.632812 Z M 230.851562 152.148438 C 230.300781 151.5 229.9375 150.796875 229.121094 150.449219 C 228.933594 150.371094 228.769531 150.648438 228.960938 150.726562 C 229.675781 151.03125 230.027344 151.621094 230.488281 152.203125 C 230.808594 152.605469 230.941406 152.664062 231.429688 152.488281 C 232.160156 152.222656 232.953125 151.367188 232.710938 150.546875 C 232.65625 150.351562 232.347656 150.433594 232.402344 150.632812 C 232.574219 151.210938 231.363281 152.753906 230.851562 152.148438 Z M 211.671875 72.492188 C 212.914062 70.867188 214.980469 70.054688 216.816406 71.199219 C 216.914062 71.257812 217.066406 71.179688 217.058594 71.058594 C 217.054688 71.03125 217.054688 71.003906 217.050781 70.972656 C 217.050781 70.960938 217.046875 70.953125 217.042969 70.945312 C 217.007812 70.925781 216.976562 70.90625 216.945312 70.878906 C 217.015625 70.941406 216.828125 70.824219 216.902344 70.851562 C 216.882812 70.84375 216.863281 70.832031 216.84375 70.824219 C 216.835938 70.824219 216.824219 70.828125 216.816406 70.832031 C 214.863281 69.734375 212.707031 70.617188 211.398438 72.332031 C 211.269531 72.496094 211.550781 72.652344 211.671875 72.492188 Z M 278.601562 211.445312 L 277.75 211.445312 C 277.660156 211.445312 277.613281 211.503906 277.597656 211.574219 C 275.355469 211.675781 273.175781 210.558594 271.382812 209.285156 C 269.359375 207.84375 267.460938 205.890625 266.375 203.636719 C 266.285156 203.453125 266.011719 203.613281 266.101562 203.800781 C 267.222656 206.117188 269.164062 208.054688 271.21875 209.558594 C 272.273438 210.328125 273.472656 211.019531 274.742188 211.445312 L 274.550781 211.445312 C 274.34375 211.445312 274.34375 211.765625 274.550781 211.765625 L 274.601562 211.765625 C 274.570312 216.742188 273.820312 221.675781 272.949219 226.566406 C 272.078125 231.46875 271.0625 236.347656 270.171875 241.246094 C 269.269531 246.191406 268.5 251.164062 267.902344 256.15625 C 267.289062 261.242188 266.941406 266.367188 266.601562 271.476562 C 265.914062 281.832031 265.578125 292.214844 265.816406 302.589844 C 265.875 305.148438 266.027344 307.707031 266.097656 310.269531 C 266.167969 312.835938 266.09375 315.410156 266.027344 317.976562 C 265.957031 320.585938 265.894531 323.195312 265.953125 325.800781 C 266.003906 328.066406 266.128906 330.300781 266.046875 332.566406 C 265.898438 336.695312 265.464844 341.136719 266.839844 345.117188 C 266.738281 345.140625 266.664062 345.238281 266.738281 345.339844 C 266.855469 345.496094 266.953125 345.65625 267.058594 345.816406 C 264.105469 346.273438 261.066406 346.402344 258.121094 346.539062 C 254.242188 346.726562 250.355469 346.78125 246.46875 346.753906 C 246.265625 346.75 246.265625 347.070312 246.46875 347.074219 C 250.429688 347.101562 254.390625 347.039062 258.339844 346.851562 C 262.484375 346.65625 266.820312 346.46875 270.835938 345.339844 C 271.035156 345.285156 270.949219 344.976562 270.75 345.03125 C 269.660156 345.339844 268.542969 345.574219 267.417969 345.761719 C 265.742188 341.726562 266.195312 337.082031 266.355469 332.824219 C 266.441406 330.578125 266.347656 328.363281 266.28125 326.117188 C 266.203125 323.507812 266.269531 320.898438 266.339844 318.289062 C 266.40625 315.71875 266.472656 313.148438 266.421875 310.578125 C 266.375 308.015625 266.207031 305.460938 266.144531 302.898438 C 266.015625 297.722656 266.039062 292.539062 266.175781 287.367188 C 266.441406 277.066406 266.992188 266.695312 268.1875 256.457031 C 269.367188 246.328125 271.523438 236.386719 273.308594 226.359375 C 274.179688 221.488281 274.90625 216.566406 274.921875 211.609375 C 274.921875 211.558594 274.898438 211.511719 274.859375 211.484375 C 276.082031 211.878906 277.367188 212.027344 278.644531 211.761719 C 278.824219 211.722656 278.777344 211.445312 278.601562 211.445312 Z M 182.1875 150.695312 C 182.726562 150.683594 183.253906 150.691406 183.785156 150.582031 C 183.988281 150.542969 183.902344 150.234375 183.699219 150.273438 C 183.109375 150.394531 182.515625 150.367188 181.917969 150.382812 C 181.332031 150.394531 180.769531 150.546875 180.207031 150.679688 C 179.085938 150.949219 177.988281 151.28125 176.949219 151.78125 C 175.933594 152.269531 174.933594 152.710938 174.003906 153.359375 C 173.570312 153.65625 173.179688 154.007812 172.816406 154.390625 C 172.429688 154.800781 172.261719 155.320312 171.90625 155.75 C 171.777344 155.910156 172.003906 156.136719 172.132812 155.976562 C 172.429688 155.613281 172.582031 155.167969 172.878906 154.804688 C 173.25 154.355469 173.695312 153.980469 174.164062 153.632812 C 174.996094 153.023438 175.945312 152.574219 176.886719 152.15625 C 178.003906 151.664062 179.105469 151.28125 180.292969 150.992188 C 180.921875 150.835938 181.535156 150.710938 182.1875 150.695312 Z M 271.878906 361.773438 C 270.660156 362.925781 268.878906 363.210938 267.273438 363.398438 C 265.554688 363.597656 263.765625 363.78125 262.042969 363.679688 C 260.085938 363.5625 258.171875 363.070312 256.230469 362.835938 C 254.160156 362.582031 252.128906 362.90625 250.082031 363.21875 C 248.09375 363.523438 246.113281 363.878906 244.125 364.175781 C 242.835938 361.378906 242.734375 358.078125 240.773438 355.589844 C 240.644531 355.429688 240.421875 355.65625 240.546875 355.816406 C 242.292969 358.03125 242.539062 360.945312 243.511719 363.527344 C 243.488281 363.570312 243.480469 363.617188 243.507812 363.671875 C 243.597656 363.867188 243.664062 364.054688 243.757812 364.234375 C 243.6875 364.242188 243.621094 364.253906 243.550781 364.261719 C 241.203125 364.597656 238.839844 364.664062 236.472656 364.648438 C 231.941406 364.617188 227.410156 364.09375 223.007812 363.007812 C 222.808594 362.957031 222.722656 363.269531 222.925781 363.316406 C 227.261719 364.386719 231.703125 364.894531 236.164062 364.964844 C 238.429688 365.003906 240.71875 364.953125 242.96875 364.664062 C 243.289062 364.621094 243.613281 364.570312 243.933594 364.527344 C 243.941406 364.535156 243.949219 364.546875 243.957031 364.554688 C 244.042969 364.664062 244.171875 364.59375 244.210938 364.484375 C 246.097656 364.207031 247.972656 363.871094 249.855469 363.574219 C 252.085938 363.222656 254.246094 362.910156 256.503906 363.1875 C 258.640625 363.449219 260.726562 363.984375 262.890625 364.03125 C 264.5625 364.066406 266.332031 363.851562 267.988281 363.625 C 269.105469 363.472656 270.269531 363.210938 271.246094 362.632812 C 271.304688 362.6875 271.394531 362.707031 271.464844 362.636719 L 272.105469 361.996094 C 272.253906 361.851562 272.03125 361.632812 271.878906 361.773438 Z M 222.890625 364.925781 C 222.824219 364.75 222.777344 364.570312 222.75 364.394531 C 222.789062 364.394531 222.828125 364.382812 222.867188 364.34375 C 223.046875 364.152344 223.113281 364.0625 223.125 363.804688 C 223.128906 363.691406 223.019531 363.636719 222.921875 363.648438 C 222.851562 363.660156 222.785156 363.671875 222.714844 363.6875 C 222.738281 363.394531 222.792969 363.101562 222.886719 362.8125 C 223.214844 361.769531 224.171875 361.136719 225.128906 360.738281 C 226.644531 360.105469 228.597656 360.09375 229.898438 359.015625 C 230.058594 358.882812 229.832031 358.65625 229.675781 358.789062 C 228.941406 359.394531 227.902344 359.585938 227.003906 359.820312 C 226.035156 360.078125 225.058594 360.347656 224.179688 360.847656 C 223.382812 361.304688 222.804688 362.007812 222.527344 362.882812 C 222.429688 363.1875 222.394531 363.476562 222.398438 363.753906 C 222.136719 363.808594 221.878906 363.859375 221.601562 363.859375 C 221.128906 363.859375 220.65625 363.855469 220.183594 363.84375 C 219.082031 363.824219 217.996094 363.714844 216.914062 363.503906 C 215.199219 363.167969 213.417969 362.820312 211.667969 362.792969 C 209.847656 362.769531 207.917969 363.269531 206.152344 363.644531 C 204.5 363.996094 202.859375 364.386719 201.207031 364.71875 C 200.320312 363.117188 199.695312 361.347656 198.882812 359.714844 C 198.691406 359.335938 197.21875 356.007812 196.421875 356.871094 C 196.28125 357.023438 196.507812 357.25 196.648438 357.097656 C 197.015625 356.699219 198.890625 360.453125 199.039062 360.765625 C 199.589844 361.914062 200.050781 363.140625 200.621094 364.289062 C 200.488281 364.261719 200.347656 364.4375 200.472656 364.558594 C 200.558594 364.644531 200.640625 364.726562 200.726562 364.8125 C 200.609375 364.835938 200.492188 364.863281 200.375 364.882812 C 193.621094 366.144531 185.855469 366.449219 179.5625 363.242188 C 179.378906 363.148438 179.214844 363.425781 179.402344 363.519531 C 182.382812 365.039062 185.714844 365.691406 189.023438 365.949219 C 192.53125 366.226562 196.09375 366.003906 199.550781 365.367188 C 200.03125 365.28125 200.511719 365.183594 200.992188 365.082031 C 201.03125 365.121094 201.070312 365.160156 201.109375 365.199219 C 201.238281 365.328125 201.453125 365.160156 201.359375 365.003906 C 204.777344 364.273438 208.183594 363.34375 211.667969 363.113281 C 212.683594 363.046875 213.753906 363.292969 214.75 363.457031 C 215.730469 363.617188 216.707031 363.808594 217.691406 363.964844 C 218.605469 364.109375 219.535156 364.152344 220.457031 364.171875 C 220.9375 364.179688 221.417969 364.179688 221.898438 364.179688 C 222.078125 364.179688 222.25 364.144531 222.417969 364.101562 C 222.523438 364.957031 222.980469 365.726562 223.238281 366.621094 C 223.292969 366.820312 223.601562 366.734375 223.546875 366.535156 C 223.382812 365.972656 223.089844 365.46875 222.890625 364.925781 Z M 214.574219 346.730469 C 210.976562 346.71875 207.375 346.515625 203.792969 346.164062 C 203.585938 346.148438 203.589844 346.464844 203.792969 346.484375 C 207.453125 346.84375 211.132812 347.042969 214.8125 347.050781 C 218.453125 347.058594 222.15625 346.902344 225.753906 346.242188 C 225.820312 346.28125 225.914062 346.265625 225.96875 346.199219 C 226.71875 346.058594 227.464844 345.898438 228.203125 345.707031 C 228.402344 345.65625 228.320312 345.347656 228.117188 345.398438 C 227.421875 345.578125 226.71875 345.730469 226.011719 345.867188 C 226.105469 343.429688 225.734375 341.007812 225.6875 338.574219 C 225.632812 336.023438 225.609375 333.46875 225.5625 330.917969 C 225.457031 325.691406 225.554688 320.460938 225.644531 315.234375 C 225.730469 310.011719 225.851562 304.789062 225.925781 299.5625 C 226.003906 294.378906 225.957031 289.191406 226.070312 284.007812 C 226.296875 273.65625 227.191406 263.367188 228.644531 253.117188 C 229.382812 247.902344 230.035156 242.675781 230.832031 237.46875 C 231.21875 234.960938 231.621094 232.453125 232.171875 229.976562 C 232.429688 228.835938 232.71875 227.703125 233.027344 226.578125 C 233.351562 225.410156 233.878906 224.285156 234.105469 223.097656 C 234.128906 222.980469 234.136719 222.867188 234.144531 222.753906 C 234.304688 222.847656 234.464844 222.9375 234.625 223.035156 C 234.851562 223.175781 235.742188 223.59375 235.8125 223.796875 C 235.878906 223.992188 236.191406 223.90625 236.121094 223.714844 C 236.027344 223.441406 235.542969 223.234375 235.324219 223.09375 C 234.703125 222.699219 234.070312 222.328125 233.433594 221.953125 C 232.441406 220.273438 232.269531 218.179688 232.015625 216.28125 C 231.710938 214.007812 231.445312 211.777344 231.4375 209.472656 C 231.4375 209.269531 231.117188 209.269531 231.117188 209.472656 C 231.125 211.929688 231.429688 214.308594 231.757812 216.734375 C 231.976562 218.378906 232.175781 220.140625 232.914062 221.652344 C 231.558594 220.859375 230.199219 220.0625 228.800781 219.355469 C 228.617188 219.261719 228.453125 219.539062 228.640625 219.632812 C 229.957031 220.296875 231.234375 221.050781 232.511719 221.789062 C 232.953125 222.042969 233.394531 222.308594 233.832031 222.570312 C 233.769531 223.742188 233.199219 224.816406 232.878906 225.929688 C 232.527344 227.144531 232.214844 228.371094 231.929688 229.605469 C 231.359375 232.070312 230.960938 234.574219 230.574219 237.074219 C 229.761719 242.277344 229.113281 247.503906 228.378906 252.71875 C 226.964844 262.800781 226.042969 272.902344 225.773438 283.082031 C 225.636719 288.261719 225.6875 293.445312 225.617188 298.625 C 225.550781 303.847656 225.433594 309.070312 225.339844 314.292969 C 225.246094 319.527344 225.144531 324.765625 225.222656 330 C 225.261719 332.558594 225.34375 335.117188 225.359375 337.675781 C 225.375 340.195312 225.71875 342.699219 225.714844 345.21875 C 225.714844 345.457031 225.703125 345.691406 225.691406 345.929688 C 222.035156 346.597656 218.277344 346.738281 214.574219 346.730469 Z M 294.523438 132.476562 C 292.195312 131.769531 289.886719 131.171875 287.433594 131.371094 C 285.125 131.558594 282.863281 132.355469 280.691406 133.113281 C 280.5 133.183594 280.582031 133.492188 280.777344 133.421875 C 282.941406 132.667969 285.144531 131.9375 287.433594 131.691406 C 289.828125 131.433594 292.171875 132.09375 294.441406 132.785156 C 294.636719 132.84375 294.722656 132.535156 294.523438 132.476562 Z M 221.613281 53.105469 C 221.105469 54.320312 220.757812 55.578125 220.808594 56.902344 C 220.816406 57.109375 221.128906 57.109375 221.128906 56.902344 C 221.128906 56.574219 221.726562 56.738281 221.878906 56.875 C 222.0625 57.035156 222.183594 57.277344 222.292969 57.492188 C 222.496094 57.871094 222.632812 58.289062 222.730469 58.703125 C 222.777344 58.90625 223.085938 58.820312 223.039062 58.621094 C 222.875 57.9375 222.582031 56.949219 221.96875 56.53125 C 221.757812 56.386719 221.394531 56.34375 221.128906 56.449219 C 221.164062 55.316406 221.484375 54.238281 221.921875 53.1875 C 222 53 221.691406 52.917969 221.613281 53.105469 Z M 278.695312 207.246094 C 277.375 207.402344 276.226562 207.398438 274.941406 206.976562 C 273.566406 206.527344 272.304688 205.769531 271.265625 204.773438 C 270.480469 204.019531 269.800781 203.113281 268.878906 202.515625 C 268.703125 202.402344 268.542969 202.679688 268.714844 202.792969 C 269.542969 203.324219 270.183594 204.132812 270.867188 204.828125 C 271.671875 205.640625 272.53125 206.222656 273.550781 206.734375 C 274.464844 207.191406 275.46875 207.558594 276.488281 207.664062 C 277.035156 207.71875 277.554688 207.71875 278.097656 207.648438 C 278.15625 207.644531 279.289062 207.558594 279.304688 207.515625 C 279.246094 207.714844 279.554688 207.796875 279.609375 207.597656 C 279.75 207.078125 278.96875 207.214844 278.695312 207.246094 Z M 279.851562 192.230469 C 262.945312 200.832031 243.765625 203.941406 224.929688 203.488281 C 214.707031 203.242188 204.390625 202.023438 194.453125 199.5625 C 194.253906 199.515625 194.167969 199.820312 194.371094 199.871094 C 200.394531 201.363281 206.554688 202.34375 212.722656 203.003906 C 221.703125 203.964844 230.78125 204.132812 239.789062 203.402344 C 253.710938 202.277344 267.53125 198.855469 280.015625 192.507812 C 280.199219 192.414062 280.039062 192.140625 279.851562 192.230469 Z M 201.460938 59.78125 C 201.359375 60.75 200.3125 61.355469 199.535156 61.757812 C 198.730469 62.175781 197.746094 62.523438 196.828125 62.5 C 196.621094 62.492188 196.621094 62.8125 196.828125 62.820312 C 198.484375 62.863281 201.574219 61.703125 201.78125 59.78125 C 201.804688 59.578125 201.484375 59.578125 201.460938 59.78125 Z M 204.574219 59.257812 C 204.535156 59.058594 204.230469 59.144531 204.265625 59.34375 C 204.839844 62.378906 205.089844 65.375 205.324219 68.449219 C 205.371094 69.054688 205.289062 70.015625 205.882812 70.390625 C 206.257812 70.628906 207.34375 70.675781 207.378906 70.09375 C 207.378906 70.085938 207.375 70.082031 207.375 70.074219 C 207.207031 70.144531 207.035156 70.195312 206.847656 70.203125 C 206.796875 70.203125 206.75 70.195312 206.703125 70.179688 C 206.6875 70.175781 206.675781 70.175781 206.660156 70.175781 C 206.335938 70.179688 205.980469 70.234375 205.816406 69.839844 C 205.683594 69.523438 205.703125 69.089844 205.671875 68.753906 C 205.5625 67.65625 205.539062 66.550781 205.460938 65.453125 C 205.3125 63.367188 204.960938 61.308594 204.574219 59.257812 Z M 187.980469 45.695312 C 189.179688 46.136719 190.339844 46.652344 191.570312 47.027344 C 194.242188 47.84375 197.09375 48.167969 199.882812 48.179688 C 202.496094 48.1875 205.238281 47.949219 207.660156 46.910156 C 208.15625 46.695312 212.640625 44.167969 213.375 44.777344 C 213.257812 44.832031 213.285156 45.003906 213.394531 45.054688 C 213.394531 45.058594 213.394531 45.058594 213.398438 45.0625 C 213.085938 46.023438 212.949219 47.023438 213.121094 48.015625 L 213.4375 47.960938 C 213.265625 46.972656 213.425781 45.960938 213.769531 44.992188 C 214.886719 44.0625 216.703125 46.261719 217.316406 46.996094 C 217.886719 47.675781 218.394531 48.414062 218.839844 49.179688 C 219.128906 49.675781 219.539062 50.316406 219.53125 50.910156 C 219.527344 51.113281 219.847656 51.113281 219.851562 50.910156 C 219.859375 50.253906 219.429688 49.566406 219.117188 49.019531 C 218.585938 48.078125 217.933594 47.203125 217.222656 46.394531 C 216.574219 45.65625 215.097656 44.109375 213.949219 44.519531 C 214.394531 43.453125 215.035156 42.453125 215.667969 41.617188 C 215.828125 41.46875 216.109375 41.433594 216.308594 41.382812 C 216.964844 41.226562 217.613281 41.484375 218.171875 41.792969 C 219.164062 42.347656 219.828125 43.199219 220.519531 44.070312 C 221.246094 44.976562 222.070312 45.734375 222.648438 46.761719 C 223.207031 47.738281 223.714844 48.742188 224.175781 49.769531 C 225.175781 51.992188 225.792969 54.34375 226.03125 56.765625 C 226.136719 57.878906 226.148438 59.011719 226.054688 60.121094 C 225.980469 61.015625 225.949219 62.15625 225.332031 62.867188 C 225.199219 63.019531 225.421875 63.25 225.558594 63.09375 C 226.121094 62.445312 226.222656 61.539062 226.320312 60.71875 C 226.46875 59.40625 226.457031 58.082031 226.351562 56.765625 C 226.128906 54.09375 225.339844 51.527344 224.21875 49.101562 C 223.640625 47.84375 223.007812 46.5625 222.171875 45.457031 C 221.445312 44.5 220.589844 43.566406 219.785156 42.667969 C 219.082031 41.878906 218.050781 41.1875 216.996094 41.039062 C 216.746094 41.003906 216.40625 41.011719 216.089844 41.082031 C 217.011719 39.953125 217.820312 39.222656 217.839844 39.207031 L 217.625 38.964844 C 217.558594 39.027344 217.007812 39.527344 216.308594 40.3125 C 214.613281 38.640625 210.988281 40.21875 210.835938 40.289062 C 202.03125 43.746094 192.226562 42.09375 192.128906 42.074219 L 192.074219 42.390625 C 192.121094 42.398438 194.519531 42.804688 198.003906 42.804688 C 201.625 42.804688 206.421875 42.367188 210.960938 40.582031 C 210.996094 40.566406 214.558594 39.011719 216.09375 40.558594 C 215.222656 41.578125 214.183594 42.996094 213.574219 44.566406 C 213.246094 44.359375 212.636719 44.382812 212.367188 44.417969 C 211.496094 44.53125 210.667969 45.023438 209.910156 45.441406 C 208.898438 46 207.859375 46.511719 206.773438 46.914062 C 205.347656 47.4375 203.84375 47.628906 202.34375 47.757812 C 199.3125 48.019531 196.257812 47.78125 193.289062 47.144531 C 191.859375 46.839844 190.40625 46.390625 189.070312 45.785156 C 187.800781 45.210938 186.453125 44.90625 185.347656 44.003906 C 185.191406 43.871094 184.960938 44.097656 185.121094 44.230469 C 185.976562 44.925781 186.953125 45.316406 187.980469 45.695312 Z M 187.167969 132.152344 L 187.488281 132.128906 C 187.464844 131.789062 185.148438 97.925781 188.335938 81.988281 L 188.023438 81.925781 C 185.628906 93.886719 186.328125 115.886719 186.839844 126.34375 C 180.199219 123.921875 168.933594 122.21875 164.324219 121.589844 C 164.316406 121.652344 164.308594 121.71875 164.289062 121.777344 C 164.28125 121.808594 164.277344 121.839844 164.269531 121.867188 C 164.269531 121.824219 164.269531 121.832031 164.265625 121.890625 C 164.265625 121.894531 164.265625 121.898438 164.265625 121.90625 C 168.882812 122.535156 180.257812 124.25 186.855469 126.6875 C 187.019531 129.996094 187.160156 132.066406 187.167969 132.152344 Z M 200.054688 65.378906 C 200.054688 65.933594 200.40625 66.378906 200.839844 66.378906 C 201.273438 66.378906 201.625 65.933594 201.625 65.378906 C 201.625 64.828125 201.273438 64.382812 200.839844 64.382812 C 200.40625 64.382812 200.054688 64.828125 200.054688 65.378906 Z M 191.148438 54.859375 C 191.21875 54.910156 192.898438 56.070312 194.015625 56.070312 C 194.035156 56.070312 194.058594 56.070312 194.078125 56.070312 L 194.066406 55.75 C 193.046875 55.785156 191.347656 54.609375 191.332031 54.597656 Z M 194.472656 52.925781 C 190.503906 51.851562 188.101562 48.835938 188.078125 48.808594 L 187.824219 49.003906 C 187.847656 49.035156 190.3125 52.128906 194.390625 53.234375 Z M 207.175781 58.976562 C 207.371094 59.046875 207.453125 58.738281 207.261719 58.667969 C 206.523438 58.394531 205.949219 57.699219 205.773438 56.941406 C 205.726562 56.742188 205.417969 56.824219 205.464844 57.027344 C 205.667969 57.898438 206.332031 58.667969 207.175781 58.976562 Z M 207.175781 58.976562 " fill-opacity="1" fill-rule="nonzero"/></svg>