<svg xmlns="http://www.w3.org/2000/svg" xmlns:xlink="http://www.w3.org/1999/xlink" width="750" zoomAndPan="magnify" viewBox="0 0 562.5 562.499982" height="750" preserveAspectRatio="xMidYMid meet" version="1.0"><defs><clipPath id="ff6a952347"><path d="M 273 248 L 504.539062 248 L 504.539062 369 L 273 369 Z M 273 248 " clip-rule="nonzero"/></clipPath><clipPath id="8b6ebb0278"><path d="M 57.457031 363 L 503 363 L 503 375.589844 L 57.457031 375.589844 Z M 57.457031 363 " clip-rule="nonzero"/></clipPath></defs><path fill="#005e38" d="M 101.859375 33.757812 C 60.269531 60.9375 35.054688 113.007812 23.265625 164.097656 C 11.472656 214.859375 13.113281 264.636719 20.972656 312.777344 C 28.503906 361.246094 41.929688 408.078125 69.113281 448.6875 C 96.292969 489.292969 136.574219 523.679688 184.390625 541.691406 C 232.53125 560.03125 287.546875 561.996094 334.707031 544.640625 C 381.539062 526.957031 420.507812 489.949219 456.203125 449.339844 C 491.902344 409.058594 524.648438 365.503906 537.421875 315.398438 C 550.523438 265.292969 543.972656 208.636719 521.046875 159.839844 C 498.125 111.042969 458.824219 70.109375 412.320312 45.21875 C 366.144531 20.328125 312.4375 11.488281 256.765625 8.210938 C 201.089844 4.609375 143.453125 6.902344 101.859375 33.757812 Z M 101.859375 33.757812 " fill-opacity="1" fill-rule="nonzero"/><path fill="#0a0b0a" d="M 199.089844 129.496094 C 191.304688 127.550781 182.738281 132.023438 178.851562 139.039062 C 174.964844 146.058594 175.386719 154.960938 178.851562 162.199219 C 182.3125 169.441406 188.507812 175.097656 195.445312 179.128906 C 201.136719 182.429688 207.820312 184.777344 214.265625 183.425781 C 221.644531 181.875 227.414062 175.503906 229.652344 168.300781 C 231.886719 161.101562 231.011719 153.226562 228.695312 146.046875 C 227.132812 141.207031 224.789062 136.390625 220.78125 133.242188 C 214.375 128.207031 205.292969 131.054688 199.089844 129.503906 Z M 199.089844 129.496094 " fill-opacity="1" fill-rule="nonzero"/><path fill="#0a0b0a" d="M 201.738281 127.289062 C 197.15625 112.960938 185.859375 100.925781 171.832031 95.46875 C 168.15625 94.039062 164.167969 93.023438 160.261719 94.339844 C 158.890625 94.804688 157.625 95.578125 156.667969 96.667969 C 153.019531 100.785156 155.207031 106.273438 158.007812 110.351562 C 165.992188 122.003906 179.484375 129.695312 193.574219 130.640625 C 195.484375 130.773438 197.519531 130.753906 199.148438 129.757812 C 200.78125 128.757812 201.75 126.453125 201.75 127.300781 Z M 201.738281 127.289062 " fill-opacity="1" fill-rule="nonzero"/><path fill="#c98d26" d="M 285.4375 116.089844 C 287.058594 125.71875 288.679688 135.464844 287.972656 145.203125 C 287.269531 154.941406 283.976562 164.828125 277.039062 171.707031 C 269.648438 179.015625 258.964844 182.117188 248.59375 182.703125 C 241.503906 183.105469 234.113281 182.390625 227.898438 178.957031 C 215.707031 172.21875 211.113281 157.175781 208.695312 143.460938 C 206.058594 128.488281 204.890625 112.195312 212.242188 98.882812 C 220.214844 84.441406 238.25 76.355469 254.332031 80.023438 C 270.414062 83.6875 282.546875 98.871094 285.449219 116.089844 Z M 285.4375 116.089844 " fill-opacity="1" fill-rule="nonzero"/><path fill="#c98d26" d="M 214.136719 144.910156 C 213.820312 138.71875 211.09375 132.675781 206.664062 128.347656 C 204.597656 126.320312 202.089844 124.628906 199.253906 124.054688 C 196.414062 123.484375 193.21875 124.175781 191.257812 126.3125 C 189.53125 128.183594 188.96875 130.84375 188.78125 133.382812 C 188.144531 141.730469 190.902344 150.296875 196.289062 156.703125 C 199.503906 160.519531 204.519531 163.761719 209.25 162.191406 C 213.054688 160.929688 215.351562 156.84375 215.726562 152.84375 C 216.097656 148.847656 214.917969 144.890625 214.125 144.910156 Z M 214.136719 144.910156 " fill-opacity="1" fill-rule="nonzero"/><path fill="#c98d26" d="M 214.808594 151.285156 C 214.074219 173.207031 214.195312 195.15625 215.171875 217.070312 C 227.757812 224.753906 244.394531 225.09375 257.132812 217.472656 C 256.789062 198.257812 256.699219 192.972656 256.367188 173.769531 C 243.316406 166.199219 230.246094 158.636719 214.808594 151.285156 Z M 214.808594 151.285156 " fill-opacity="1" fill-rule="nonzero"/><path fill="#0a0b0a" d="M 248.914062 206.132812 C 263.675781 208.441406 278.207031 212.015625 292.375 216.789062 C 298.609375 218.890625 305.386719 221.226562 309.574219 226.402344 C 313.339844 231.054688 314.425781 237.257812 315.394531 243.160156 C 316.472656 249.734375 317.539062 256.441406 316.453125 263.015625 C 315.222656 270.367188 311.367188 277.003906 307.257812 283.214844 C 297.589844 297.828125 286.101562 311.230469 273.132812 323.011719 C 276.3125 336.363281 278.609375 349.925781 280.007812 363.582031 L 151.84375 365.484375 C 141 321.996094 142.519531 268.152344 150.386719 224.039062 C 152.1875 213.949219 159.910156 205.953125 169.9375 203.867188 C 195.363281 198.582031 222.179688 201.964844 248.914062 206.132812 Z M 248.914062 206.132812 " fill-opacity="1" fill-rule="nonzero"/><path fill="#0a0b0a" d="M 279.808594 99.558594 C 266.265625 118.488281 241.84375 129.019531 218.3125 125.757812 C 216.621094 130.441406 216.871094 135.648438 218.113281 140.46875 C 219.351562 145.292969 221.535156 149.816406 223.710938 154.296875 C 222.429688 154.800781 220.941406 154.394531 219.835938 153.589844 C 218.726562 152.785156 217.921875 151.636719 217.144531 150.507812 C 212.382812 143.53125 207.882812 136.148438 206.230469 127.84375 C 204.246094 126.242188 201.859375 125.144531 199.550781 124.621094 C 196.058594 115.015625 197.640625 103.96875 202.675781 95.085938 C 207.707031 86.195312 215.957031 79.386719 225.160156 74.957031 C 236.5 69.5 250.414062 67.625 261.492188 73.609375 C 265.78125 75.925781 269.40625 79.257812 272.980469 82.570312 C 275.910156 85.277344 278.839844 87.988281 281.773438 90.695312 C 282.488281 91.351562 283.222656 92.046875 283.574219 92.941406 C 284.683594 95.730469 281.136719 97.675781 279.789062 99.558594 Z M 279.808594 99.558594 " fill-opacity="1" fill-rule="nonzero"/><path fill="#0a0b0a" d="M 259.910156 215.136719 C 260.253906 207.746094 260.59375 200.363281 260.925781 192.972656 C 260.976562 191.875 261.019531 190.71875 260.535156 189.730469 C 260.050781 188.742188 258.851562 188.007812 257.835938 188.433594 C 243.839844 188.875 229.792969 187.515625 216.148438 184.394531 C 213.730469 183.839844 210.691406 183.445312 209.238281 185.449219 C 208.554688 186.398438 208.457031 187.625 208.375 188.792969 C 208.050781 193.609375 207.730469 198.429688 207.410156 203.242188 C 207.246094 205.671875 207.097656 208.179688 207.953125 210.453125 C 209.039062 213.34375 211.59375 215.40625 214.214844 217.039062 C 224.222656 223.292969 236.832031 225.226562 248.25 222.246094 C 253.6875 220.824219 259.769531 218.148438 259.902344 215.136719 Z M 259.910156 215.136719 " fill-opacity="1" fill-rule="nonzero"/><path fill="#0a0b0a" d="M 298.304688 220.804688 C 314.488281 229.042969 324.132812 246.078125 330.890625 262.925781 C 337.648438 279.773438 342.632812 297.714844 353.488281 312.265625 C 357.375 317.484375 362.175781 322.667969 362.660156 329.152344 C 363.4375 339.394531 353.277344 346.957031 343.738281 350.734375 C 337.464844 353.21875 330.277344 354.992188 324.082031 352.292969 C 318.65625 349.925781 315.171875 344.640625 312.011719 339.636719 C 304.136719 327.171875 296.273438 314.703125 288.398438 302.246094 C 281.550781 291.402344 274.53125 280.105469 272.878906 267.386719 C 270.492188 249.070312 280.90625 229.796875 298.304688 220.816406 Z M 298.304688 220.804688 " fill-opacity="1" fill-rule="nonzero"/><path fill="#0a0b0a" d="M 172.355469 226.988281 C 177.882812 233.703125 178.578125 243.390625 176.273438 251.78125 C 173.96875 260.167969 169.085938 267.570312 164.269531 274.820312 C 153.9375 290.367188 143.605469 305.914062 133.265625 321.460938 C 160.464844 322.921875 187.671875 324.371094 214.867188 325.832031 C 218.34375 326.011719 222 326.265625 224.878906 328.207031 C 230.335938 331.894531 230.589844 339.898438 228.835938 346.253906 C 227.082031 352.605469 223.910156 358.839844 224.554688 365.386719 C 184.820312 365.808594 145.089844 366.230469 105.355469 366.652344 C 98.332031 366.726562 90.15625 366.25 86.101562 360.523438 C 82.265625 355.09375 84.054688 347.671875 85.996094 341.316406 C 90.972656 325.066406 95.957031 308.804688 100.933594 292.550781 C 106.855469 273.226562 112.925781 253.570312 124.3125 236.875 C 135.703125 220.179688 153.425781 206.585938 174.742188 206.71875 C 176.808594 213.574219 176.039062 221.238281 172.34375 227 Z M 172.355469 226.988281 " fill-opacity="1" fill-rule="nonzero"/><path fill="#c98d26" d="M 219.179688 339.152344 L 242.582031 330.785156 C 244.121094 330.230469 245.753906 329.679688 247.34375 330 C 250.023438 330.542969 251.601562 333.324219 252.449219 335.929688 C 253.296875 338.539062 253.839844 341.410156 255.792969 343.332031 C 268.007812 345.507812 279.625 350.964844 289.101562 358.980469 C 290.109375 359.835938 291.125 360.761719 291.609375 361.992188 C 292.09375 363.21875 291.839844 364.84375 290.714844 365.535156 C 290.027344 365.957031 289.183594 365.96875 288.386719 365.96875 C 267.007812 365.96875 245.621094 365.6875 224.246094 365.132812 C 222.59375 356.351562 220.941406 347.570312 219.179688 339.132812 Z M 219.179688 339.152344 " fill-opacity="1" fill-rule="nonzero"/><g clip-path="url(#ff6a952347)"><path fill="#ffffff" d="M 504.53125 251.808594 C 445.9375 248.34375 374.816406 252.292969 312.382812 248.605469 C 303.261719 286.570312 283.0625 328.699219 273.9375 366.664062 C 335.039062 370.039062 407.441406 366.390625 468.613281 364.023438 C 479.972656 326.152344 491.308594 295.875 504.53125 251.800781 Z M 504.53125 251.808594 " fill-opacity="1" fill-rule="nonzero"/></g><path fill="#ffffff" d="M 259.417969 356.191406 L 473.898438 356.191406 L 473.898438 368.03125 L 259.417969 368.03125 Z M 259.417969 356.191406 " fill-opacity="1" fill-rule="nonzero"/><path fill="#0a0b0a" d="M 259.417969 356.191406 L 473.898438 356.191406 L 473.898438 368.03125 L 259.417969 368.03125 Z M 259.417969 356.191406 " fill-opacity="0.16" fill-rule="nonzero"/><g clip-path="url(#8b6ebb0278)"><path fill="#ffffff" d="M 57.460938 363.582031 L 502.535156 363.582031 L 502.535156 375.664062 L 57.460938 375.664062 Z M 57.460938 363.582031 " fill-opacity="1" fill-rule="nonzero"/></g></svg>