<svg xmlns="http://www.w3.org/2000/svg" xmlns:xlink="http://www.w3.org/1999/xlink" width="500" zoomAndPan="magnify" viewBox="0 0 375 374.999991" height="500" preserveAspectRatio="xMidYMid meet" version="1.0"><defs><clipPath id="936e05fbfe"><path d="M 1.125 87.242188 L 373.773438 87.242188 L 373.773438 353.855469 L 1.125 353.855469 Z M 1.125 87.242188 " clip-rule="nonzero"/></clipPath><clipPath id="dc612520d7"><path d="M 47.15625 46.421875 L 327.667969 46.421875 L 327.667969 369.367188 L 47.15625 369.367188 Z M 47.15625 46.421875 " clip-rule="nonzero"/></clipPath></defs><g clip-path="url(#936e05fbfe)"><path fill="#c98d26" d="M 189.078125 92.144531 L 268.636719 113.644531 C 291.507812 119.824219 310.367188 135.992188 319.976562 157.648438 L 368.714844 267.511719 C 382.035156 297.53125 368.679688 333.222656 338.386719 345.90625 C 333.910156 347.777344 329.753906 348.816406 326.234375 348.582031 L 314.953125 353.496094 L 269.496094 332.050781 L 283.34375 314.183594 L 104.863281 314.183594 L 87.21875 241.804688 L 64.433594 311.054688 L 63.988281 328.03125 L 38.714844 328.03125 C 13.761719 328.03125 -4.253906 304.152344 2.59375 280.15625 L 28.3125 190.015625 C 33.191406 172.910156 43.628906 157.917969 57.976562 147.40625 L 139.488281 87.675781 L 189.078125 92.144531 " fill-opacity="1" fill-rule="nonzero"/></g><path fill="#0a0b0a" d="M 134.351562 95.941406 C 108.585938 83.695312 94.234375 55.738281 94.589844 51.488281 C 95.257812 43.445312 103.96875 29.597656 131.445312 12.171875 C 158.925781 -5.25 195.78125 14.628906 197.566406 40.765625 C 199.355469 66.898438 191.984375 102.417969 191.984375 102.417969 C 191.984375 102.417969 157.308594 106.851562 134.351562 95.941406 " fill-opacity="1" fill-rule="nonzero"/><path fill="#005e38" d="M 128.765625 136.148438 C 145.519531 157.144531 157.359375 154.464844 168.082031 149.328125 C 178.804688 144.1875 193.769531 112.46875 190.644531 97.503906 C 187.515625 82.539062 194.664062 76.285156 192.652344 65.558594 C 190.644531 54.839844 181.484375 56.402344 177.238281 60.421875 C 172.996094 64.445312 175.226562 76.730469 175.226562 76.730469 C 175.226562 76.730469 168.976562 78.515625 164.730469 68.6875 C 160.484375 58.859375 159.367188 50.148438 159.367188 50.148438 C 159.367188 50.148438 145.296875 73.601562 121.394531 71.148438 C 97.496094 68.6875 96.15625 51.265625 96.597656 47.914062 C 96.597656 47.914062 91.460938 61.988281 96.597656 75.613281 C 101.738281 89.238281 112.015625 115.148438 128.765625 136.148438 Z M 312.855469 350.195312 C 308.4375 343.808594 296.960938 329.847656 277.574219 323.597656 C 277.027344 323.421875 276.449219 323.371094 275.882812 323.449219 C 271.722656 324.03125 253.699219 327.085938 244.253906 337.414062 C 233.53125 349.140625 231.1875 362.542969 241.910156 366.230469 C 252.171875 369.757812 260.898438 368.679688 272.800781 357.703125 C 273.78125 356.796875 275.160156 356.460938 276.4375 356.859375 C 282.015625 358.574219 298.066406 362.472656 311.566406 355.519531 C 313.511719 354.519531 314.101562 351.996094 312.855469 350.195312 Z M 103.390625 308.027344 C 105.828125 308.3125 107.570312 305.671875 106.503906 303.457031 L 98.835938 287.488281 C 96.632812 282.910156 92.085938 279.917969 87.011719 279.710938 L 80.191406 279.433594 C 80.191406 279.433594 93.492188 298.753906 97.945312 304.636719 C 99.691406 306.945312 101.648438 307.816406 103.390625 308.027344 Z M 80.175781 330.105469 C 87.5625 330.105469 95.238281 317.996094 95.238281 317.996094 L 90.382812 311.144531 C 92.347656 312.289062 94.1875 313.367188 95.535156 314.160156 C 100.554688 317.109375 105.574219 312.976562 98.488281 307.660156 C 91.398438 302.34375 84.3125 297.621094 84.3125 297.621094 L 82.878906 291.628906 C 80.839844 283.085938 72.699219 277.101562 62.980469 277.773438 C 56.621094 278.210938 46.667969 286.957031 49.914062 302.898438 C 53.164062 318.847656 58.851562 330.105469 68.007812 330.105469 C 77.164062 330.105469 72.792969 330.105469 80.175781 330.105469 Z M 105.980469 320.882812 L 205.164062 320.882812 L 172.546875 350.816406 L 66.21875 350.816406 L 105.980469 320.882812 " fill-opacity="1" fill-rule="nonzero"/><g clip-path="url(#dc612520d7)"><path fill="#0a0b0a" d="M 96.234375 55.25 C 96.953125 57.503906 98.121094 59.976562 99.988281 62.335938 C 104.515625 68.082031 111.675781 71.492188 121.257812 72.480469 C 140.65625 74.476562 153.890625 59.84375 158.609375 53.585938 C 159.308594 57.046875 160.757812 62.878906 163.5 69.21875 C 168.160156 80 175.292969 78.105469 175.597656 78.019531 C 176.257812 77.832031 176.671875 77.167969 176.546875 76.488281 C 175.960938 73.269531 175.113281 64.285156 178.164062 61.394531 C 180.097656 59.566406 183.558594 58.046875 186.585938 59.019531 C 189.007812 59.804688 190.648438 62.152344 191.335938 65.808594 C 192.195312 70.375 191.292969 74.035156 190.257812 78.269531 C 188.992188 83.433594 187.554688 89.28125 189.332031 97.777344 C 192.378906 112.359375 177.625 143.265625 167.5 148.121094 C 157.445312 152.9375 146.253906 155.921875 129.8125 135.3125 C 114.0625 115.570312 104.027344 91.515625 97.855469 75.140625 C 95.125 67.898438 95.425781 60.449219 96.234375 55.25 Z M 193.742188 163.046875 L 174.105469 146.21875 C 184.128906 135.527344 194.738281 110.535156 191.953125 97.230469 C 191.632812 95.707031 191.453125 94.308594 191.335938 92.964844 C 208.136719 108.222656 196.574219 153.101562 193.742188 163.046875 Z M 163.367188 172.300781 L 155.316406 154.304688 C 160.191406 154.195312 164.59375 152.488281 168.65625 150.535156 C 169.15625 150.300781 169.667969 149.988281 170.183594 149.640625 Z M 131.683594 168.503906 L 129.722656 139.414062 C 135.898438 146.628906 141.453125 150.675781 146.523438 152.679688 Z M 126.847656 135.855469 C 126.839844 135.949219 126.808594 136.035156 126.816406 136.128906 L 129.21875 171.757812 C 129.25 172.289062 129.601562 172.75 130.101562 172.925781 C 130.25 172.980469 130.402344 173.007812 130.554688 173.007812 C 130.917969 173.007812 131.273438 172.859375 131.53125 172.582031 L 149.230469 153.703125 C 149.261719 153.675781 149.277344 153.632812 149.300781 153.601562 C 150.339844 153.871094 151.359375 154.058594 152.355469 154.171875 C 152.375 154.230469 152.371094 154.289062 152.394531 154.34375 L 162.332031 176.542969 L 188.996094 312.539062 C 189.117188 313.183594 189.679688 313.625 190.304688 313.625 C 190.390625 313.625 190.476562 313.617188 190.566406 313.597656 C 191.292969 313.457031 191.765625 312.75 191.621094 312.023438 L 164.992188 176.203125 L 173.1875 148.957031 L 193.566406 166.429688 C 193.816406 166.640625 194.125 166.753906 194.441406 166.753906 C 194.566406 166.753906 194.6875 166.734375 194.808594 166.703125 C 195.242188 166.574219 195.582031 166.242188 195.71875 165.816406 C 196.476562 163.40625 214.066406 106.636719 191.675781 89.734375 C 191.527344 89.617188 191.359375 89.542969 191.1875 89.5 C 191.253906 85.492188 192.0625 82.164062 192.859375 78.910156 C 193.925781 74.558594 194.929688 70.449219 193.972656 65.316406 C 192.863281 59.402344 189.792969 57.242188 187.414062 56.472656 C 183.335938 55.148438 178.808594 57.089844 176.316406 59.449219 C 172.457031 63.109375 173.191406 71.902344 173.679688 75.511719 C 171.929688 75.386719 168.601562 74.269531 165.960938 68.15625 C 161.847656 58.632812 160.707031 50.0625 160.699219 49.976562 C 160.625 49.410156 160.199219 48.953125 159.644531 48.835938 C 159.09375 48.730469 158.515625 48.972656 158.21875 49.460938 C 158.082031 49.6875 144.28125 72.167969 121.535156 69.808594 C 112.695312 68.90625 106.15625 65.832031 102.089844 60.679688 C 98.011719 55.507812 97.710938 49.714844 97.929688 48.09375 C 98.015625 47.414062 97.582031 46.777344 96.921875 46.613281 C 96.253906 46.453125 95.574219 46.8125 95.339844 47.453125 C 95.125 48.046875 90.09375 62.152344 95.34375 76.085938 C 101.46875 92.324219 111.371094 116.039062 126.847656 135.855469 Z M 312.097656 352.867188 C 311.9375 353.511719 311.527344 354.03125 310.953125 354.328125 C 298.0625 360.972656 282.792969 357.414062 276.832031 355.578125 C 275.113281 355.046875 273.226562 355.484375 271.890625 356.71875 C 264.894531 363.171875 259.210938 365.96875 253.867188 366.574219 C 253.96875 365.789062 255.011719 362.308594 264.648438 352.421875 C 265.164062 351.894531 265.15625 351.042969 264.621094 350.527344 C 264.097656 350.011719 263.25 350.019531 262.726562 350.554688 C 255.105469 358.367188 251.230469 363.855469 251.222656 366.703125 C 249.324219 366.671875 247.453125 366.390625 245.554688 365.921875 C 244.703125 362.261719 253.136719 350.941406 258.660156 344.664062 C 259.148438 344.109375 259.09375 343.261719 258.542969 342.773438 C 257.988281 342.28125 257.136719 342.339844 256.648438 342.894531 C 254.289062 345.578125 243.257812 358.460938 242.863281 365.128906 C 242.691406 365.074219 242.515625 365.023438 242.34375 364.960938 C 240.933594 364.476562 239.792969 363.78125 238.871094 362.929688 C 238.410156 355.113281 249.210938 341.402344 249.320312 341.265625 C 249.785156 340.679688 249.6875 339.839844 249.109375 339.378906 C 248.527344 338.921875 247.6875 339.011719 247.226562 339.59375 C 246.8125 340.113281 238.574219 350.574219 236.601562 359.140625 C 236.601562 359.136719 236.597656 359.128906 236.59375 359.121094 C 235.199219 353.648438 238.515625 345.679688 245.246094 338.316406 C 254.46875 328.226562 272.539062 325.273438 276.070312 324.78125 C 276.1875 324.765625 276.300781 324.753906 276.417969 324.753906 C 276.667969 324.753906 276.917969 324.792969 277.160156 324.871094 L 277.164062 324.871094 C 296.390625 331.078125 307.757812 345.179688 311.753906 350.960938 C 312.136719 351.511719 312.261719 352.207031 312.097656 352.867188 Z M 278.925781 322.660156 L 303.285156 289.761719 C 306.546875 285.355469 307.136719 279.53125 304.820312 274.5625 L 271.601562 203.269531 C 271.289062 202.597656 270.492188 202.3125 269.824219 202.621094 C 269.152344 202.933594 268.859375 203.730469 269.175781 204.398438 L 302.394531 275.695312 C 304.292969 279.773438 303.8125 284.550781 301.132812 288.164062 L 275.992188 322.117188 C 275.894531 322.125 275.796875 322.109375 275.699219 322.125 C 270.519531 322.847656 252.863281 326.007812 243.261719 336.507812 C 235.933594 344.527344 232.378906 353.445312 233.996094 359.785156 C 234.933594 363.472656 237.519531 366.136719 241.472656 367.496094 C 245.066406 368.730469 248.394531 369.367188 251.609375 369.367188 C 259.035156 369.367188 265.820312 365.96875 273.707031 358.6875 C 274.347656 358.097656 275.242188 357.894531 276.039062 358.136719 C 282.320312 360.078125 298.398438 363.808594 312.179688 356.710938 C 313.433594 356.066406 314.355469 354.898438 314.699219 353.515625 C 315.050781 352.109375 314.773438 350.621094 313.953125 349.433594 C 309.875 343.527344 298.355469 329.261719 278.925781 322.660156 Z M 51.226562 302.636719 C 49.792969 295.605469 50.953125 289.175781 54.496094 284.523438 C 56.847656 281.429688 60.210938 279.304688 63.070312 279.109375 C 63.527344 279.078125 63.972656 279.0625 64.417969 279.0625 C 72.660156 279.0625 79.753906 284.308594 81.578125 291.941406 L 83.132812 298.441406 L 83.570312 298.734375 C 83.640625 298.78125 90.707031 303.5 97.683594 308.734375 C 100.332031 310.71875 101.003906 312.421875 100.507812 313.164062 C 100.035156 313.878906 98.273438 314.214844 96.210938 313.003906 C 91.191406 310.046875 79.402344 303.195312 79.402344 303.195312 L 78.054688 305.511719 C 78.054688 305.511719 84.164062 309.0625 89.457031 312.152344 L 93.613281 318.023438 C 91.175781 321.597656 85.238281 328.761719 80.175781 328.761719 L 68.007812 328.761719 C 58.539062 328.761719 53.65625 314.554688 51.226562 302.636719 Z M 86.957031 281.050781 C 91.550781 281.238281 95.636719 283.929688 97.625 288.066406 L 105.296875 304.035156 C 105.652344 304.777344 105.441406 305.527344 105.117188 305.972656 C 104.9375 306.222656 104.414062 306.789062 103.546875 306.695312 C 101.824219 306.488281 100.296875 305.527344 99.015625 303.828125 C 95.519531 299.214844 86.441406 286.125 82.824219 280.878906 Z M 80.175781 331.445312 C 88.207031 331.445312 96.039062 319.234375 96.371094 318.714844 L 96.851562 317.957031 L 95.0625 315.429688 C 98.058594 317.09375 101.328125 316.769531 102.738281 314.652344 C 103.609375 313.339844 103.667969 311.324219 101.875 309.042969 C 102.320312 309.171875 102.761719 309.296875 103.230469 309.351562 C 103.40625 309.375 103.582031 309.386719 103.757812 309.386719 C 105.15625 309.386719 106.453125 308.71875 107.296875 307.535156 C 108.277344 306.164062 108.433594 304.378906 107.710938 302.875 L 100.042969 286.90625 C 97.625 281.875 92.652344 278.601562 87.070312 278.371094 L 77.570312 277.984375 L 79.089844 280.191406 C 79.210938 280.375 90.671875 297.015625 95.828125 304.035156 C 91.074219 300.585938 86.832031 297.703125 85.492188 296.800781 L 84.1875 291.316406 C 81.960938 281.996094 72.996094 275.78125 62.886719 276.433594 C 59.238281 276.6875 55.203125 279.164062 52.363281 282.898438 C 48.347656 288.171875 47.011719 295.371094 48.601562 303.167969 C 52.421875 321.929688 58.949219 331.445312 68.007812 331.445312 Z M 157.785156 122.757812 C 156.332031 130.984375 147.730469 134.5625 147.363281 134.710938 C 147.199219 134.773438 147.03125 134.808594 146.859375 134.808594 C 146.332031 134.808594 145.828125 134.492188 145.621094 133.972656 C 145.339844 133.289062 145.671875 132.503906 146.355469 132.226562 C 146.429688 132.195312 153.953125 129.042969 155.144531 122.292969 C 155.273438 121.5625 155.964844 121.074219 156.699219 121.203125 C 157.429688 121.332031 157.914062 122.027344 157.785156 122.757812 Z M 127.015625 104.960938 C 126.847656 104.238281 127.292969 103.515625 128.011719 103.347656 C 128.730469 103.183594 129.453125 103.621094 129.625 104.34375 L 134.339844 124.441406 L 141.253906 120.257812 C 141.882812 119.871094 142.707031 120.078125 143.09375 120.710938 C 143.476562 121.34375 143.273438 122.167969 142.640625 122.550781 L 134.148438 127.691406 C 133.9375 127.816406 133.699219 127.886719 133.457031 127.886719 C 133.28125 127.886719 133.105469 127.851562 132.9375 127.78125 C 132.542969 127.613281 132.25 127.269531 132.152344 126.851562 Z M 107.359375 94.265625 C 106.929688 93.671875 107.050781 92.839844 107.640625 92.40625 C 107.878906 92.230469 113.515625 88.199219 123.273438 92.480469 C 123.953125 92.777344 124.261719 93.566406 123.960938 94.246094 C 123.742188 94.75 123.25 95.046875 122.734375 95.046875 C 122.554688 95.046875 122.371094 95.007812 122.195312 94.933594 C 113.949219 91.3125 109.414062 94.433594 109.230469 94.566406 C 108.628906 94.992188 107.789062 94.863281 107.359375 94.265625 Z M 139.449219 92.207031 C 138.917969 91.691406 138.90625 90.847656 139.417969 90.316406 C 139.707031 90.019531 146.648438 83.03125 158.289062 87.542969 C 158.980469 87.8125 159.324219 88.585938 159.058594 89.277344 C 158.789062 89.96875 158.003906 90.308594 157.324219 90.042969 C 147.386719 86.1875 141.582031 91.9375 141.339844 92.183594 C 141.082031 92.453125 140.730469 92.585938 140.386719 92.585938 C 140.046875 92.585938 139.710938 92.460938 139.449219 92.207031 Z M 210.230469 242.011719 L 201.179688 213.214844 L 239.917969 213.214844 L 248.546875 240.664062 C 249.792969 244.628906 249.097656 248.820312 246.636719 252.171875 C 244.179688 255.519531 240.386719 257.445312 236.234375 257.445312 L 231.253906 257.445312 C 221.578125 257.445312 213.132812 251.242188 210.230469 242.011719 Z M 248.800781 253.757812 C 251.769531 249.710938 252.609375 244.648438 251.101562 239.867188 L 242.179688 211.472656 C 242.003906 210.914062 241.488281 210.535156 240.902344 210.535156 L 199.355469 210.535156 C 198.925781 210.535156 198.527344 210.738281 198.273438 211.082031 C 198.023438 211.421875 197.949219 211.871094 198.078125 212.277344 L 207.675781 242.816406 C 210.925781 253.171875 220.402344 260.125 231.253906 260.125 L 236.234375 260.125 C 241.25 260.125 245.832031 257.804688 248.800781 253.757812 Z M 78.328125 213.109375 C 78.140625 212.390625 78.566406 211.65625 79.285156 211.472656 C 80.003906 211.273438 80.734375 211.710938 80.917969 212.425781 L 88.515625 241.464844 C 88.703125 242.183594 88.273438 242.914062 87.558594 243.101562 C 87.441406 243.132812 87.328125 243.144531 87.214844 243.144531 C 86.621094 243.144531 86.078125 242.75 85.917969 242.144531 Z M 327.515625 348.203125 L 324.945312 348.964844 C 324.902344 348.804688 320.035156 332.921875 307.78125 327.007812 L 308.945312 324.589844 C 322.28125 331.03125 327.308594 347.503906 327.515625 348.203125 Z M 172.027344 349.472656 L 70.230469 349.472656 L 106.429688 322.222656 L 201.71875 322.222656 Z M 205.164062 319.542969 L 105.980469 319.542969 C 105.691406 319.542969 105.410156 319.636719 105.175781 319.8125 L 65.414062 349.746094 C 64.953125 350.089844 64.769531 350.695312 64.949219 351.242188 C 65.132812 351.789062 65.648438 352.15625 66.21875 352.15625 L 172.546875 352.15625 C 172.882812 352.15625 173.210938 352.03125 173.453125 351.800781 L 206.070312 321.871094 C 206.476562 321.492188 206.613281 320.910156 206.410156 320.394531 C 206.214844 319.882812 205.714844 319.542969 205.164062 319.542969 " fill-opacity="1" fill-rule="nonzero"/></g><path fill="#0a0b0a" d="M 57.285156 259.675781 L 98.164062 322.671875 L 107.359375 328.621094 C 108.085938 329.09375 109 328.382812 108.726562 327.558594 L 104.863281 315.96875 L 63.652344 254.984375 Z M 150.882812 98.953125 C 149.464844 98.953125 148.3125 100.105469 148.3125 101.527344 C 148.3125 102.945312 149.464844 104.09375 150.882812 104.09375 C 152.300781 104.09375 153.449219 102.945312 153.449219 101.527344 C 153.449219 100.105469 152.300781 98.953125 150.882812 98.953125 Z M 122.402344 105.097656 C 122.402344 106.515625 121.25 107.667969 119.832031 107.667969 C 118.414062 107.667969 117.261719 106.515625 117.261719 105.097656 C 117.261719 103.679688 118.414062 102.53125 119.832031 102.53125 C 121.25 102.53125 122.402344 103.679688 122.402344 105.097656 " fill-opacity="1" fill-rule="nonzero"/></svg>