<svg xmlns="http://www.w3.org/2000/svg" xmlns:xlink="http://www.w3.org/1999/xlink" width="750" zoomAndPan="magnify" viewBox="0 0 562.5 562.499982" height="750" preserveAspectRatio="xMidYMid meet" version="1.0"><defs><clipPath id="c2c3305c13"><path d="M 273 246 L 504.539062 246 L 504.539062 366 L 273 366 Z M 273 246 " clip-rule="nonzero"/></clipPath><clipPath id="a021b507ab"><path d="M 57.457031 361 L 503 361 L 503 373.28125 L 57.457031 373.28125 Z M 57.457031 361 " clip-rule="nonzero"/></clipPath></defs><path fill="#c98d26" d="M 101.859375 31.453125 C 60.269531 58.632812 35.054688 110.703125 23.265625 161.792969 C 11.472656 212.554688 13.113281 262.332031 20.972656 310.472656 C 28.503906 358.941406 41.929688 405.773438 69.113281 446.382812 C 96.292969 486.988281 136.574219 521.375 184.390625 539.386719 C 232.53125 557.726562 287.546875 559.691406 334.707031 542.335938 C 381.539062 524.652344 420.507812 487.644531 456.203125 447.035156 C 491.902344 406.753906 524.648438 363.199219 537.421875 313.09375 C 550.523438 262.988281 543.972656 206.332031 521.046875 157.535156 C 498.125 108.738281 458.824219 67.804688 412.320312 42.914062 C 366.144531 18.023438 312.4375 9.183594 256.765625 5.90625 C 201.089844 2.304688 143.453125 4.597656 101.859375 31.453125 Z M 101.859375 31.453125 " fill-opacity="1" fill-rule="nonzero"/><path fill="#000000" d="M 199.089844 127.1875 C 191.304688 125.246094 182.738281 129.714844 178.851562 136.734375 C 174.964844 143.753906 175.386719 152.65625 178.851562 159.894531 C 182.3125 167.136719 188.507812 172.792969 195.445312 176.820312 C 201.136719 180.125 207.820312 182.472656 214.265625 181.121094 C 221.644531 179.570312 227.414062 173.195312 229.652344 165.996094 C 231.886719 158.796875 231.011719 150.921875 228.695312 143.742188 C 227.132812 138.898438 224.789062 134.085938 220.78125 130.933594 C 214.375 125.902344 205.292969 128.75 199.089844 127.199219 Z M 199.089844 127.1875 " fill-opacity="1" fill-rule="nonzero"/><path fill="#000000" d="M 201.738281 124.984375 C 197.15625 110.65625 185.859375 98.621094 171.832031 93.164062 C 168.15625 91.734375 164.167969 90.71875 160.261719 92.035156 C 158.890625 92.5 157.625 93.273438 156.667969 94.363281 C 153.019531 98.480469 155.207031 103.96875 158.007812 108.046875 C 165.992188 119.699219 179.484375 127.390625 193.574219 128.335938 C 195.484375 128.46875 197.519531 128.449219 199.148438 127.449219 C 200.78125 126.453125 201.75 124.148438 201.75 124.992188 Z M 201.738281 124.984375 " fill-opacity="1" fill-rule="nonzero"/><path fill="#005e38" d="M 285.4375 113.785156 C 287.058594 123.414062 288.679688 133.160156 287.972656 142.898438 C 287.269531 152.636719 283.976562 162.523438 277.039062 169.402344 C 269.648438 176.710938 258.964844 179.8125 248.59375 180.398438 C 241.503906 180.800781 234.113281 180.085938 227.898438 176.652344 C 215.707031 169.914062 211.113281 154.871094 208.695312 141.15625 C 206.058594 126.183594 204.890625 109.890625 212.242188 96.578125 C 220.214844 82.136719 238.25 74.050781 254.332031 77.71875 C 270.414062 81.382812 282.546875 96.566406 285.449219 113.785156 Z M 285.4375 113.785156 " fill-opacity="1" fill-rule="nonzero"/><path fill="#005e38" d="M 214.136719 142.605469 C 213.820312 136.414062 211.09375 130.371094 206.664062 126.042969 C 204.597656 124.015625 202.089844 122.324219 199.253906 121.75 C 196.414062 121.175781 193.21875 121.871094 191.257812 124.007812 C 189.53125 125.878906 188.96875 128.539062 188.78125 131.074219 C 188.144531 139.421875 190.902344 147.992188 196.289062 154.398438 C 199.503906 158.214844 204.519531 161.457031 209.25 159.886719 C 213.054688 158.625 215.351562 154.539062 215.726562 150.539062 C 216.097656 146.542969 214.917969 142.585938 214.125 142.605469 Z M 214.136719 142.605469 " fill-opacity="1" fill-rule="nonzero"/><path fill="#005e38" d="M 214.808594 148.980469 C 214.074219 170.902344 214.195312 192.851562 215.171875 214.765625 C 227.757812 222.449219 244.394531 222.789062 257.132812 215.167969 C 256.789062 195.953125 256.699219 190.667969 256.367188 171.464844 C 243.316406 163.894531 230.246094 156.332031 214.808594 148.980469 Z M 214.808594 148.980469 " fill-opacity="1" fill-rule="nonzero"/><path fill="#0a0b0a" d="M 248.914062 203.828125 C 263.675781 206.136719 278.207031 209.710938 292.375 214.484375 C 298.609375 216.585938 305.386719 218.921875 309.574219 224.097656 C 313.339844 228.75 314.425781 234.953125 315.394531 240.855469 C 316.472656 247.429688 317.539062 254.136719 316.453125 260.710938 C 315.222656 268.0625 311.367188 274.699219 307.257812 280.910156 C 297.589844 295.523438 286.101562 308.925781 273.132812 320.707031 C 276.3125 334.058594 278.609375 347.621094 280.007812 361.277344 L 151.84375 363.179688 C 141 319.6875 142.519531 265.847656 150.386719 221.734375 C 152.1875 211.644531 159.910156 203.648438 169.9375 201.5625 C 195.363281 196.277344 222.179688 199.660156 248.914062 203.828125 Z M 248.914062 203.828125 " fill-opacity="1" fill-rule="nonzero"/><path fill="#000000" d="M 279.808594 97.253906 C 266.265625 116.183594 241.84375 126.714844 218.3125 123.453125 C 216.621094 128.136719 216.871094 133.339844 218.113281 138.164062 C 219.351562 142.988281 221.535156 147.511719 223.710938 151.992188 C 222.429688 152.496094 220.941406 152.089844 219.835938 151.285156 C 218.726562 150.480469 217.921875 149.332031 217.144531 148.203125 C 212.382812 141.226562 207.882812 133.84375 206.230469 125.539062 C 204.246094 123.9375 201.859375 122.839844 199.550781 122.316406 C 196.058594 112.710938 197.640625 101.664062 202.675781 92.78125 C 207.707031 83.890625 215.957031 77.082031 225.160156 72.652344 C 236.5 67.195312 250.414062 65.320312 261.492188 71.304688 C 265.78125 73.617188 269.40625 76.953125 272.980469 80.265625 C 275.910156 82.972656 278.839844 85.683594 281.773438 88.390625 C 282.488281 89.046875 283.222656 89.742188 283.574219 90.636719 C 284.683594 93.425781 281.136719 95.371094 279.789062 97.253906 Z M 279.808594 97.253906 " fill-opacity="1" fill-rule="nonzero"/><path fill="#0a0b0a" d="M 259.910156 212.832031 C 260.253906 205.441406 260.59375 198.058594 260.925781 190.667969 C 260.976562 189.570312 261.019531 188.414062 260.535156 187.425781 C 260.050781 186.4375 258.851562 185.703125 257.835938 186.125 C 243.839844 186.570312 229.792969 185.210938 216.148438 182.089844 C 213.730469 181.535156 210.691406 181.140625 209.238281 183.144531 C 208.554688 184.09375 208.457031 185.320312 208.375 186.488281 C 208.050781 191.300781 207.730469 196.125 207.410156 200.9375 C 207.246094 203.367188 207.097656 205.875 207.953125 208.148438 C 209.039062 211.039062 211.59375 213.101562 214.214844 214.734375 C 224.222656 220.988281 236.832031 222.921875 248.25 219.941406 C 253.6875 218.519531 259.769531 215.84375 259.902344 212.832031 Z M 259.910156 212.832031 " fill-opacity="1" fill-rule="nonzero"/><path fill="#0a0b0a" d="M 298.304688 218.5 C 314.488281 226.738281 324.132812 243.773438 330.890625 260.621094 C 337.648438 277.46875 342.632812 295.410156 353.488281 309.960938 C 357.375 315.179688 362.175781 320.363281 362.660156 326.847656 C 363.4375 337.089844 353.277344 344.652344 343.738281 348.429688 C 337.464844 350.914062 330.277344 352.6875 324.082031 349.988281 C 318.65625 347.621094 315.171875 342.335938 312.011719 337.332031 C 304.136719 324.863281 296.273438 312.398438 288.398438 299.941406 C 281.550781 289.097656 274.53125 277.800781 272.878906 265.082031 C 270.492188 246.765625 280.90625 227.492188 298.304688 218.511719 Z M 298.304688 218.5 " fill-opacity="1" fill-rule="nonzero"/><path fill="#0a0b0a" d="M 172.355469 224.683594 C 177.882812 231.398438 178.578125 241.085938 176.273438 249.472656 C 173.96875 257.863281 169.085938 265.265625 164.269531 272.515625 C 153.9375 288.0625 143.605469 303.609375 133.265625 319.15625 C 160.464844 320.617188 187.671875 322.066406 214.867188 323.527344 C 218.34375 323.707031 222 323.960938 224.878906 325.902344 C 230.335938 329.589844 230.589844 337.59375 228.835938 343.945312 C 227.082031 350.300781 223.910156 356.535156 224.554688 363.082031 C 184.820312 363.503906 145.089844 363.925781 105.355469 364.347656 C 98.332031 364.417969 90.15625 363.945312 86.101562 358.21875 C 82.265625 352.789062 84.054688 345.367188 85.996094 339.011719 C 90.972656 322.761719 95.957031 306.5 100.933594 290.246094 C 106.855469 270.921875 112.925781 251.265625 124.3125 234.570312 C 135.703125 217.875 153.425781 204.28125 174.742188 204.414062 C 176.808594 211.269531 176.039062 218.933594 172.34375 224.691406 Z M 172.355469 224.683594 " fill-opacity="1" fill-rule="nonzero"/><path fill="#005e38" d="M 219.179688 336.847656 L 242.582031 328.480469 C 244.121094 327.925781 245.753906 327.371094 247.34375 327.695312 C 250.023438 328.238281 251.601562 331.019531 252.449219 333.625 C 253.296875 336.234375 253.839844 339.105469 255.792969 341.027344 C 268.007812 343.203125 279.625 348.660156 289.101562 356.675781 C 290.109375 357.53125 291.125 358.457031 291.609375 359.6875 C 292.09375 360.914062 291.839844 362.539062 290.714844 363.230469 C 290.027344 363.652344 289.183594 363.664062 288.386719 363.664062 C 267.007812 363.664062 245.621094 363.378906 224.246094 362.828125 C 222.59375 354.046875 220.941406 345.265625 219.179688 336.828125 Z M 219.179688 336.847656 " fill-opacity="1" fill-rule="nonzero"/><g clip-path="url(#c2c3305c13)"><path fill="#ffffff" d="M 504.53125 249.503906 C 445.9375 246.039062 374.816406 249.988281 312.382812 246.300781 C 303.261719 284.265625 283.0625 326.394531 273.9375 364.359375 C 335.039062 367.730469 407.441406 364.085938 468.613281 361.71875 C 479.972656 323.847656 491.308594 293.570312 504.53125 249.492188 Z M 504.53125 249.503906 " fill-opacity="1" fill-rule="nonzero"/></g><path fill="#ffffff" d="M 259.417969 353.886719 L 473.898438 353.886719 L 473.898438 365.726562 L 259.417969 365.726562 Z M 259.417969 353.886719 " fill-opacity="1" fill-rule="nonzero"/><path fill="#000000" d="M 259.417969 353.886719 L 473.898438 353.886719 L 473.898438 365.726562 L 259.417969 365.726562 Z M 259.417969 353.886719 " fill-opacity="0.16" fill-rule="nonzero"/><g clip-path="url(#a021b507ab)"><path fill="#ffffff" d="M 57.460938 361.277344 L 502.535156 361.277344 L 502.535156 373.359375 L 57.460938 373.359375 Z M 57.460938 361.277344 " fill-opacity="1" fill-rule="nonzero"/></g></svg>