<svg xmlns="http://www.w3.org/2000/svg" xmlns:xlink="http://www.w3.org/1999/xlink" width="500" zoomAndPan="magnify" viewBox="0 0 375 374.999991" height="500" preserveAspectRatio="xMidYMid meet" version="1.0"><path fill="#f4d668" d="M 292.074219 774.722656 C 296.285156 815.925781 299.535156 852.691406 299.535156 852.691406 C 297.273438 854.386719 294.488281 855.378906 292 855.960938 C 291.941406 856.003906 291.890625 856.058594 291.832031 856.109375 C 291.828125 856.378906 291.820312 856.671875 291.816406 856.945312 C 289.574219 857.3125 287.699219 858.257812 286.128906 859.613281 C 286.128906 859.613281 284.972656 859.40625 284.476562 859.855469 C 266.101562 865.726562 233.992188 858.316406 233.992188 858.316406 L 197.4375 667.289062 C 197.03125 663.335938 196.644531 659.378906 196.332031 655.417969 L 196.703125 655.417969 C 196.6875 655.386719 196.664062 655.363281 196.648438 655.335938 C 196.648438 655.335938 195.992188 636.152344 195.394531 608.195312 C 187.050781 622.746094 175.585938 641.214844 168.929688 651.8125 L 167.015625 655.675781 C 170.835938 670.058594 176.980469 699.476562 179.785156 747.3125 C 183.828125 790.65625 189.171875 847.90625 189.171875 847.90625 C 189.171875 849.175781 185.765625 850.257812 184.027344 850.726562 L 184.214844 852.839844 C 183.269531 854.082031 182.117188 855.164062 180.804688 856.101562 C 180.640625 856.128906 180.484375 856.164062 180.320312 856.191406 C 179.855469 856.285156 179.398438 856.390625 178.964844 856.535156 C 178.878906 856.570312 178.800781 856.597656 178.71875 856.628906 C 178.296875 856.773438 177.890625 856.945312 177.5 857.136719 C 177.414062 857.175781 177.335938 857.222656 177.253906 857.265625 C 176.902344 857.449219 176.566406 857.65625 176.234375 857.878906 C 176.144531 857.9375 176.046875 857.996094 175.964844 858.0625 C 175.632812 858.300781 175.3125 858.5625 175.003906 858.835938 C 174.882812 858.949219 174.757812 859.046875 174.640625 859.167969 C 156.261719 865.425781 124.152344 857.527344 124.152344 857.527344 L 87.277344 651.984375 C 87.222656 651.394531 87.164062 650.800781 87.125 650.207031 C 87.058594 649.214844 87.03125 648.222656 87.019531 647.226562 C 87.019531 647.226562 87.015625 647.226562 87.015625 647.226562 C 87.015625 647.117188 87.019531 647.015625 87.019531 646.902344 C 87.015625 646.203125 87.019531 645.496094 87.039062 644.800781 C 87.046875 644.527344 87.050781 644.253906 87.058594 643.984375 C 87.078125 643.46875 87.097656 642.953125 87.125 642.445312 C 87.222656 640.324219 87.371094 638.207031 87.515625 636.082031 C 96.4375 593.785156 129.460938 437.480469 130.730469 435.582031 L 197.882812 421.515625 C 199.1875 408.929688 200.933594 399.84375 203.25 396.023438 L 332.347656 379.132812 L 333.632812 373.3125 C 333.632812 373.3125 334.746094 374.996094 336.273438 378.550781 C 336.703125 380.644531 337.390625 382.660156 338.527344 384.527344 C 347.515625 411.546875 374.605469 457.453125 296.382812 614.726562 C 294.867188 620.09375 276.421875 661.921875 276.167969 661.921875 C 276.25 662.164062 276.339844 662.417969 276.425781 662.679688 C 277.296875 663.570312 278.304688 667.207031 279.414062 672.878906 C 283.808594 689.707031 290.226562 722.417969 292.074219 774.722656 Z M 292.074219 774.722656 " fill-opacity="1" fill-rule="nonzero"/><path fill="#c98d26" d="M 149.722656 336.4375 C 117.4375 343.285156 112.296875 342.574219 105.003906 343.941406 C 97.710938 345.304688 80.183594 338.46875 76.265625 336.4375 C 72.347656 334.402344 74.03125 330.953125 66.835938 313.871094 C 59.640625 296.785156 61.386719 280.515625 61.386719 280.515625 C 48.0625 291.578125 22.777344 292.71875 22.777344 292.71875 L 8.429688 213.417969 C 13.214844 172.417969 64.015625 142.703125 64.015625 142.703125 L 63.804688 141.0625 C 113.039062 114.488281 174.480469 104.765625 174.480469 104.765625 C 246.554688 87.890625 270.207031 188.820312 270.207031 188.820312 C 269.894531 189.46875 269.105469 191.097656 268.089844 193.1875 C 266.097656 195.488281 263.691406 197.511719 261.550781 199.519531 C 260.902344 200.128906 261.453125 201.234375 262.273438 201.191406 C 262.363281 201.3125 262.464844 201.421875 262.59375 201.488281 C 262.5 201.589844 262.40625 201.691406 262.308594 201.796875 C 261.609375 202.5 262.3125 203.503906 263.082031 203.472656 C 260.972656 207.792969 259.222656 211.371094 259.222656 211.371094 C 259.222656 211.371094 256.265625 225.9375 254.441406 230.621094 C 252.617188 235.304688 253.753906 265.355469 254.441406 268.089844 C 255.128906 270.824219 231.890625 299.554688 231.890625 299.554688 L 228.472656 301.027344 C 228.472656 301.027344 221.617188 312.699219 213.4375 315.242188 C 205.261719 317.78125 210.707031 316.609375 205.242188 319.339844 C 199.773438 322.074219 199.089844 323.441406 194.308594 323.191406 C 189.515625 322.9375 182 329.585938 149.722656 336.4375 Z M 276.902344 279.253906 L 125.234375 391.257812 C 125.234375 391.257812 124.59375 440.285156 125.277344 445.753906 C 125.277344 445.753906 275.960938 452.933594 338.824219 376.394531 C 338.824219 376.398438 304.835938 291.792969 276.902344 279.253906 Z M 276.902344 279.253906 " fill-opacity="1" fill-rule="nonzero"/><path fill="#005e38" d="M 45.773438 141.660156 C 13.683594 136.179688 7.941406 68.71875 7.941406 68.71875 C 7.941406 68.71875 42.324219 -0.015625 83.886719 56.414062 C 86.28125 59.664062 88.699219 63.335938 91.128906 67.457031 C 91.515625 66.160156 92.304688 64.910156 93.410156 63.921875 C 95.265625 62.277344 97.597656 61.683594 99.816406 62.304688 C 104.933594 63.738281 106.441406 70.167969 106.882812 73.878906 C 107.71875 80.886719 105.816406 87.191406 101.683594 91.84375 C 102.132812 93.8125 102.449219 95.84375 102.617188 97.90625 C 102.710938 99.0625 102.761719 100.234375 102.761719 101.40625 C 102.761719 104.75 102.378906 108.007812 101.648438 111.140625 L 123.378906 128.796875 C 116.898438 157.65625 91.574219 165.3125 91.574219 165.3125 L 68.867188 143.195312 C 66.023438 143.792969 63.082031 144.109375 60.066406 144.109375 C 55.050781 144.109375 50.246094 143.242188 45.773438 141.660156 Z M 288.535156 272.519531 C 288.515625 270.320312 287.480469 268.808594 285.496094 268.128906 C 286.503906 266.238281 287.238281 264.164062 287.527344 261.835938 C 287.890625 258.925781 285.558594 252.53125 282.972656 251.90625 C 282.554688 251.796875 282.050781 251.816406 281.53125 252.144531 C 282.621094 249.722656 283.273438 247.46875 283.160156 245.871094 C 282.894531 242.160156 281.949219 240.121094 280.289062 239.617188 C 278.9375 239.214844 277.242188 239.898438 275.164062 241.679688 C 274.992188 240.945312 274.832031 240.222656 274.65625 239.472656 C 274.644531 239.425781 274.636719 239.367188 274.617188 239.308594 C 274.53125 238.925781 274.441406 238.542969 274.335938 238.164062 C 274.316406 238.035156 274.28125 237.898438 274.25 237.761719 C 273.71875 235.601562 273.152344 233.390625 272.535156 231.125 C 272.425781 230.730469 272.320312 230.339844 272.210938 229.949219 C 271.449219 227.152344 270.617188 224.265625 269.71875 221.304688 C 267.566406 214.175781 265.015625 206.578125 262.035156 198.472656 C 262.035156 198.472656 260.238281 200.066406 255.515625 203.691406 C 255.511719 203.691406 255.511719 203.6875 255.511719 203.6875 C 255.507812 203.695312 255.503906 203.699219 255.5 203.703125 C 255.007812 204.085938 254.5625 204.550781 254.164062 205.097656 C 244.523438 213.042969 198.792969 225.199219 198.792969 225.199219 C 198.792969 225.199219 209.304688 266.238281 218.296875 287.832031 C 215.210938 289.542969 211.21875 291.996094 206.578125 295 C 179.722656 300.246094 121.265625 312.328125 102.925781 321.449219 C 83.335938 314.035156 64.019531 279.25 64.019531 279.25 C 51 286.667969 37.660156 290.640625 37.660156 290.640625 C 64.386719 380.605469 90.578125 375.796875 90.578125 375.796875 C 91.644531 375.796875 92.621094 375.339844 93.511719 374.519531 L 99.738281 371.816406 C 102 410.808594 135.558594 392.746094 135.558594 392.746094 C 225.632812 364.730469 257.867188 337 269.371094 321.425781 C 269.375 321.421875 269.375 321.421875 269.378906 321.417969 C 269.390625 321.417969 269.390625 321.410156 269.390625 321.410156 C 269.957031 320.929688 276.300781 315.113281 279.09375 298.898438 C 279.617188 295.886719 280.011719 292.523438 280.214844 288.761719 L 280.222656 288.761719 C 280.242188 288.425781 280.257812 288.082031 280.269531 287.734375 C 284.304688 283.621094 288.566406 276.976562 288.535156 272.519531 Z M 288.535156 272.519531 " fill-opacity="1" fill-rule="nonzero"/><path fill="#0a0b0a" d="M 298.78125 898.496094 C 293.964844 901.558594 287.617188 902.644531 281.902344 902.765625 C 278.371094 902.835938 275.3125 902.394531 272 901.1875 C 267.210938 899.445312 262.632812 899.578125 257.6875 900.878906 C 249.113281 903.125 240.59375 904.53125 231.652344 904.269531 C 226.519531 904.109375 221.449219 904.386719 216.332031 904.410156 C 211.703125 904.4375 207.667969 903.652344 203.167969 902.847656 C 194.605469 901.320312 185.972656 902.136719 177.902344 898.386719 C 177.644531 898.269531 177.382812 898.136719 177.105469 898.003906 C 174.785156 898.414062 172.425781 898.609375 170.167969 898.660156 C 166.644531 898.726562 163.582031 898.285156 160.269531 897.085938 C 155.480469 895.339844 150.902344 895.472656 145.957031 896.773438 C 137.382812 899.023438 128.859375 900.425781 119.921875 900.164062 C 114.785156 900.007812 109.71875 900.28125 104.597656 900.308594 C 99.96875 900.335938 95.933594 899.550781 91.433594 898.746094 C 82.875 897.214844 74.238281 898.03125 66.171875 894.285156 C 62.414062 892.542969 56.5 888.910156 58.902344 884.097656 C 60.101562 881.691406 62.113281 879.875 64.492188 878.492188 C 76.625 874.121094 90.699219 874.402344 103.0625 870.992188 C 112.519531 868.386719 122.824219 863.667969 126.785156 855.226562 C 136.257812 856.046875 145.625 857.246094 155.210938 856.886719 C 160.59375 856.683594 165.855469 856.550781 171 854.894531 C 175.023438 853.617188 178.902344 851.953125 182.960938 850.832031 C 183.464844 850.6875 183.785156 851.128906 183.734375 851.515625 C 187.125 854.367188 187.945312 860.820312 188.816406 864.699219 C 189.789062 869.042969 190.820312 873.507812 191.289062 877.964844 C 198.59375 876.621094 205.96875 875.542969 212.9375 872.917969 C 213.554688 872.6875 214.191406 872.445312 214.832031 872.199219 C 217.925781 871.921875 220.832031 871.121094 223.703125 869.753906 C 224.242188 869.492188 224.71875 869.160156 225.136719 868.773438 C 230.492188 866.78125 235.566406 863.472656 239.675781 859.425781 C 248.753906 860.242188 257.746094 861.328125 266.933594 860.988281 C 272.320312 860.785156 277.582031 860.648438 282.726562 858.996094 C 286.746094 857.722656 290.628906 856.046875 294.6875 854.929688 C 295.191406 854.789062 295.507812 855.230469 295.457031 855.613281 C 298.851562 858.46875 299.671875 864.914062 300.542969 868.796875 C 301.71875 874.035156 302.980469 879.441406 303.238281 884.800781 C 303.460938 889.515625 303.382812 895.585938 298.78125 898.496094 Z M 69.128906 60.132812 C 71.753906 60.105469 74.375 59.914062 76.980469 59.625 C 78.683594 59.441406 80.460938 58.675781 82.203125 58.289062 C 81.066406 59.625 82.695312 62.113281 83.335938 63.296875 C 84.585938 65.574219 86.09375 67.757812 87.699219 69.796875 C 87.863281 69.996094 88.074219 69.996094 88.238281 69.882812 C 88.355469 70.257812 88.898438 70.460938 89.097656 70.015625 C 90.304688 67.25 92.957031 65.289062 95.851562 64.566406 C 98.484375 63.914062 100.714844 66.035156 102.0625 68 C 104.550781 71.621094 105.679688 76.773438 105.074219 81.097656 C 104.355469 86.15625 100.871094 90.316406 100.171875 95.410156 C 99.457031 100.53125 101.015625 105.40625 101.015625 110.460938 C 101.015625 110.597656 101.0625 110.710938 101.140625 110.777344 C 101.140625 110.789062 101.148438 110.789062 101.148438 110.796875 C 101.257812 110.925781 101.417969 110.988281 101.621094 110.925781 C 101.640625 110.914062 101.652344 110.914062 101.667969 110.902344 C 105.738281 109.578125 108.167969 105.359375 109.960938 101.773438 C 112.363281 97.015625 113.863281 91.882812 114.867188 86.671875 C 115.652344 82.503906 116.335938 78.273438 116.367188 74.054688 C 120.238281 78.957031 125.777344 81.667969 131.726562 83.484375 C 135.253906 84.558594 138.761719 85.40625 142.449219 84.835938 C 143.574219 84.675781 144.707031 84.261719 145.804688 83.992188 C 146.144531 83.914062 146.644531 83.730469 147.167969 83.574219 C 147.476562 83.382812 147.796875 83.207031 148.121094 83.039062 C 148.433594 82.878906 148.757812 82.730469 149.078125 82.585938 C 149.144531 82.558594 149.203125 82.523438 149.265625 82.5 C 149.214844 82.460938 149.164062 82.425781 149.089844 82.40625 C 149.035156 82.394531 148.96875 82.375 148.90625 82.367188 C 145.714844 80.339844 142.964844 78.53125 141.160156 74.859375 C 139.507812 71.503906 138.597656 67.632812 137.332031 64.113281 C 134.726562 56.847656 132.210938 49.523438 128.511719 42.71875 C 125.433594 37.066406 121.34375 31.511719 115.34375 28.792969 C 110.585938 26.628906 105.542969 27.464844 102.679688 31.859375 C 99.136719 27.410156 94.863281 23.523438 90.019531 20.085938 C 84.867188 16.433594 79.140625 13.644531 73.164062 11.644531 C 67.882812 9.867188 61.148438 7.976562 55.523438 8.800781 C 47.992188 9.914062 41.382812 14.910156 35.855469 20.265625 C 21.390625 20.273438 10.113281 30.558594 4.703125 43.488281 C 1.808594 50.386719 0.367188 57.839844 0.625 65.324219 C 0.964844 74.621094 4.757812 82.941406 10.054688 90.421875 C 10.054688 90.429688 10.054688 90.429688 10.054688 90.429688 C 9.988281 90.59375 10.007812 90.785156 10.160156 90.9375 C 10.476562 91.253906 10.808594 91.574219 11.121094 91.898438 C 11.476562 92.257812 12.121094 91.824219 11.925781 91.390625 C 11.941406 91.34375 11.953125 91.296875 11.941406 91.238281 C 11.929688 91.1875 11.929688 91.152344 11.929688 91.113281 C 11.929688 91.09375 11.921875 91.082031 11.921875 91.066406 C 11.902344 90.957031 11.882812 90.882812 11.863281 90.804688 C 9.863281 82 12.738281 73.207031 16.484375 65.277344 C 18.273438 61.5 20.550781 58.230469 23.25 55.039062 C 25.011719 52.984375 27.664062 50.792969 28.730469 48.226562 C 35.945312 53.886719 44.710938 57.195312 53.71875 58.882812 C 58.796875 59.835938 63.976562 60.191406 69.128906 60.132812 Z M 69.128906 60.132812 " fill-opacity="1" fill-rule="nonzero"/><path fill="#005e38" d="M 86.636719 75.722656 C 86.980469 72.226562 88.667969 69.90625 90.445312 66.988281 C 90.699219 66.574219 91.355469 66.953125 91.097656 67.371094 C 89.410156 70.144531 87.71875 72.382812 87.390625 75.722656 C 87.34375 76.203125 86.585938 76.210938 86.636719 75.722656 Z M 96.945312 70.695312 C 97.03125 70.21875 96.296875 70.015625 96.214844 70.496094 C 95.976562 71.863281 95.871094 73.246094 95.648438 74.617188 C 95.503906 75.488281 95.175781 76.207031 95.175781 77.089844 C 95.175781 77.339844 95.414062 77.507812 95.65625 77.453125 C 98.964844 76.675781 99.03125 81.816406 98.265625 83.820312 C 98.089844 84.277344 98.824219 84.472656 98.992188 84.023438 C 99.953125 81.515625 99.464844 76.308594 95.972656 76.648438 C 96.058594 75.835938 96.34375 75.023438 96.476562 74.214844 C 96.667969 73.046875 96.742188 71.867188 96.945312 70.695312 Z M 20.828125 99.492188 C 26.292969 97.851562 32.5 93.671875 33.394531 87.613281 C 33.464844 87.132812 32.734375 86.929688 32.664062 87.410156 C 31.808594 93.214844 25.867188 97.191406 20.632812 98.761719 C 20.160156 98.902344 20.359375 99.632812 20.828125 99.492188 Z M 68.371094 82.226562 C 65.417969 83.742188 61.804688 83.988281 58.542969 83.933594 C 55.507812 83.886719 51.410156 83.460938 49.355469 80.921875 C 49.046875 80.539062 48.515625 81.082031 48.820312 81.457031 C 50.9375 84.078125 54.953125 84.523438 58.082031 84.675781 C 61.585938 84.847656 65.589844 84.507812 68.753906 82.882812 C 69.1875 82.660156 68.804688 82.007812 68.371094 82.226562 Z M 46.675781 85.617188 C 47.09375 85.871094 47.472656 85.21875 47.058594 84.960938 C 45.4375 83.96875 44.179688 82.667969 43.816406 80.746094 C 43.722656 80.265625 42.992188 80.46875 43.085938 80.945312 C 43.484375 83.054688 44.898438 84.527344 46.675781 85.617188 Z M 31.140625 100.65625 C 30.050781 100.945312 29.46875 102.292969 29.835938 103.660156 C 30.207031 105.027344 31.386719 105.894531 32.476562 105.601562 C 33.5625 105.304688 34.148438 103.960938 33.777344 102.59375 C 33.410156 101.230469 32.230469 100.359375 31.140625 100.65625 Z M 82.859375 145.925781 C 83.625 145.160156 84.339844 144.371094 85.003906 143.585938 C 86.847656 141.378906 88.324219 139.125 89.507812 136.921875 C 89.96875 136.058594 90.386719 135.203125 90.757812 134.359375 C 94.570312 125.835938 94.191406 118.601562 94.191406 118.601562 C 91.457031 134.488281 68.867188 143.195312 68.867188 143.195312 L 76.851562 150.972656 C 79.144531 149.378906 81.132812 147.683594 82.859375 145.925781 Z M 22.277344 47.566406 C 20.667969 48.945312 19.242188 50.34375 18.078125 52.132812 C 15.464844 56.160156 13.449219 60.527344 12.066406 65.121094 C 10.742188 69.511719 9.8125 73.964844 9.65625 78.5625 C 9.511719 82.675781 9.71875 87.019531 11.660156 90.738281 C 11.886719 91.167969 11.234375 91.554688 11.007812 91.121094 C 10.820312 90.757812 10.664062 90.386719 10.503906 90.015625 C 10.398438 90.003906 10.300781 89.949219 10.238281 89.835938 C 3.550781 78.289062 3.496094 64.390625 7.878906 52.003906 C 9.898438 46.3125 12.605469 40.714844 16.269531 35.894531 C 18.675781 32.726562 22.484375 28.695312 26.839844 29.414062 C 26.824219 29.085938 27.285156 28.949219 27.507812 29.191406 C 30.367188 26.140625 34.214844 23.789062 36.121094 20.007812 C 36.339844 19.570312 36.992188 19.953125 36.773438 20.390625 C 35.488281 22.941406 33.40625 24.832031 31.316406 26.710938 C 33.082031 25.992188 35.28125 26.019531 37.101562 26.101562 C 39.914062 26.230469 42.75 26.738281 45.445312 27.550781 C 48.550781 28.484375 51.335938 29.890625 54.277344 31.21875 C 57.457031 32.65625 60.753906 33.851562 64.140625 34.71875 C 71.039062 36.484375 77.957031 36.765625 84.996094 37.464844 C 88.378906 37.800781 91.808594 38.535156 95.207031 38.585938 C 98.152344 38.628906 101.09375 38.398438 104.039062 38.3125 C 103.984375 38.207031 103.976562 38.082031 104.019531 37.972656 C 94.453125 31.921875 83.628906 27.960938 73.195312 23.714844 C 67.867188 21.550781 62.710938 18.945312 57.367188 16.839844 C 54.792969 15.824219 52.285156 15.230469 49.5 15.195312 C 47.167969 15.164062 44.433594 14.847656 42.273438 15.914062 C 41.839844 16.128906 41.453125 15.476562 41.894531 15.257812 C 43.878906 14.28125 46.238281 14.386719 48.394531 14.421875 C 50.941406 14.460938 53.351562 14.601562 55.785156 15.445312 C 61.574219 17.457031 67.0625 20.410156 72.738281 22.71875 C 83.828125 27.226562 95.371094 31.382812 105.4375 37.980469 C 105.476562 37.980469 105.503906 37.976562 105.546875 37.980469 C 104.613281 36.101562 103.585938 34.273438 102.410156 32.519531 C 102.136719 32.113281 102.792969 31.734375 103.0625 32.136719 C 104.054688 33.613281 104.941406 35.144531 105.761719 36.714844 C 107.4375 33.160156 112.074219 35.152344 114.691406 36.796875 C 116.535156 37.957031 118.355469 39.304688 119.835938 40.914062 C 121.898438 43.164062 123.359375 46.128906 124.726562 48.832031 C 128.214844 55.742188 130.792969 63.078125 134.378906 69.9375 C 137.011719 74.984375 141.890625 82.429688 148.4375 81.835938 C 148.921875 81.792969 148.917969 82.550781 148.4375 82.59375 C 147.878906 82.644531 147.335938 82.625 146.800781 82.570312 C 146.773438 82.621094 146.742188 82.675781 146.691406 82.710938 C 146.652344 82.738281 146.613281 82.769531 146.570312 82.796875 C 146.539062 82.824219 146.507812 82.835938 146.476562 82.84375 C 146.441406 82.996094 146.328125 83.121094 146.128906 83.105469 C 140.222656 82.683594 134.203125 82.132812 128.859375 79.355469 C 126.1875 77.96875 123.765625 76.285156 121.636719 74.148438 C 119.847656 72.359375 118.199219 70.433594 116.402344 68.652344 C 116.710938 70.734375 116.863281 72.855469 116.78125 75.039062 C 116.761719 75.527344 116.003906 75.527344 116.023438 75.039062 C 116.164062 71.367188 115.648438 67.867188 114.820312 64.433594 C 115.003906 66.804688 114.992188 69.195312 114.707031 71.632812 C 114.117188 76.773438 112.855469 81.800781 111.125 86.671875 C 109.964844 89.945312 108.675781 93.265625 106.820312 96.210938 C 105.304688 98.605469 103.296875 101.277344 100.257812 101.558594 C 99.769531 101.601562 99.773438 100.84375 100.257812 100.800781 C 103.703125 100.480469 105.929688 96.503906 107.332031 93.757812 C 108.898438 90.683594 110.140625 87.4375 111.179688 84.148438 C 112.664062 79.460938 113.828125 74.597656 114.121094 69.675781 C 114.335938 66.109375 114.003906 62.667969 113.351562 59.226562 C 113.136719 58.539062 112.914062 57.855469 112.6875 57.167969 C 112.6875 57.144531 112.691406 57.128906 112.6875 57.105469 C 112.667969 57.027344 112.648438 56.945312 112.628906 56.863281 C 112.601562 56.738281 112.574219 56.613281 112.542969 56.492188 C 112.523438 56.410156 112.480469 56.359375 112.433594 56.3125 C 112.417969 56.304688 112.40625 56.289062 112.394531 56.28125 C 112.339844 56.246094 112.277344 56.222656 112.207031 56.222656 C 112.25 56.203125 112.300781 56.1875 112.355469 56.164062 C 112.214844 55.746094 112.078125 55.324219 111.9375 54.90625 C 111.925781 55.410156 111.898438 55.910156 111.855469 56.402344 C 111.804688 56.480469 111.78125 56.578125 111.808594 56.691406 C 111.816406 56.710938 111.820312 56.734375 111.828125 56.753906 C 111.742188 57.628906 111.640625 58.460938 111.566406 59.179688 C 111.363281 61.3125 110.894531 63.261719 110.269531 65.3125 C 109.9375 66.402344 107.121094 76.746094 105.1875 75.621094 C 104.765625 75.378906 105.144531 74.722656 105.570312 74.96875 C 106.128906 75.292969 109.636719 64.820312 109.933594 63.773438 C 110.449219 61.949219 110.734375 60.21875 110.886719 58.324219 C 111.03125 56.527344 111.410156 53.976562 110.898438 51.976562 C 110.882812 51.804688 110.863281 51.632812 110.835938 51.460938 C 110.835938 51.441406 110.832031 51.429688 110.828125 51.414062 C 110.796875 51.242188 110.761719 51.074219 110.714844 50.917969 C 110.710938 50.910156 110.710938 50.902344 110.710938 50.898438 C 110.664062 50.746094 110.601562 50.59375 110.53125 50.449219 C 110.507812 50.398438 110.480469 50.351562 110.457031 50.304688 C 110.386719 50.179688 110.316406 50.054688 110.226562 49.9375 C 110.242188 49.921875 110.265625 49.914062 110.28125 49.902344 C 109.289062 46.925781 108.234375 43.960938 106.988281 41.082031 C 106.757812 46.257812 105.375 51.273438 103.664062 56.148438 C 102.917969 58.265625 102.140625 60.445312 101.015625 62.394531 C 100.472656 63.335938 99.738281 64.671875 98.558594 64.898438 C 98.078125 64.988281 97.875 64.257812 98.359375 64.167969 C 99.792969 63.894531 100.707031 61.449219 101.226562 60.292969 C 102.09375 58.355469 102.820312 56.355469 103.472656 54.335938 C 104.890625 49.960938 106.046875 45.554688 106.238281 40.949219 C 104.523438 42.636719 103.203125 44.644531 101.546875 46.382812 C 99.675781 48.34375 97.46875 50.050781 95.265625 51.628906 C 93.070312 53.199219 90.808594 54.65625 88.402344 55.882812 C 86.269531 56.96875 84.054688 57.953125 82.078125 59.308594 C 81.671875 59.585938 81.292969 58.929688 81.695312 58.652344 C 83.675781 57.292969 85.890625 56.328125 88.019531 55.230469 C 90.417969 53.988281 92.707031 52.570312 94.882812 50.972656 C 97.335938 49.175781 99.863281 47.289062 101.8125 44.9375 C 102.59375 43.992188 103.335938 43.011719 104.136719 42.082031 C 104.621094 41.515625 106.175781 40.410156 105.816406 39.699219 C 105.800781 39.660156 105.796875 39.625 105.789062 39.589844 C 93.25 45.175781 79.613281 48.851562 65.800781 48.203125 C 58.84375 47.878906 52.511719 46.28125 46.085938 43.660156 C 39.429688 40.941406 32.304688 38.105469 25.015625 39.785156 C 24.539062 39.894531 24.335938 39.164062 24.8125 39.054688 C 31.316406 37.558594 37.75 39.519531 43.78125 41.917969 C 46.890625 43.152344 49.957031 44.582031 53.183594 45.492188 C 56.636719 46.464844 60.179688 47.089844 63.757812 47.332031 C 78.042969 48.300781 92.054688 44.824219 105.058594 39.085938 C 105.050781 39.070312 105.039062 39.058594 105.035156 39.042969 C 101.757812 39.105469 98.480469 39.457031 95.203125 39.347656 C 91.792969 39.230469 88.390625 38.542969 84.992188 38.226562 C 78.773438 37.648438 72.582031 37.441406 66.460938 36.0625 C 63.269531 35.34375 60.113281 34.4375 57.074219 33.230469 C 53.933594 31.976562 50.992188 30.269531 47.8125 29.132812 C 44.660156 28.003906 41.335938 27.132812 37.988281 26.914062 C 35.792969 26.769531 32.964844 26.574219 30.996094 27.703125 C 30.753906 27.84375 30.53125 27.6875 30.457031 27.484375 C 29.53125 28.324219 28.617188 29.183594 27.796875 30.113281 C 27.769531 30.175781 27.726562 30.226562 27.671875 30.265625 C 27.054688 30.976562 26.488281 31.726562 26.003906 32.550781 C 24.226562 35.59375 23.800781 40.488281 25.855469 43.542969 C 26.984375 45.222656 29.089844 46.785156 29.636719 48.804688 C 29.644531 48.84375 29.644531 48.882812 29.640625 48.921875 C 29.398438 48.75 29.121094 48.621094 28.8125 48.550781 C 28.792969 48.546875 28.773438 48.550781 28.75 48.546875 C 28.085938 46.867188 26.429688 45.667969 25.351562 44.152344 C 25.058594 44.453125 24.425781 45.574219 24.203125 45.796875 C 23.589844 46.414062 22.9375 46.996094 22.277344 47.566406 Z M 129.238281 78.703125 C 132.664062 80.386719 136.253906 81.234375 139.9375 81.742188 C 137.9375 81.007812 136.027344 80.035156 134.289062 78.800781 C 130.523438 76.128906 127.347656 72.734375 124.59375 69.042969 C 121.480469 64.875 118.730469 60.453125 116.632812 55.6875 C 115.40625 52.894531 114.34375 49.902344 112.738281 47.296875 C 111.558594 45.382812 110.402344 42.828125 108.191406 41.957031 C 109.605469 45.390625 110.785156 48.921875 111.914062 52.4375 C 112.269531 53.539062 112.628906 54.632812 112.984375 55.726562 C 113.007812 55.722656 113.023438 55.710938 113.046875 55.710938 C 113.417969 56.949219 113.804688 58.1875 114.132812 59.4375 C 114.152344 59.511719 114.191406 59.566406 114.234375 59.605469 C 115.03125 62.175781 115.726562 64.753906 116.199219 67.382812 C 120.484375 71.40625 123.8125 76.035156 129.238281 78.703125 Z M 106.191406 37.582031 C 106.769531 38.738281 107.3125 39.917969 107.824219 41.113281 C 107.890625 41.089844 107.957031 41.078125 108.042969 41.105469 C 109.90625 41.65625 111.105469 43.21875 112.101562 44.804688 C 113.597656 47.195312 114.839844 49.679688 115.964844 52.269531 C 118.140625 57.265625 120.527344 61.996094 123.664062 66.46875 C 126.617188 70.6875 130.007812 74.835938 134.238281 77.839844 C 136.335938 79.324219 138.617188 80.632812 141.101562 81.347656 C 142.210938 81.667969 143.519531 82.070312 144.714844 82.09375 C 141.144531 80.808594 138.261719 77.421875 136.207031 74.417969 C 132.398438 68.839844 130.054688 62.382812 127.34375 56.234375 C 125.878906 52.902344 124.371094 49.574219 122.566406 46.410156 C 121.230469 44.070312 119.882812 41.816406 117.824219 40.046875 C 115.597656 38.136719 107.976562 32.289062 106.257812 37.46875 C 106.242188 37.515625 106.214844 37.546875 106.191406 37.582031 Z M 22.144531 46.679688 C 22.953125 45.972656 23.921875 45.214844 24.480469 44.277344 C 24.625 44.039062 24.703125 43.835938 24.824219 43.667969 C 24.75 43.539062 24.769531 43.414062 24.84375 43.320312 C 24.730469 43.085938 24.628906 42.847656 24.546875 42.59375 C 23.574219 39.453125 23.519531 36.230469 24.804688 33.167969 C 25.273438 32.054688 25.917969 31.066406 26.667969 30.148438 C 21.828125 29.386719 17.617188 35.003906 15.316406 38.539062 C 12.214844 43.304688 9.699219 48.546875 8.027344 53.984375 C 4.699219 64.789062 4.597656 76.371094 9.414062 86.601562 C 8.851562 83.96875 8.769531 81.203125 8.894531 78.558594 C 9.117188 73.902344 9.941406 69.367188 11.335938 64.914062 C 12.902344 59.902344 15.050781 54.976562 18.15625 50.710938 C 19.296875 49.148438 20.699219 47.949219 22.144531 46.679688 Z M 61.203125 125.796875 C 61.957031 124.425781 62.566406 122.980469 63.347656 121.617188 C 64.417969 119.75 66.074219 118.433594 67.933594 117.40625 C 70.492188 115.996094 75.125 114.371094 77.769531 116.367188 C 78.160156 116.660156 78.535156 116 78.152344 115.710938 C 75.472656 113.683594 71.214844 115.101562 68.496094 116.289062 C 66.660156 117.089844 64.984375 118.289062 63.683594 119.8125 C 62.289062 121.445312 61.574219 123.554688 60.550781 125.417969 C 60.3125 125.84375 60.964844 126.222656 61.203125 125.796875 Z M 57.664062 90.25 C 56.574219 90.542969 55.988281 91.886719 56.359375 93.253906 C 56.726562 94.621094 57.910156 95.488281 58.996094 95.195312 C 60.085938 94.898438 60.671875 93.554688 60.300781 92.1875 C 59.933594 90.824219 58.753906 89.953125 57.664062 90.25 Z M 37.96875 86.464844 C 37.738281 86.03125 37.085938 86.414062 37.3125 86.847656 C 40.554688 92.996094 42.8125 99.992188 44.335938 106.757812 C 45.082031 110.0625 45.933594 113.359375 47.625 116.320312 C 48.605469 118.039062 50.125 118.449219 51.992188 118.46875 C 52.480469 118.472656 52.480469 117.714844 51.992188 117.710938 C 50.855469 117.699219 49.835938 117.632812 48.960938 116.835938 C 47.917969 115.886719 47.335938 114.136719 46.835938 112.882812 C 45.609375 109.808594 45.074219 106.46875 44.316406 103.261719 C 43.601562 100.242188 42.390625 97.246094 41.335938 94.328125 C 40.371094 91.644531 39.300781 88.988281 37.96875 86.464844 Z M 181.121094 228.894531 C 181.152344 228.992188 181.207031 229.054688 181.277344 229.101562 C 181.285156 229.105469 181.289062 229.109375 181.296875 229.117188 C 181.3125 229.125 181.328125 229.128906 181.339844 229.132812 C 181.410156 229.164062 181.492188 229.179688 181.585938 229.15625 C 187.675781 227.578125 194.347656 228.277344 200.128906 225.53125 C 200.570312 225.320312 200.183594 224.667969 199.746094 224.875 C 194.15625 227.53125 187.671875 226.902344 181.75 228.339844 C 176.171875 208.867188 169.347656 189.789062 165.101562 169.941406 C 160.707031 149.375 159.242188 128.082031 163.914062 107.429688 C 164.023438 106.953125 163.292969 106.75 163.183594 107.226562 C 158.636719 127.328125 159.898438 147.960938 163.933594 168.03125 C 168.105469 188.761719 175.328125 208.609375 181.121094 228.894531 Z M 178.925781 217.898438 C 186.660156 218.507812 194.441406 216.839844 201.839844 214.707031 C 209.894531 212.382812 217.644531 209.15625 225.320312 205.824219 C 233.898438 202.101562 242.097656 197.851562 249.839844 192.597656 C 253.289062 190.257812 256.652344 187.804688 260.324219 185.824219 C 262.914062 184.425781 265.800781 183.035156 267.886719 180.878906 C 267.730469 180.589844 267.617188 180.289062 267.519531 179.976562 C 267.429688 179.980469 267.34375 179.992188 267.253906 179.992188 C 267.214844 180.121094 267.222656 180.269531 267.316406 180.371094 C 265.171875 182.570312 262.167969 183.96875 259.507812 185.402344 C 255.988281 187.304688 252.753906 189.695312 249.453125 191.945312 C 242.117188 196.953125 234.335938 201.019531 226.226562 204.605469 C 218.585938 207.984375 210.863281 211.167969 202.867188 213.609375 C 195.175781 215.957031 187 217.777344 178.917969 217.140625 C 178.4375 217.101562 178.4375 217.859375 178.925781 217.898438 Z M 63.113281 278.753906 C 62.929688 278.914062 62.882812 279.214844 63.160156 279.347656 C 63.3125 279.40625 63.457031 279.484375 63.59375 279.574219 C 63.628906 279.589844 63.652344 279.59375 63.683594 279.601562 C 63.914062 279.722656 64.242188 279.582031 64.242188 279.277344 C 64.242188 279.191406 64.242188 279.105469 64.242188 279.019531 C 64.242188 278.808594 64.101562 278.683594 63.9375 278.660156 C 59.082031 270.550781 54.339844 262.363281 50.453125 253.734375 C 46.390625 244.730469 43.230469 235.242188 40.730469 225.691406 C 38.234375 216.148438 36.597656 206.40625 35.242188 196.644531 C 34.5625 191.753906 34.164062 186.855469 33.871094 181.929688 C 33.578125 177.03125 34.246094 172.175781 34.007812 167.292969 C 33.984375 166.804688 33.226562 166.800781 33.246094 167.292969 C 33.488281 172.175781 32.824219 177.03125 33.117188 181.929688 C 33.394531 186.683594 33.773438 191.410156 34.414062 196.128906 C 35.773438 206.144531 37.484375 216.101562 40.003906 225.894531 C 42.421875 235.300781 45.613281 244.574219 49.511719 253.476562 C 51.796875 258.699219 54.445312 263.753906 57.25 268.722656 C 57.152344 268.78125 57.078125 268.875 57.082031 269.027344 C 57.097656 270.546875 52.097656 272.175781 51 272.652344 C 47.996094 273.945312 45.039062 275.335938 41.984375 276.507812 C 37.980469 278.039062 33.8125 279.386719 29.621094 280.28125 C 27.664062 280.703125 25.679688 281.011719 23.707031 281.351562 C 23.015625 281.46875 21.226562 281.320312 20.714844 281.921875 C 20.597656 282.054688 20.5625 282.222656 20.652344 282.382812 C 20.683594 282.433594 20.714844 282.484375 20.746094 282.539062 C 20.988281 282.960938 21.640625 282.582031 21.398438 282.160156 C 21.816406 282.886719 25.351562 281.832031 25.914062 281.738281 C 28.101562 281.363281 30.277344 280.953125 32.429688 280.40625 C 36.847656 279.285156 41.269531 277.71875 45.457031 275.921875 C 48.195312 274.746094 50.949219 273.550781 53.652344 272.292969 C 54.65625 271.824219 57.171875 270.90625 57.730469 269.570312 C 59.480469 272.65625 61.289062 275.710938 63.113281 278.753906 Z M 92.371094 172.28125 C 98.140625 172.335938 103.816406 169.78125 108.621094 166.796875 C 114.710938 163.015625 119.917969 157.800781 124.039062 151.960938 C 129.390625 144.386719 135.605469 130.363281 127.539062 122.421875 C 123.371094 118.597656 117.585938 118.640625 112.359375 120.039062 C 112.652344 120.152344 112.925781 120.347656 113.175781 120.5625 C 118.050781 119.351562 123.234375 119.5 127.003906 122.957031 C 133.050781 128.914062 130.238281 138.871094 127.003906 145.5 C 122.429688 154.875 114.457031 162.945312 105.28125 167.855469 C 98.855469 171.289062 89 174.046875 83.230469 167.945312 C 79.855469 164.378906 79.628906 159.351562 80.683594 154.507812 C 80.417969 154.382812 80.195312 154.226562 80.015625 154.023438 C 79.460938 156.726562 79.304688 159.480469 79.738281 162.191406 C 80.765625 168.617188 86.121094 172.222656 92.371094 172.28125 Z M 113.015625 363.125 C 110.449219 364.738281 107.851562 366.308594 105.234375 367.847656 C 103.835938 368.667969 102.425781 369.472656 101.015625 370.269531 C 100 370.84375 100 370.992188 99.386719 371.6875 C 99.0625 372.054688 99.597656 372.59375 99.921875 372.222656 C 101.25 370.707031 103.238281 369.878906 105.011719 368.851562 C 107.632812 367.328125 110.226562 365.75 112.800781 364.152344 C 117.808594 361.039062 122.734375 357.785156 127.613281 354.46875 C 137.449219 347.777344 147.058594 340.761719 156.6875 333.78125 C 165.242188 327.582031 173.933594 321.574219 182.226562 315.023438 C 189.910156 308.953125 197.417969 302.65625 205.386719 296.953125 C 213.359375 291.246094 221.875 286.214844 231.148438 282.933594 C 236.050781 281.199219 241.152344 280.050781 246.320312 279.460938 C 248.96875 279.160156 251.664062 279.675781 254.339844 279.953125 C 254.332031 279.816406 254.332031 279.675781 254.320312 279.535156 C 254.316406 279.46875 254.304688 279.371094 254.289062 279.269531 C 251.429688 279.007812 248.53125 278.453125 245.71875 278.773438 C 241.058594 279.300781 236.476562 280.375 232.023438 281.835938 C 223.167969 284.738281 215 289.40625 207.347656 294.65625 C 199.539062 300.003906 192.238281 306.050781 184.859375 311.960938 C 176.523438 318.640625 167.832031 324.785156 159.183594 331.042969 C 148.96875 338.429688 138.800781 345.878906 128.40625 353.007812 C 123.34375 356.480469 118.21875 359.863281 113.015625 363.125 Z M 85.964844 350.28125 C 86.019531 344.195312 87.628906 338.671875 90.488281 333.320312 C 91.816406 330.84375 93.457031 328.632812 95.542969 326.738281 C 97.5625 324.902344 99.964844 323.542969 102.023438 321.75 C 102.390625 321.429688 101.855469 320.894531 101.488281 321.214844 C 99.273438 323.148438 96.722656 324.644531 94.542969 326.628906 C 92.40625 328.570312 90.867188 331.007812 89.519531 333.53125 C 86.730469 338.753906 85.261719 344.359375 85.210938 350.28125 C 85.203125 350.773438 85.960938 350.773438 85.964844 350.28125 Z M 277.070312 258.050781 C 276.808594 258.28125 277.003906 258.609375 277.269531 258.667969 C 277.613281 260.621094 277.921875 262.570312 278.132812 264.523438 C 278.425781 267.308594 278.660156 270.09375 278.871094 272.882812 C 278.816406 273.070312 278.761719 273.253906 278.742188 273.441406 C 278.714844 273.628906 278.8125 273.769531 278.945312 273.851562 C 279.007812 274.664062 279.074219 275.480469 279.128906 276.292969 C 279.269531 278.257812 279.394531 280.21875 279.515625 282.179688 C 279.574219 283.160156 279.636719 284.140625 279.699219 285.121094 C 279.742188 285.933594 280.074219 287.253906 279.753906 288.03125 C 279.566406 288.484375 280.304688 288.679688 280.484375 288.230469 C 280.914062 287.179688 280.472656 285.488281 280.40625 284.386719 C 280.273438 282.179688 280.136719 279.96875 279.988281 277.765625 C 279.878906 276.175781 279.761719 274.585938 279.640625 272.996094 C 280.011719 271.933594 280.863281 270.988281 281.617188 270.214844 C 282.441406 269.375 284.285156 267.691406 285.546875 268.5625 C 285.949219 268.84375 286.328125 268.183594 285.925781 267.910156 C 284.617188 267.003906 283.011719 268.074219 281.960938 268.890625 C 281.125 269.539062 280.179688 270.457031 279.527344 271.480469 C 279.355469 269.40625 279.171875 267.332031 278.960938 265.257812 C 278.722656 262.863281 278.410156 260.492188 278.039062 258.128906 C 278.75 257.332031 279.234375 256.34375 279.777344 255.4375 C 280.5 254.226562 281.46875 253.179688 281.996094 251.851562 C 282.175781 251.394531 281.441406 251.199219 281.265625 251.652344 C 280.820312 252.773438 280.007812 253.726562 279.335938 254.714844 C 278.816406 255.484375 278.417969 256.359375 277.882812 257.125 C 277.707031 256.054688 277.519531 254.984375 277.3125 253.914062 C 276.546875 249.941406 275.742188 245.964844 275.695312 241.898438 C 275.6875 241.410156 274.929688 241.40625 274.933594 241.898438 C 274.996094 247.296875 276.179688 252.636719 277.144531 257.980469 C 277.121094 258.003906 277.097656 258.03125 277.070312 258.050781 Z M 174.046875 431.996094 C 158.339844 433.558594 142.476562 434.433594 126.6875 434.082031 C 126.117188 434.070312 125.550781 434.054688 124.980469 434.03125 C 124.492188 434.015625 124.492188 434.769531 124.980469 434.792969 C 136.683594 435.261719 148.480469 434.703125 160.152344 433.914062 C 186.53125 432.132812 212.867188 428.136719 238.378906 421.128906 C 267.460938 413.140625 296.09375 400.925781 319.441406 381.496094 C 324.941406 376.917969 330.082031 371.917969 334.804688 366.542969 C 335.125 366.175781 334.589844 365.640625 334.269531 366.007812 C 313.804688 389.3125 285.804688 404.492188 256.839844 414.605469 C 230.160156 423.917969 202.117188 429.199219 174.046875 431.996094 Z M 344.667969 403.335938 C 344.582031 406.453125 340.242188 408.253906 337.859375 409.246094 C 333.375 411.101562 328.519531 412.113281 323.726562 412.796875 C 318.71875 413.515625 313.566406 413.785156 308.523438 413.257812 C 305.449219 412.933594 300.761719 412.277344 299.136719 409.210938 C 298.910156 408.777344 298.253906 409.164062 298.484375 409.59375 C 300.097656 412.644531 304.367188 413.445312 307.449219 413.882812 C 312.75 414.632812 318.25 414.3125 323.535156 413.582031 C 328.804688 412.859375 334.105469 411.714844 339 409.574219 C 341.511719 408.476562 345.335938 406.539062 345.421875 403.339844 C 345.441406 402.847656 344.683594 402.847656 344.667969 403.335938 Z M 195.195312 607.96875 C 195.203125 608.003906 195.226562 608.035156 195.230469 608.074219 C 195.246094 608.128906 195.25 608.1875 195.257812 608.242188 C 195.261719 608.257812 195.265625 608.269531 195.269531 608.28125 C 195.414062 608.21875 195.558594 608.152344 195.710938 608.101562 C 195.828125 608.0625 195.953125 608.039062 196.070312 608.03125 C 196.011719 604.25 197.632812 600.363281 198.710938 596.824219 C 200.214844 591.898438 201.472656 586.84375 202.636719 581.824219 C 205.179688 570.839844 208.28125 560.101562 211.753906 549.367188 C 215.207031 538.710938 218.6875 528.074219 222.007812 517.375 C 223.566406 512.378906 225.160156 507.390625 227.074219 502.523438 C 228.992188 497.632812 231.84375 492.980469 232.988281 487.820312 C 233.09375 487.34375 232.363281 487.148438 232.257812 487.625 C 232.203125 487.871094 232.128906 488.113281 232.066406 488.359375 C 228.855469 488.570312 225.578125 488.167969 222.371094 487.378906 C 222.121094 485.992188 221.179688 483.863281 221.039062 483.445312 C 219.777344 479.625 218.441406 475.828125 217.113281 472.03125 C 213.542969 461.832031 210.84375 451.101562 210.769531 440.226562 C 210.765625 439.738281 210.007812 439.738281 210.011719 440.226562 C 210.078125 450.472656 212.398438 460.867188 215.777344 470.507812 C 217.035156 474.09375 218.289062 477.679688 219.511719 481.269531 C 220.035156 482.820312 220.554688 484.367188 221.042969 485.921875 C 221.167969 486.324219 221.292969 486.730469 221.40625 487.140625 C 217.976562 486.210938 214.648438 484.859375 211.589844 483.359375 C 211.15625 483.140625 210.769531 483.792969 211.207031 484.007812 C 214.476562 485.617188 218.039062 487.054688 221.703125 488.003906 C 221.484375 488.285156 221.820312 488.773438 222.199219 488.5625 C 222.316406 488.492188 222.378906 488.363281 222.40625 488.179688 C 225.53125 488.933594 228.71875 489.3125 231.855469 489.128906 C 230.550781 493.695312 228.089844 497.933594 226.335938 502.328125 C 224.390625 507.1875 222.828125 512.191406 221.269531 517.183594 C 217.871094 528.113281 214.3125 538.988281 210.789062 549.875 C 207.308594 560.609375 204.269531 571.363281 201.726562 582.359375 C 201.03125 585.355469 200.28125 588.355469 199.476562 591.339844 C 199.3125 591.367188 199.160156 591.480469 199.140625 591.6875 C 198.707031 596.433594 194.832031 600.457031 191.871094 603.882812 C 188.796875 607.421875 186.027344 611.105469 183.21875 614.851562 C 176.527344 623.808594 169.765625 632.78125 164.476562 642.664062 C 162.1875 646.929688 159.816406 651.535156 159.199219 656.378906 C 158.554688 661.4375 159.59375 666.65625 160.460938 671.632812 C 162.582031 683.75 164.171875 696.003906 165.597656 708.230469 C 168.242188 730.953125 169.871094 753.769531 172.191406 776.515625 C 173.339844 787.761719 174.152344 799.019531 175.617188 810.242188 C 176.34375 815.792969 177.117188 821.34375 177.839844 826.890625 C 177.957031 827.820312 178.65625 834.339844 179.203125 838.566406 C 179.109375 838.59375 179.011719 838.621094 178.917969 838.65625 C 178.597656 838.757812 178.277344 838.851562 177.960938 838.945312 C 168.964844 841.535156 159.574219 842.460938 150.125 842.5625 C 145.265625 842.613281 140.421875 843.03125 135.558594 843 C 130.972656 842.972656 125.550781 842.839844 121.679688 840.078125 C 121.277344 839.804688 120.890625 840.453125 121.292969 840.738281 C 124.863281 843.28125 129.683594 843.578125 133.933594 843.726562 C 139.328125 843.917969 144.722656 843.402344 150.125 843.3125 C 159.894531 843.152344 169.523438 842.207031 178.773438 839.46875 C 178.949219 839.417969 179.128906 839.359375 179.304688 839.3125 C 179.515625 839.253906 179.738281 839.183594 179.949219 839.113281 C 180.042969 839.082031 180.140625 839.054688 180.230469 839.023438 C 182.722656 838.230469 185.179688 837.308594 187.601562 836.234375 C 187.644531 836.234375 187.6875 836.234375 187.738281 836.226562 C 187.832031 836.199219 187.90625 836.175781 187.988281 836.140625 C 187.972656 836.050781 187.957031 835.957031 187.957031 835.863281 L 187.957031 835.253906 C 185.375 836.433594 182.734375 837.441406 180.066406 838.296875 C 180.011719 838.316406 179.953125 838.335938 179.898438 838.351562 C 179.882812 837.890625 179.855469 837.441406 179.808594 837.019531 C 179.632812 835.328125 179.429688 833.640625 179.234375 831.949219 C 178.503906 825.921875 177.664062 819.902344 176.859375 813.878906 C 175.222656 801.6875 174.253906 789.480469 173.023438 777.25 C 170.53125 752.496094 168.65625 727.707031 165.742188 703.007812 C 164.414062 691.835938 162.777344 680.65625 160.867188 669.570312 C 159.96875 664.308594 159.160156 658.800781 160.496094 653.539062 C 161.792969 648.464844 164.777344 643.472656 167.398438 638.980469 C 172.808594 629.710938 179.417969 621.210938 185.816406 612.628906 C 188.609375 608.875 191.65625 605.386719 194.628906 601.78125 C 195.660156 600.53125 196.707031 599.207031 197.601562 597.785156 C 196.558594 601.085938 195.210938 604.632812 195.292969 608.128906 C 195.269531 608.074219 195.230469 608.019531 195.195312 607.96875 Z M 124.390625 465.625 C 123.925781 465.769531 124.125 466.5 124.59375 466.359375 C 128.746094 465.066406 131.871094 461.667969 134.449219 458.324219 C 137.257812 454.691406 139.554688 450.632812 141.496094 446.472656 C 141.640625 446.160156 141.316406 445.710938 140.976562 445.953125 C 140.535156 446.105469 140.09375 446.253906 139.652344 446.40625 C 139.164062 446.425781 139.160156 447.183594 139.652344 447.164062 C 139.925781 447.15625 140.144531 447.125 140.351562 447.078125 C 138.679688 450.535156 136.753906 453.867188 134.507812 456.984375 C 131.96875 460.519531 128.679688 464.296875 124.390625 465.625 Z M 302.65625 886.316406 C 303.015625 887.167969 295.28125 890.300781 294.527344 890.613281 C 289.585938 892.664062 283.976562 892.574219 278.730469 892.191406 C 273.207031 891.789062 267.742188 891.589844 262.332031 892.964844 C 259.605469 893.65625 256.957031 894.535156 254.183594 895.097656 C 251.042969 895.726562 247.855469 896.148438 244.675781 896.546875 C 239.828125 897.160156 234.957031 897.582031 230.078125 897.816406 C 226.652344 888.980469 226.558594 878.367188 219.878906 871.082031 C 219.550781 870.71875 219.011719 871.261719 219.347656 871.613281 C 225.734375 878.59375 225.972656 888.773438 229.085938 897.332031 L 228.589844 897.882812 C 221.628906 898.160156 214.652344 898.074219 207.699219 897.582031 C 196.882812 896.804688 185.328125 896.25 175.289062 891.773438 C 174.574219 891.457031 173.878906 891.097656 173.191406 890.726562 C 173.027344 890.640625 172.871094 890.6875 172.765625 890.777344 C 172.761719 890.71875 172.753906 890.652344 172.753906 890.585938 C 172.578125 886.722656 174.949219 884.382812 178.238281 882.871094 C 180.609375 881.785156 183.109375 880.984375 185.636719 880.371094 C 187.730469 879.863281 190.253906 879.597656 192.140625 878.496094 C 192.5625 878.261719 192.183594 877.601562 191.757812 877.847656 C 189.472656 879.175781 186.257812 879.417969 183.71875 880.070312 C 180.894531 880.804688 177.808594 881.949219 175.371094 883.585938 C 172.9375 885.21875 171.996094 887.746094 171.988281 890.589844 C 171.988281 891.167969 172.042969 891.726562 172.15625 892.273438 C 167.796875 892.5625 163.472656 890.816406 159.257812 889.949219 C 154.503906 888.980469 150.070312 889.726562 145.449219 890.9375 C 135.835938 893.46875 126.082031 893.710938 116.242188 893.277344 C 116.265625 890.957031 113.488281 884.363281 113.214844 883.648438 C 112.113281 880.808594 110.914062 878.003906 109.550781 875.285156 C 108.691406 873.582031 107.71875 871.417969 106.117188 870.269531 C 105.71875 869.980469 105.339844 870.640625 105.734375 870.917969 C 107.121094 871.917969 107.972656 873.882812 108.734375 875.355469 C 109.976562 877.746094 111.035156 880.234375 112.042969 882.730469 C 112.960938 885.007812 113.8125 887.324219 114.570312 889.667969 C 114.835938 890.496094 115.085938 891.335938 115.296875 892.1875 C 115.386719 892.535156 115.386719 893.03125 115.503906 893.242188 C 114.464844 893.195312 113.429688 893.136719 112.386719 893.082031 C 101.1875 892.421875 89.789062 892.136719 78.691406 890.425781 C 75.351562 889.914062 72.007812 889.371094 68.703125 888.632812 C 65.722656 887.964844 61.652344 887.195312 59.578125 884.726562 C 59.265625 884.351562 58.726562 884.886719 59.046875 885.253906 C 60.835938 887.390625 64.035156 888.207031 66.605469 888.898438 C 70.066406 889.835938 73.628906 890.375 77.160156 890.945312 C 88.089844 892.699219 99.226562 892.976562 110.261719 893.703125 C 112.027344 893.820312 113.804688 893.929688 115.589844 894.023438 C 115.667969 894.074219 115.765625 894.101562 115.878906 894.074219 C 115.902344 894.066406 115.921875 894.050781 115.945312 894.039062 C 124.976562 894.515625 134.195312 894.539062 142.949219 892.375 C 145.648438 891.707031 148.300781 890.910156 151.035156 890.445312 C 153.917969 889.960938 156.792969 890.222656 159.636719 890.800781 C 163.449219 891.585938 167.292969 893.058594 171.21875 893.058594 C 171.597656 893.058594 171.976562 893.042969 172.355469 893.007812 C 172.371094 893.070312 172.394531 893.125 172.414062 893.1875 C 172.609375 893.765625 172.902344 894.308594 173.273438 894.828125 C 174.136719 896.019531 175.417969 896.722656 176.410156 897.765625 C 176.605469 897.855469 176.789062 897.960938 176.980469 898.066406 C 177.050781 897.957031 177.132812 897.847656 177.230469 897.753906 C 177.089844 897.539062 176.953125 897.328125 176.847656 897.105469 C 176.390625 896.617188 175.902344 896.171875 175.34375 895.738281 C 174.253906 894.894531 173.574219 893.992188 173.175781 892.894531 C 173.09375 892.667969 173.023438 892.425781 172.972656 892.183594 C 172.90625 891.925781 172.859375 891.660156 172.820312 891.382812 L 172.820312 891.378906 C 181.695312 896.105469 192.097656 897.042969 201.957031 897.820312 C 211.152344 898.542969 220.253906 898.886719 229.402344 898.542969 C 229.535156 898.597656 229.683594 898.628906 229.847656 898.628906 C 229.9375 898.628906 230.03125 898.589844 230.105469 898.515625 C 230.109375 898.515625 230.109375 898.511719 230.113281 898.511719 C 233 898.394531 235.890625 898.207031 238.792969 897.9375 C 244.457031 897.410156 250.148438 896.714844 255.71875 895.539062 C 258.503906 894.953125 261.175781 893.976562 263.945312 893.339844 C 266.992188 892.640625 270.136719 892.546875 273.246094 892.628906 C 278.910156 892.78125 284.449219 893.542969 290.09375 892.625 C 293.523438 892.066406 296.710938 890.585938 299.804688 889.050781 C 300.652344 888.632812 303.929688 887.359375 303.3125 885.925781 C 303.121094 885.488281 302.464844 885.875 302.65625 886.316406 Z M 339.363281 409.910156 C 342.753906 437.617188 339.277344 465.433594 332.671875 492.414062 C 326.097656 519.269531 317.082031 545.535156 306.113281 570.902344 C 295.507812 595.445312 283.507812 619.359375 273.289062 644.070312 C 270.878906 649.902344 268.636719 655.625 267.871094 661.941406 C 267.085938 668.324219 267.328125 674.730469 268.0625 681.113281 C 269.550781 694.097656 272.878906 706.8125 274.78125 719.734375 C 278.210938 743.070312 280.074219 766.703125 281.972656 790.214844 C 282.867188 801.347656 283.503906 812.546875 285.609375 823.535156 C 286.433594 827.851562 287.050781 832.214844 287.957031 836.515625 C 288.355469 838.359375 288.71875 840.214844 288.945312 842.089844 C 288.953125 842.140625 288.960938 842.195312 288.964844 842.257812 C 286.492188 842.859375 284.003906 843.464844 281.5 844.046875 C 281.257812 844.097656 281.003906 844.15625 280.761719 844.214844 C 264.445312 847.917969 247.683594 850.351562 231.761719 844.078125 C 231.304688 843.90625 231.117188 844.636719 231.566406 844.8125 C 247.347656 851.035156 263.976562 848.75 280.175781 845.117188 C 280.359375 845.078125 280.535156 845.039062 280.71875 844.996094 L 280.726562 844.996094 C 280.816406 844.96875 280.910156 844.957031 281 844.933594 C 281.242188 844.875 281.496094 844.820312 281.738281 844.765625 C 286.773438 843.609375 291.761719 842.34375 296.675781 841.179688 C 296.890625 841.078125 297.144531 841.023438 297.433594 841.023438 C 297.4375 841.023438 297.4375 841.023438 297.441406 841.023438 C 297.710938 840.933594 297.996094 840.875 298.277344 840.832031 C 298.320312 840.808594 298.367188 840.789062 298.410156 840.769531 C 298.429688 840.761719 298.445312 840.753906 298.460938 840.742188 C 298.414062 840.503906 298.378906 840.265625 298.359375 840.027344 C 298.3125 840.019531 298.257812 840.019531 298.199219 840.035156 C 295.429688 840.679688 292.632812 841.363281 289.8125 842.054688 C 289.621094 840.675781 289.292969 839.34375 289.089844 838.308594 C 288.09375 833.054688 287.183594 827.777344 286.171875 822.519531 C 283.4375 808.222656 283.003906 793.402344 281.804688 778.898438 C 280.621094 764.515625 279.171875 750.140625 277.574219 735.796875 C 276.0625 722.28125 273.789062 708.984375 271.191406 695.636719 C 268.667969 682.652344 266.570312 669.140625 269.71875 656.070312 C 271.320312 649.476562 274.449219 643.144531 277.109375 636.933594 C 279.761719 630.742188 282.511719 624.597656 285.304688 618.46875 C 296.386719 594.113281 308.136719 570.023438 317.40625 544.890625 C 325.410156 523.207031 332.105469 500.730469 336.644531 478.0625 C 341.140625 455.652344 342.90625 432.644531 340.117188 409.910156 C 340.058594 409.429688 339.300781 409.421875 339.363281 409.910156 Z M 339.363281 409.910156 " fill-opacity="1" fill-rule="nonzero"/></svg>