<svg xmlns="http://www.w3.org/2000/svg" xmlns:xlink="http://www.w3.org/1999/xlink" width="500" zoomAndPan="magnify" viewBox="0 0 375 374.999991" height="500" preserveAspectRatio="xMidYMid meet" version="1.0"><defs><filter x="0%" y="0%" width="100%" height="100%" id="995a963577"><feColorMatrix values="0 0 0 0 1 0 0 0 0 1 0 0 0 0 1 0 0 0 1 0" color-interpolation-filters="sRGB"/></filter><mask id="887ee5155d"><g filter="url(#995a963577)"><rect x="-37.5" width="450" fill="#000000" y="-37.499999" height="449.999989" fill-opacity="0.2"/></g></mask><clipPath id="b84fd638a3"><path d="M 0.71875 0.441406 L 89 0.441406 L 89 75.800781 L 0.71875 75.800781 Z M 0.71875 0.441406 " clip-rule="nonzero"/></clipPath><clipPath id="e6edc9e2b5"><rect x="0" width="90" y="0" height="76"/></clipPath><mask id="e43c0a4091"><g filter="url(#995a963577)"><rect x="-37.5" width="450" fill="#000000" y="-37.499999" height="449.999989" fill-opacity="0.2"/></g></mask><clipPath id="0b2fe55e73"><path d="M 0 0.640625 L 34 0.640625 L 34 73 L 0 73 Z M 0 0.640625 " clip-rule="nonzero"/></clipPath><clipPath id="4eeacc6f06"><rect x="0" width="35" y="0" height="74"/></clipPath><mask id="242137f7cf"><g filter="url(#995a963577)"><rect x="-37.5" width="450" fill="#000000" y="-37.499999" height="449.999989" fill-opacity="0.2"/></g></mask><clipPath id="2a8171086a"><path d="M 0.71875 1 L 8.878906 1 L 8.878906 112.601562 L 0.71875 112.601562 Z M 0.71875 1 " clip-rule="nonzero"/></clipPath><clipPath id="2b409f9e02"><rect x="0" width="9" y="0" height="113"/></clipPath><mask id="5aa3c8e956"><g filter="url(#995a963577)"><rect x="-37.5" width="450" fill="#000000" y="-37.499999" height="449.999989" fill-opacity="0.2"/></g></mask><clipPath id="6fba19df7d"><path d="M 0 0.558594 L 12.960938 0.558594 L 12.960938 15.441406 L 0 15.441406 Z M 0 0.558594 " clip-rule="nonzero"/></clipPath><clipPath id="954cee6ff2"><rect x="0" width="13" y="0" height="16"/></clipPath><mask id="e08da7e0fc"><g filter="url(#995a963577)"><rect x="-37.5" width="450" fill="#000000" y="-37.499999" height="449.999989" fill-opacity="0.4"/></g></mask><clipPath id="d288aad850"><path d="M 0.800781 1 L 26.238281 1 L 26.238281 12.878906 L 0.800781 12.878906 Z M 0.800781 1 " clip-rule="nonzero"/></clipPath><clipPath id="7efb941808"><rect x="0" width="27" y="0" height="13"/></clipPath><mask id="d2d82b9e9c"><g filter="url(#995a963577)"><rect x="-37.5" width="450" fill="#000000" y="-37.499999" height="449.999989" fill-opacity="0.4"/></g></mask><clipPath id="96d4973beb"><rect x="0" width="34" y="0" height="14"/></clipPath><mask id="b4283d8c27"><g filter="url(#995a963577)"><rect x="-37.5" width="450" fill="#000000" y="-37.499999" height="449.999989" fill-opacity="0.4"/></g></mask><clipPath id="90ffde12c3"><path d="M 1 0.441406 L 25.839844 0.441406 L 25.839844 5.238281 L 1 5.238281 Z M 1 0.441406 " clip-rule="nonzero"/></clipPath><clipPath id="52e0305cac"><rect x="0" width="26" y="0" height="6"/></clipPath><mask id="9acf2d40b3"><g filter="url(#995a963577)"><rect x="-37.5" width="450" fill="#000000" y="-37.499999" height="449.999989" fill-opacity="0.4"/></g></mask><clipPath id="13473ba43e"><path d="M 0.640625 0.199219 L 32.800781 0.199219 L 32.800781 21 L 0.640625 21 Z M 0.640625 0.199219 " clip-rule="nonzero"/></clipPath><clipPath id="9ed6375bfd"><rect x="0" width="33" y="0" height="22"/></clipPath><mask id="9c349eee25"><g filter="url(#995a963577)"><rect x="-37.5" width="450" fill="#000000" y="-37.499999" height="449.999989" fill-opacity="0.4"/></g></mask><clipPath id="57d192fdc5"><path d="M 0.359375 1 L 66 1 L 66 32 L 0.359375 32 Z M 0.359375 1 " clip-rule="nonzero"/></clipPath><clipPath id="d9bb31161b"><rect x="0" width="67" y="0" height="33"/></clipPath><mask id="df1fdd1217"><g filter="url(#995a963577)"><rect x="-37.5" width="450" fill="#000000" y="-37.499999" height="449.999989" fill-opacity="0.4"/></g></mask><clipPath id="033b6da71b"><path d="M 1 1 L 27.71875 1 L 27.71875 9.71875 L 1 9.71875 Z M 1 1 " clip-rule="nonzero"/></clipPath><clipPath id="f2df58ccd8"><rect x="0" width="28" y="0" height="10"/></clipPath><mask id="f285cf8e12"><g filter="url(#995a963577)"><rect x="-37.5" width="450" fill="#000000" y="-37.499999" height="449.999989" fill-opacity="0.4"/></g></mask><clipPath id="09efd98a1e"><path d="M 0.28125 1 L 35 1 L 35 9 L 0.28125 9 Z M 0.28125 1 " clip-rule="nonzero"/></clipPath><clipPath id="0675889aa6"><rect x="0" width="36" y="0" height="9"/></clipPath><mask id="75b67c889a"><g filter="url(#995a963577)"><rect x="-37.5" width="450" fill="#000000" y="-37.499999" height="449.999989" fill-opacity="0.4"/></g></mask><clipPath id="051505209c"><path d="M 0.359375 0.558594 L 29 0.558594 L 29 6.800781 L 0.359375 6.800781 Z M 0.359375 0.558594 " clip-rule="nonzero"/></clipPath><clipPath id="ef97b8bd13"><rect x="0" width="30" y="0" height="7"/></clipPath><mask id="bc9e507349"><g filter="url(#995a963577)"><rect x="-37.5" width="450" fill="#000000" y="-37.499999" height="449.999989" fill-opacity="0.2"/></g></mask><clipPath id="d50dcf6f4d"><path d="M 0.121094 0.359375 L 52.441406 0.359375 L 52.441406 53.878906 L 0.121094 53.878906 Z M 0.121094 0.359375 " clip-rule="nonzero"/></clipPath><clipPath id="f3fdce5ae1"><rect x="0" width="53" y="0" height="54"/></clipPath><mask id="3ca24c982e"><g filter="url(#995a963577)"><rect x="-37.5" width="450" fill="#000000" y="-37.499999" height="449.999989" fill-opacity="0.4"/></g></mask><clipPath id="9e4247f01a"><path d="M 0.359375 1 L 21.960938 1 L 21.960938 6.601562 L 0.359375 6.601562 Z M 0.359375 1 " clip-rule="nonzero"/></clipPath><clipPath id="7a988a30ff"><rect x="0" width="22" y="0" height="7"/></clipPath></defs><path fill="#005e38" d="M 89.054688 181.136719 C 91.527344 224.484375 85.855469 250.488281 80.6875 289.425781 C 80.179688 293.253906 82.808594 296.8125 86.625 297.40625 C 139.117188 305.550781 204.570312 304.097656 277.746094 296.929688 C 281.421875 296.570312 284.203125 293.445312 284.15625 289.75 C 283.777344 258.832031 284.828125 222.035156 284.828125 182.417969 C 284.828125 124.84375 275.226562 84.851562 267.703125 35.910156 C 262.335938 1.003906 239.386719 -28.296875 204.136719 -30.46875 C 188.996094 -31.402344 173.914062 -31.328125 158.890625 -30.246094 C 103.40625 -26.25 80.515625 20.125 82.269531 75.726562 C 83.046875 100.25 87.699219 157.386719 89.054688 181.136719 Z M 89.054688 181.136719 " fill-opacity="1" fill-rule="nonzero"/><g mask="url(#887ee5155d)"><g transform="matrix(1, 0, 0, 1, 108, 139)"><g clip-path="url(#e6edc9e2b5)"><g clip-path="url(#b84fd638a3)"><path fill="#4d2a22" d="M 2.554688 75.128906 C 1.867188 75.128906 1.226562 74.691406 1 74.003906 C 0.71875 73.144531 1.1875 72.222656 2.046875 71.941406 C 48.226562 56.804688 85.511719 2.164062 85.882812 1.613281 C 86.386719 0.863281 87.402344 0.667969 88.152344 1.171875 C 88.902344 1.679688 89.097656 2.695312 88.59375 3.441406 C 88.214844 4.003906 50.300781 59.566406 3.0625 75.046875 C 2.894531 75.101562 2.722656 75.128906 2.554688 75.128906 Z M 2.554688 75.128906 " fill-opacity="1" fill-rule="nonzero"/></g></g></g></g><g mask="url(#e43c0a4091)"><g transform="matrix(1, 0, 0, 1, 174, 158)"><g clip-path="url(#4eeacc6f06)"><g clip-path="url(#0b2fe55e73)"><path fill="#4d2a22" d="M 2.300781 72.953125 C 1.988281 72.953125 1.671875 72.863281 1.394531 72.675781 C 0.640625 72.175781 0.441406 71.160156 0.945312 70.410156 C 21.640625 39.464844 30.65625 2.578125 30.742188 2.210938 C 30.953125 1.332031 31.839844 0.792969 32.714844 1 C 33.59375 1.210938 34.132812 2.09375 33.921875 2.972656 C 33.832031 3.347656 24.695312 40.785156 3.660156 72.226562 C 3.347656 72.699219 2.828125 72.953125 2.300781 72.953125 Z M 2.300781 72.953125 " fill-opacity="1" fill-rule="nonzero"/></g></g></g></g><path fill="#c98d26" d="M 353.933594 143.109375 L 310.859375 75.726562 L 267.6875 109.628906 L 298.167969 147.328125 C 298.8125 148.125 298.367188 149.3125 297.359375 149.476562 C 277.089844 152.835938 237.054688 187.035156 202.074219 208.613281 C 200.808594 209.394531 199.359375 209.859375 197.871094 209.863281 C 197.863281 209.863281 197.855469 209.863281 197.847656 209.863281 C 193.363281 209.867188 189.074219 208.011719 184.996094 206.347656 C 175.277344 202.382812 164.871094 199.027344 154.417969 200.769531 C 152.84375 201.035156 151.402344 201.941406 150.664062 203.355469 C 149.277344 205.996094 151.269531 208.296875 153.242188 209.882812 C 155.9375 212.046875 158.960938 213.800781 162.175781 215.0625 C 162.808594 215.308594 163.320312 215.847656 163.402344 216.519531 C 163.566406 217.847656 162.121094 218.304688 160.972656 218.445312 C 153.695312 219.328125 146.242188 218.734375 139.199219 216.710938 C 136.609375 215.96875 133.917969 215.023438 131.285156 215.601562 C 128.785156 216.148438 126.554688 218.765625 127.289062 221.132812 C 127.347656 221.324219 127.195312 221.527344 126.996094 221.542969 C 124.734375 221.707031 122.453125 221.273438 120.1875 221.421875 C 117.148438 221.617188 113.773438 223.257812 113.964844 226.886719 C 114 227.605469 114.203125 228.3125 114.515625 228.960938 C 115.523438 231.042969 117.355469 232.375 119.21875 233.605469 C 119.421875 233.742188 119.398438 234.046875 119.171875 234.148438 C 117.351562 234.976562 116.515625 237.460938 117.101562 239.445312 C 117.742188 241.628906 119.597656 243.234375 121.539062 244.421875 C 123.296875 245.5 125.191406 246.34375 127.085938 247.160156 C 127.300781 247.25 127.335938 247.523438 127.167969 247.683594 C 126.136719 248.652344 126.265625 250.605469 127.238281 251.738281 C 128.324219 253.011719 130.042969 253.515625 131.660156 253.949219 C 140.675781 256.375 149.890625 258.679688 159.21875 258.292969 C 167.808594 257.9375 176.09375 255.292969 183.957031 251.953125 C 191.332031 248.816406 198.785156 245.285156 205.367188 240.597656 C 206.082031 240.089844 206.855469 239.683594 207.6875 239.410156 C 217.195312 236.300781 261.519531 221.695312 297.511719 207.941406 C 311.675781 202.53125 375.019531 177.011719 353.933594 143.105469 Z M 353.933594 143.109375 " fill-opacity="1" fill-rule="nonzero"/><path fill="#005e38" d="M 78.0625 13.628906 C 57.566406 46.992188 45.78125 77.5625 30.773438 126.019531 C 29.984375 128.570312 31.234375 131.226562 33.710938 132.289062 C 57.003906 142.277344 79.988281 149.300781 102.347656 150.144531 C 104.71875 150.230469 106.761719 148.78125 107.894531 146.742188 C 124.253906 117.25 145.570312 83.828125 154.101562 45.5625 C 161.875 10.699219 141.320312 -2.558594 129.5 -8.242188 C 109.699219 -17.769531 86.078125 0.582031 78.0625 13.628906 Z M 78.0625 13.628906 " fill-opacity="1" fill-rule="nonzero"/><path fill="#005e38" d="M 78.0625 13.628906 C 57.566406 46.992188 45.78125 77.5625 30.773438 126.019531 C 29.984375 128.570312 31.234375 131.226562 33.710938 132.289062 C 57.003906 142.277344 79.988281 149.300781 102.347656 150.144531 C 104.71875 150.230469 106.761719 148.78125 107.894531 146.742188 C 124.253906 117.25 145.570312 83.828125 154.101562 45.5625 C 161.875 10.699219 141.320312 -2.558594 129.5 -8.242188 C 109.699219 -17.769531 86.078125 0.582031 78.0625 13.628906 Z M 78.0625 13.628906 " fill-opacity="1" fill-rule="nonzero"/><g mask="url(#242137f7cf)"><g transform="matrix(1, 0, 0, 1, 78, 29)"><g clip-path="url(#2b409f9e02)"><g clip-path="url(#2a8171086a)"><path fill="#4d2a22" d="M 7.121094 1.171875 C 6.378906 1.171875 5.722656 1.667969 5.535156 2.386719 C 2.039062 15.707031 0.492188 30.667969 1.003906 46.832031 C 1.46875 61.5 3.300781 87.621094 5.007812 111.523438 C 6.117188 111.773438 7.226562 112 8.332031 112.222656 C 6.617188 88.179688 4.738281 61.519531 4.273438 46.726562 C 3.785156 31.277344 5.207031 16.542969 8.699219 3.230469 C 8.972656 2.191406 8.199219 1.171875 7.121094 1.171875 Z M 7.121094 1.171875 " fill-opacity="1" fill-rule="nonzero"/></g></g></g></g><path fill="#c98d26" d="M 125.457031 -129.117188 L 200.167969 -129.117188 L 200.167969 -26.589844 C 200.167969 -6.695312 184.019531 9.453125 164.128906 9.453125 L 161.496094 9.453125 C 141.605469 9.453125 125.457031 -6.695312 125.457031 -26.589844 Z M 125.457031 -129.117188 " fill-opacity="1" fill-rule="nonzero"/><g mask="url(#5aa3c8e956)"><g transform="matrix(1, 0, 0, 1, 162, 232)"><g clip-path="url(#954cee6ff2)"><g clip-path="url(#6fba19df7d)"><path fill="#4d2a22" d="M 1.816406 15.070312 C 1.425781 15.070312 1.03125 14.929688 0.71875 14.644531 C 0.0507812 14.039062 0 13.003906 0.605469 12.335938 C 3.566406 9.074219 6.488281 5.472656 9.292969 1.636719 C 9.824219 0.90625 10.847656 0.746094 11.574219 1.28125 C 12.304688 1.8125 12.464844 2.835938 11.929688 3.5625 C 9.058594 7.496094 6.0625 11.183594 3.03125 14.53125 C 2.707031 14.886719 2.261719 15.070312 1.820312 15.070312 Z M 1.816406 15.070312 " fill-opacity="1" fill-rule="nonzero"/></g></g></g></g><g mask="url(#e08da7e0fc)"><g transform="matrix(1, 0, 0, 1, 124, 218)"><g clip-path="url(#7efb941808)"><g clip-path="url(#d288aad850)"><path fill="#dd3f40" d="M 23.996094 12.238281 C 24.136719 12.273438 24.273438 12.292969 24.410156 12.292969 C 25.136719 12.292969 25.800781 11.804688 25.992188 11.070312 C 26.21875 10.195312 25.695312 9.304688 24.820312 9.074219 C 23.019531 8.605469 21.15625 8.25 19.183594 7.871094 C 13.277344 6.742188 7.195312 5.574219 3.285156 1.234375 C 3.109375 1.855469 3.089844 2.503906 3.285156 3.132812 C 3.347656 3.324219 3.195312 3.527344 2.992188 3.542969 C 2.320312 3.589844 1.644531 3.585938 0.964844 3.558594 C 5.597656 8.601562 12.4375 9.910156 18.570312 11.082031 C 20.488281 11.449219 22.296875 11.796875 23.996094 12.238281 Z M 23.996094 12.238281 " fill-opacity="1" fill-rule="nonzero"/></g></g></g></g><g mask="url(#d2d82b9e9c)"><g transform="matrix(1, 0, 0, 1, 114, 228)"><g clip-path="url(#96d4973beb)"><path fill="#dd3f40" d="M 31.265625 12.757812 C 32.160156 12.757812 32.890625 12.039062 32.898438 11.144531 C 32.910156 10.242188 32.1875 9.5 31.285156 9.488281 C 16.210938 9.296875 4.230469 4.808594 0.613281 1.136719 C 1.636719 3.117188 3.40625 4.410156 5.214844 5.605469 C 5.421875 5.742188 5.394531 6.046875 5.171875 6.148438 C 4.667969 6.378906 4.246094 6.742188 3.902344 7.183594 C 10.535156 10.398438 20.699219 12.625 31.246094 12.757812 Z M 31.265625 12.757812 " fill-opacity="1" fill-rule="nonzero"/></g></g></g><g mask="url(#b4283d8c27)"><g transform="matrix(1, 0, 0, 1, 296, 145)"><g clip-path="url(#52e0305cac)"><g clip-path="url(#90ffde12c3)"><path fill="#dd3f40" d="M 23.90625 1.910156 C 17.082031 0.507812 8.632812 0.570312 1.179688 1.101562 L 2.167969 2.328125 C 2.730469 3.019531 2.460938 4.011719 1.714844 4.363281 C 8.886719 3.863281 16.902344 3.808594 23.25 5.113281 C 24.132812 5.292969 25 4.726562 25.179688 3.839844 C 25.363281 2.957031 24.792969 2.09375 23.90625 1.910156 Z M 23.90625 1.910156 " fill-opacity="1" fill-rule="nonzero"/></g></g></g></g><path fill="#c98d26" d="M 221.015625 235.671875 C 218.785156 235.1875 216.449219 235.277344 214.226562 234.765625 C 214.035156 234.722656 213.949219 234.503906 214.039062 234.324219 C 215.117188 232.09375 213.304688 229.171875 210.914062 228.257812 C 208.398438 227.292969 205.59375 227.824219 202.921875 228.171875 C 195.652344 229.117188 188.195312 228.585938 181.132812 226.625 C 180.019531 226.316406 178.660156 225.648438 179.019531 224.359375 C 179.203125 223.707031 179.785156 223.25 180.449219 223.101562 C 183.816406 222.335938 187.070312 221.054688 190.054688 219.320312 C 192.246094 218.046875 194.558594 216.066406 193.585938 213.25 C 193.0625 211.738281 191.773438 210.628906 190.257812 210.132812 C 180.183594 206.84375 169.394531 208.605469 159.191406 211.070312 C 157.375 211.507812 155.515625 211.976562 153.636719 212.316406 C 150.980469 212.796875 148.257812 212.03125 146.164062 210.328125 C 123.703125 192.050781 101.089844 170.285156 83.242188 162.867188 C 82.363281 162.503906 81.921875 161.515625 82.226562 160.613281 L 86.332031 148.53125 C 71.128906 146.117188 55.679688 141.261719 40.074219 134.933594 L 30.539062 175.152344 C 28.613281 182.65625 30.921875 188.96875 34.886719 194.226562 C 38.4375 198.933594 43.238281 202.550781 48.621094 204.972656 C 63.953125 211.863281 108.558594 231.964844 135.203125 243.972656 C 136.535156 244.574219 137.769531 245.367188 138.90625 246.292969 C 143.476562 250 148.4375 253.265625 153.394531 256.316406 C 160.667969 260.796875 168.464844 264.648438 176.90625 266.289062 C 186.070312 268.066406 195.523438 267.167969 204.804688 266.117188 C 206.46875 265.929688 208.238281 265.691406 209.507812 264.597656 C 210.636719 263.621094 211.058594 261.707031 210.183594 260.59375 C 210.042969 260.414062 210.117188 260.148438 210.339844 260.089844 C 212.339844 259.566406 214.335938 259.015625 216.238281 258.214844 C 218.332031 257.328125 220.410156 256.019531 221.371094 253.957031 C 222.246094 252.082031 221.792969 249.5 220.113281 248.410156 C 219.90625 248.273438 219.925781 247.96875 220.152344 247.867188 C 222.175781 246.929688 224.1875 245.886719 225.496094 243.976562 C 225.902344 243.382812 226.207031 242.714844 226.351562 242.007812 C 227.082031 238.449219 223.988281 236.320312 221.015625 235.671875 Z M 221.015625 235.671875 " fill-opacity="1" fill-rule="nonzero"/><g mask="url(#9acf2d40b3)"><g transform="matrix(1, 0, 0, 1, 116, 235)"><g clip-path="url(#9ed6375bfd)"><g clip-path="url(#13473ba43e)"><path fill="#dd3f40" d="M 31.429688 17.503906 C 28.460938 15.53125 25.554688 13.449219 22.789062 11.199219 C 21.730469 10.335938 20.582031 9.597656 19.335938 9.035156 C 13.972656 6.617188 7.867188 3.867188 1.421875 0.960938 C 0.914062 2.003906 0.773438 3.273438 1.089844 4.398438 C 6.925781 7.027344 12.453125 9.519531 17.386719 11.742188 C 12.695312 11.425781 8.125 10.578125 4.195312 8.507812 C 4.628906 8.835938 5.082031 9.140625 5.539062 9.421875 C 7.296875 10.5 9.191406 11.339844 11.085938 12.160156 C 11.300781 12.25 11.335938 12.523438 11.167969 12.679688 C 10.765625 13.054688 10.546875 13.582031 10.476562 14.148438 C 14.390625 14.960938 18.503906 15.167969 22.554688 15.183594 C 24.910156 17.003906 27.296875 18.683594 29.574219 20.199219 C 29.816406 20.363281 30.097656 20.457031 30.386719 20.472656 C 30.410156 20.472656 30.429688 20.476562 30.449219 20.476562 C 32.101562 20.570312 32.804688 18.417969 31.429688 17.5 Z M 31.429688 17.503906 " fill-opacity="1" fill-rule="nonzero"/></g></g></g></g><g mask="url(#9c349eee25)"><g transform="matrix(1, 0, 0, 1, 159, 204)"><g clip-path="url(#d9bb31161b)"><g clip-path="url(#57d192fdc5)"><path fill="#dd3f40" d="M 62.710938 28.480469 C 61.265625 28.164062 59.890625 28.0625 58.558594 27.941406 C 58.476562 27.351562 58.320312 26.757812 58.089844 26.175781 C 57.199219 23.921875 55.328125 22.0625 53.082031 21.203125 C 51.742188 20.6875 50.273438 20.441406 48.597656 20.441406 C 47.101562 20.441406 45.675781 20.632812 44.300781 20.820312 L 43.5 20.929688 C 41.3125 21.214844 39.078125 21.359375 36.855469 21.359375 C 33.796875 21.359375 30.75 21.089844 27.753906 20.554688 C 29.453125 19.875 31.105469 19.070312 32.699219 18.148438 C 38.796875 14.601562 38.433594 10.382812 37.675781 8.183594 C 37.355469 7.253906 36.851562 6.398438 36.210938 5.644531 C 32.675781 5.121094 29.265625 3.679688 25.996094 2.347656 C 25.0625 1.96875 24.121094 1.59375 23.175781 1.230469 C 21.878906 1.121094 20.546875 1.0625 19.171875 1.0625 C 13.0625 1.0625 6.929688 2.175781 1.859375 3.324219 C 0.984375 3.523438 0.441406 4.402344 0.652344 5.277344 C 0.65625 5.289062 0.660156 5.300781 0.660156 5.316406 C 0.867188 6.179688 1.730469 6.707031 2.59375 6.511719 C 12.078125 4.363281 21.976562 3.101562 31.269531 6.136719 C 32.78125 6.632812 34.066406 7.746094 34.585938 9.25 C 35.558594 12.070312 33.246094 14.046875 31.054688 15.320312 C 28.070312 17.054688 24.820312 18.335938 21.449219 19.101562 C 20.789062 19.253906 20.203125 19.707031 20.019531 20.363281 C 19.660156 21.652344 21.019531 22.320312 22.136719 22.628906 C 29.195312 24.589844 36.652344 25.117188 43.921875 24.171875 C 46.59375 23.824219 49.398438 23.292969 51.914062 24.257812 C 54.304688 25.171875 56.117188 28.097656 55.039062 30.324219 C 54.953125 30.503906 55.035156 30.722656 55.230469 30.769531 C 57.011719 31.179688 58.867188 31.207031 60.683594 31.449219 C 62.335938 30.898438 64.109375 30.304688 65.988281 29.675781 C 65.019531 29.15625 63.925781 28.746094 62.710938 28.480469 Z M 62.710938 28.480469 " fill-opacity="1" fill-rule="nonzero"/></g></g></g></g><g mask="url(#df1fdd1217)"><g transform="matrix(1, 0, 0, 1, 189, 231)"><g clip-path="url(#f2df58ccd8)"><g clip-path="url(#033b6da71b)"><path fill="#dd3f40" d="M 3.199219 9.230469 C 3.054688 9.246094 2.917969 9.242188 2.78125 9.21875 C 2.0625 9.113281 1.480469 8.53125 1.402344 7.773438 C 1.304688 6.878906 1.957031 6.074219 2.855469 5.976562 C 4.707031 5.78125 6.605469 5.710938 8.609375 5.632812 C 14.621094 5.398438 20.804688 5.152344 25.324219 1.449219 C 25.402344 2.089844 25.324219 2.730469 25.035156 3.324219 C 24.949219 3.507812 25.066406 3.730469 25.265625 3.773438 C 25.925781 3.925781 26.59375 4.019531 27.265625 4.09375 C 21.933594 8.386719 14.972656 8.65625 8.738281 8.898438 C 6.785156 8.972656 4.941406 9.042969 3.199219 9.230469 Z M 3.199219 9.230469 " fill-opacity="1" fill-rule="nonzero"/></g></g></g></g><g mask="url(#f285cf8e12)"><g transform="matrix(1, 0, 0, 1, 191, 243)"><g clip-path="url(#0675889aa6)"><g clip-path="url(#09efd98a1e)"><path fill="#dd3f40" d="M 2.324219 8.039062 C 1.441406 7.90625 0.828125 7.085938 0.949219 6.199219 C 1.074219 5.304688 1.898438 4.679688 2.792969 4.804688 C 17.726562 6.871094 30.246094 4.222656 34.371094 1.136719 C 33.0625 2.941406 31.117188 3.957031 29.152344 4.867188 C 28.925781 4.96875 28.90625 5.273438 29.113281 5.410156 C 29.578125 5.710938 29.941406 6.136719 30.214844 6.621094 C 23.171875 8.804688 12.789062 9.488281 2.34375 8.042969 Z M 2.324219 8.039062 " fill-opacity="1" fill-rule="nonzero"/></g></g></g></g><g mask="url(#75b67c889a)"><g transform="matrix(1, 0, 0, 1, 189, 256)"><g clip-path="url(#ef97b8bd13)"><g clip-path="url(#051505209c)"><path fill="#dd3f40" d="M 21.648438 6.148438 C 17.515625 6.371094 13.273438 5.929688 9.132812 5.300781 C 7.351562 5.03125 5.585938 4.730469 3.859375 4.433594 L 1.875 4.09375 C 0.984375 3.945312 0.386719 3.101562 0.535156 2.210938 C 0.683594 1.320312 1.554688 0.703125 2.417969 0.871094 L 4.414062 1.210938 C 12.414062 2.585938 21.265625 4.09375 28.699219 1.511719 C 28.222656 1.769531 27.730469 2.003906 27.234375 2.214844 C 25.332031 3.015625 23.335938 3.566406 21.339844 4.089844 C 21.117188 4.148438 21.039062 4.414062 21.183594 4.59375 C 21.523438 5.027344 21.664062 5.578125 21.644531 6.148438 Z M 21.648438 6.148438 " fill-opacity="1" fill-rule="nonzero"/></g></g></g></g><path fill="#005e38" d="M 270.828125 -6.046875 C 298.828125 21.464844 317.875 48.648438 344.59375 92.785156 C 346 95.109375 345.503906 98.109375 343.4375 99.871094 C 324.003906 116.425781 304.089844 129.929688 283.171875 137.089844 C 280.957031 137.851562 278.648438 136.980469 277.050781 135.261719 C 253.960938 110.445312 225.167969 83.105469 207.207031 47.316406 C 190.84375 14.710938 197.605469 -15.753906 209.125 -22.28125 C 228.316406 -33.15625 259.875 -16.804688 270.828125 -6.046875 Z M 270.828125 -6.046875 " fill-opacity="1" fill-rule="nonzero"/><g mask="url(#bc9e507349)"><g transform="matrix(1, 0, 0, 1, 231, 87)"><g clip-path="url(#f3fdce5ae1)"><g clip-path="url(#d50dcf6f4d)"><path fill="#4d2a22" d="M 52.070312 53.484375 C 51.980469 52.382812 51.886719 51.28125 51.789062 50.1875 C 49.691406 50.726562 47.554688 49.878906 46.050781 48.261719 C 32.675781 33.886719 17.386719 18.664062 3.398438 1.441406 C 2.753906 0.644531 1.542969 0.640625 0.898438 1.4375 C 0.890625 1.445312 0.882812 1.453125 0.875 1.460938 C 0.394531 2.058594 0.390625 2.914062 0.875 3.507812 C 11.375 16.4375 22.554688 28.207031 33.03125 39.230469 C 36.730469 43.125 40.226562 46.804688 43.65625 50.488281 C 45.515625 52.488281 48.019531 53.636719 50.523438 53.636719 C 51.042969 53.636719 51.558594 53.582031 52.070312 53.484375 Z M 52.070312 53.484375 " fill-opacity="1" fill-rule="nonzero"/></g></g></g></g><g mask="url(#3ca24c982e)"><g transform="matrix(1, 0, 0, 1, 63, 159)"><g clip-path="url(#7a988a30ff)"><g clip-path="url(#9e4247f01a)"><path fill="#dd3f40" d="M 20.242188 3.871094 C 19.363281 3.503906 18.921875 2.519531 19.226562 1.613281 L 19.417969 1.0625 C 10.59375 1.246094 2.417969 3.082031 1.957031 3.1875 C 1.074219 3.390625 0.527344 4.265625 0.726562 5.144531 C 0.898438 5.902344 1.574219 6.417969 2.320312 6.417969 C 2.4375 6.417969 2.5625 6.402344 2.683594 6.375 C 2.800781 6.347656 12.085938 4.265625 21.28125 4.324219 C 20.933594 4.171875 20.585938 4.011719 20.242188 3.871094 Z M 20.242188 3.871094 " fill-opacity="1" fill-rule="nonzero"/></g></g></g></g><path fill="#f4d668" d="M 56.296875 244.738281 C 54.53125 238.15625 46.03125 234.441406 39.726562 235.148438 C 37.097656 235.445312 34.554688 236.441406 32.402344 237.980469 C 31.480469 238.640625 30.449219 239.445312 29.683594 240.28125 C 29.488281 240.496094 28.675781 241.628906 28.175781 242.53125 C 27.933594 242.96875 27.339844 243.035156 26.996094 242.667969 C 23.671875 239.097656 17.980469 237.863281 13.519531 239.898438 C 11.785156 240.691406 10.269531 241.898438 8.902344 243.222656 C 3.347656 248.613281 0.0234375 256.566406 1.253906 264.207031 C 2.429688 271.507812 8.234375 278.097656 15.460938 279.390625 C 15.9375 279.476562 16.203125 279.996094 15.984375 280.425781 C 12.226562 287.78125 15.027344 297.9375 22.1875 302.160156 C 29.328125 306.371094 39.542969 303.929688 44.175781 297.117188 C 44.457031 296.707031 45.046875 296.707031 45.355469 297.097656 C 46.929688 299.082031 49.464844 300.261719 52.015625 300.464844 C 54.925781 300.695312 57.835938 299.777344 60.382812 298.34375 C 66.019531 295.171875 70.082031 289.339844 71.105469 282.953125 C 72.085938 276.835938 70.261719 270.332031 66.273438 265.597656 C 65.992188 265.261719 66.050781 264.769531 66.414062 264.515625 C 72.210938 260.464844 76.375 254.34375 79.074219 247.789062 C 81.507812 241.878906 83.117188 235.363281 83.988281 228.976562 C 84.085938 228.253906 83.210938 227.84375 82.714844 228.375 C 79.703125 231.609375 75.96875 234.472656 72.421875 236.917969 C 71.214844 237.75 56.535156 245.636719 56.292969 244.738281 Z M 56.296875 244.738281 " fill-opacity="1" fill-rule="nonzero"/><path fill="#f4d668" d="M 280.042969 256.648438 C 280.574219 256.769531 281.070312 256.351562 281.054688 255.808594 C 280.929688 251.761719 281.457031 247.652344 283.203125 244.011719 C 285.105469 240.050781 288.609375 236.710938 292.898438 235.734375 C 296.640625 234.882812 300.902344 236.125 303.332031 239.019531 C 303.75 239.515625 304.53125 239.359375 304.742188 238.746094 C 306.914062 232.359375 312.726562 227.398438 319.308594 225.730469 C 326.445312 223.925781 334.230469 225.726562 340.382812 229.769531 C 344.480469 232.460938 348.023438 236.261719 349.539062 240.929688 C 350.34375 243.410156 350.382812 245.921875 349.96875 248.476562 C 349.828125 249.351562 349.285156 251.328125 348.558594 252.757812 C 348.273438 253.320312 348.710938 253.972656 349.339844 253.9375 C 351.160156 253.824219 353.027344 254.289062 354.644531 255.15625 C 356.910156 256.363281 358.722656 258.292969 360.160156 260.417969 C 363.445312 265.285156 364.886719 271.371094 364.132812 277.195312 C 363.738281 280.234375 362.773438 283.179688 361.503906 285.96875 C 360.457031 288.265625 359.183594 290.488281 357.46875 292.34375 C 352.53125 297.6875 343.886719 299.070312 337.460938 295.738281 C 336.929688 295.460938 336.300781 295.828125 336.273438 296.421875 C 335.949219 303.5625 331.183594 310.375 324.511719 312.996094 C 317.417969 315.789062 308.671875 313.640625 303.675781 307.878906 C 302.742188 306.800781 301.917969 305.515625 301.523438 304.164062 C 301.324219 303.488281 300.453125 303.34375 300.054688 303.925781 C 299.0625 305.390625 297.753906 306.617188 296.136719 307.308594 C 293.898438 308.261719 291.355469 308.078125 288.941406 307.757812 C 286.792969 307.472656 284.617188 307.074219 282.707031 306.050781 C 279.304688 304.230469 277.140625 300.558594 276.519531 296.753906 C 275.550781 290.828125 277.691406 284.800781 280.308594 279.582031 C 280.503906 279.191406 280.359375 278.726562 279.980469 278.507812 C 266.914062 271.058594 255.636719 257.441406 252.203125 242.523438 C 252 241.640625 253.195312 241.136719 253.695312 241.894531 C 254.539062 243.179688 255.238281 244.589844 256.296875 245.734375 C 258.265625 247.855469 260.882812 249.503906 263.410156 250.875 C 268.582031 253.683594 274.332031 255.304688 280.042969 256.648438 Z M 280.042969 256.648438 " fill-opacity="1" fill-rule="nonzero"/><path fill="#f4d668" d="M 170.050781 364.917969 C 170.113281 364.4375 170.5 364.070312 170.980469 364.003906 C 181.746094 362.550781 193.113281 356.632812 190.304688 344.070312 C 189.894531 342.234375 187.550781 336.867188 184.703125 335.34375 C 184.070312 335.003906 183.976562 334.128906 184.480469 333.621094 C 186.429688 331.65625 187.320312 328.539062 187.339844 325.671875 C 187.367188 322.058594 186.289062 318.300781 183.726562 315.757812 C 181.640625 313.6875 178.457031 312.632812 175.644531 313.253906 C 174.855469 313.429688 174.160156 312.695312 174.375 311.914062 C 176.65625 303.570312 177.085938 295.960938 176.152344 287.1875 C 175.671875 282.667969 175.039062 274.464844 172.25 270.203125 C 171.785156 269.492188 170.695312 269.609375 170.355469 270.390625 C 168.328125 275.070312 168.554688 282.058594 167.425781 286.777344 C 165.34375 295.503906 162.175781 303.976562 158.019531 311.925781 C 157.757812 312.425781 157.15625 312.640625 156.632812 312.425781 C 152.566406 310.753906 148.28125 309.203125 143.949219 309.808594 C 140.011719 310.363281 136.179688 313.441406 135.570312 317.179688 C 135.445312 317.933594 134.621094 318.359375 133.964844 317.964844 C 130.167969 315.6875 124.542969 316.914062 121.351562 320.246094 C 117.664062 324.097656 116.59375 329.757812 116.496094 335.085938 C 116.382812 341.222656 117.492188 347.722656 121.476562 352.390625 C 125.027344 356.550781 131.355469 358.617188 136.230469 356.5 C 136.957031 356.183594 137.773438 356.703125 137.75 357.496094 C 137.648438 361.515625 139.335938 365.554688 142.121094 368.488281 C 145.367188 371.902344 149.96875 373.867188 154.652344 374.347656 C 158.105469 374.703125 161.730469 374.257812 164.730469 372.511719 C 167.496094 370.898438 169.644531 368.070312 170.050781 364.917969 Z M 170.050781 364.917969 " fill-opacity="1" fill-rule="nonzero"/></svg>