<svg xmlns="http://www.w3.org/2000/svg" xmlns:xlink="http://www.w3.org/1999/xlink" width="500" zoomAndPan="magnify" viewBox="0 0 375 374.999991" height="500" preserveAspectRatio="xMidYMid meet" version="1.0"><path fill="#c98d26" d="M 125.378906 339.734375 C 98.390625 345.644531 55.261719 366.679688 58.464844 440.847656 L 16.464844 440.847656 C 0.0351562 339.742188 74.34375 301.070312 104.25 290.765625 C 102.734375 261.910156 120.234375 231.167969 168.40625 188.738281 C 214.429688 147.753906 213.1875 87.101562 182.5 40.523438 C 133.675781 -33.574219 140.484375 -65.453125 140.484375 -65.453125 L 186.085938 -65.878906 C 190.3125 -0.488281 244.101562 49.8125 253.609375 47.0625 C 291.4375 36.121094 361.066406 48.023438 366.199219 162.210938 C 375.066406 359.582031 191.035156 415.761719 125.378906 339.734375 Z M 125.378906 339.734375 " fill-opacity="1" fill-rule="nonzero"/><path fill="#f4d668" d="M 24.710938 420.539062 C 24.746094 421.238281 24.847656 421.914062 25.011719 422.570312 C 31.289062 428.476562 41.671875 428.542969 47.914062 423.296875 C 48.152344 422.53125 48.3125 421.730469 48.359375 420.894531 C 52.226562 350.035156 97.226562 346.6875 112.449219 331.722656 C 114.90625 327.84375 116.605469 323.464844 117.382812 318.820312 C 117.382812 318.820312 117.390625 318.828125 117.394531 318.839844 L 118.484375 320.871094 C 123.199219 328.796875 144.570312 357.050781 210.152344 358.261719 C 224.90625 358.535156 238.515625 356.421875 250.945312 352.753906 C 271.109375 344.941406 290.011719 332.34375 305.898438 315.730469 C 330.644531 289.851562 359.390625 242.289062 355.8125 162.675781 C 351.414062 64.800781 299.113281 54.230469 276.832031 54.230469 C 269.898438 54.230469 262.863281 55.207031 256.496094 57.046875 C 255.3125 57.390625 254.0625 57.5625 252.777344 57.5625 L 252.773438 57.5625 C 238.789062 57.5625 218.21875 34.347656 208.265625 20.628906 C 199.136719 8.039062 184.640625 -15.5625 178.425781 -45.402344 C 177.214844 -51.203125 172.085938 -55.351562 166.160156 -55.300781 C 157.878906 -55.222656 151.984375 -47.273438 154.265625 -39.3125 C 158.867188 -23.25 169.015625 1.164062 191.179688 34.800781 C 227.835938 90.429688 221.460938 155.410156 175.277344 196.535156 C 131.9375 234.707031 113.234375 263.601562 114.632812 290.21875 L 114.632812 290.605469 C 114.632812 295.074219 111.835938 299.0625 107.640625 300.589844 C 97.308594 304.152344 71.09375 314.976562 50.871094 338.527344 C 31.832031 360.695312 23.070312 388.21875 24.710938 420.539062 Z M 24.710938 420.539062 " fill-opacity="1" fill-rule="nonzero"/><path fill="#ffffff" d="M 317.113281 209.917969 C 319.074219 213.453125 320.191406 217.511719 320.191406 221.839844 C 320.191406 235.433594 309.171875 246.457031 295.574219 246.457031 C 288.355469 246.457031 281.863281 243.351562 277.359375 238.402344 C 273.128906 245.855469 265.125 250.882812 255.945312 250.882812 C 242.347656 250.882812 231.324219 239.863281 231.324219 226.265625 C 231.324219 220.59375 233.25 215.375 236.46875 211.210938 C 230.324219 206.390625 226.371094 198.898438 226.371094 190.480469 C 226.371094 175.925781 238.167969 164.128906 252.71875 164.128906 C 255.660156 164.128906 258.488281 164.621094 261.128906 165.507812 C 260.617188 163.457031 260.339844 161.308594 260.339844 159.097656 C 260.339844 144.546875 272.136719 132.75 286.6875 132.75 C 301.242188 132.75 313.039062 144.546875 313.039062 159.097656 C 313.039062 159.886719 312.996094 160.664062 312.929688 161.433594 C 325.769531 162.269531 335.925781 172.945312 335.925781 185.996094 C 335.925781 197.589844 327.90625 207.308594 317.113281 209.917969 Z M 216.921875 266.308594 C 217.28125 264.988281 217.492188 263.609375 217.492188 262.175781 C 217.492188 253.519531 210.476562 246.507812 201.824219 246.507812 C 193.171875 246.507812 186.15625 253.519531 186.15625 262.175781 C 186.15625 263.421875 186.316406 264.628906 186.59375 265.796875 C 178.058594 266.316406 171.289062 273.382812 171.289062 282.050781 C 171.289062 291.054688 178.589844 298.355469 187.597656 298.355469 C 192.652344 298.355469 197.171875 296.054688 200.160156 292.441406 C 203.152344 296.054688 207.671875 298.355469 212.726562 298.355469 C 221.734375 298.355469 229.035156 291.054688 229.035156 282.050781 C 229.035156 274.5 223.890625 268.164062 216.921875 266.308594 Z M 216.921875 266.308594 " fill-opacity="1" fill-rule="nonzero"/><path fill="#c98d26" d="M 337.214844 102.214844 C 337.246094 103.972656 336.84375 105.476562 335.109375 104.445312 C 333.453125 103.464844 308.109375 79.691406 298.117188 70.292969 C 297.113281 69.347656 298.105469 67.699219 299.414062 68.140625 C 311.847656 72.332031 326.039062 80.085938 335.425781 96.125 C 336.511719 97.976562 337.175781 100.070312 337.214844 102.214844 Z M 271.925781 62.300781 C 268.394531 64.304688 285.328125 66.71875 287.886719 65.039062 C 290.445312 63.359375 276.40625 59.757812 271.925781 62.300781 Z M 271.925781 62.300781 " fill-opacity="1" fill-rule="nonzero"/><path fill="#c98d26" d="M 104.25 290.765625 L 110.945312 304.695312 C 110.945312 304.695312 105.066406 296.21875 95.125 297.238281 C 87.214844 298.046875 79.878906 301.859375 77.445312 303.242188 C 87.667969 297.207031 97.195312 293.195312 104.25 290.761719 Z M 229.921875 58.484375 C 237.679688 53.476562 245.550781 49.472656 253.609375 47.0625 C 247.730469 48.761719 224.925781 30.175781 207.371094 0.285156 C 207.371094 0.289062 207.371094 0.292969 207.375 0.292969 C 229.527344 43.238281 242.390625 41.941406 239.914062 47.0625 C 237.441406 52.183594 229.921875 58.484375 229.921875 58.484375 Z M 229.921875 58.484375 " fill-opacity="1" fill-rule="nonzero"/></svg>